<?xml version="1.0" encoding="UTF-8" standalone="no"?>
<svg width="18px" height="18px" viewBox="0 0 18 18" version="1.1" xmlns="http://www.w3.org/2000/svg" xmlns:xlink="http://www.w3.org/1999/xlink">
    <!-- Generator: Sketch 39.1 (31720) - http://www.bohemiancoding.com/sketch -->
    <title>Filter</title>
    <desc>Created with Sketch.</desc>
    <defs></defs>
    <g id="Search-Results" stroke="none" stroke-width="1" fill="none" fill-rule="evenodd">
        <g id="Search---Mobile" transform="translate(-159.000000, -303.000000)" fill="#FFFFFF">
            <path d="M168,321 C163.029437,321 159,316.970563 159,312 C159,307.029437 163.029437,303 168,303 C172.970563,303 177,307.029437 177,312 C177,314.386948 176.051788,316.676134 174.363961,318.363961 C172.676134,320.051788 170.386948,321 168,321 L168,321 Z M168,304.5 C163.857864,304.5 160.5,307.857864 160.5,312 C160.5,316.142136 163.857864,319.5 168,319.5 C172.142136,319.5 175.5,316.142136 175.5,312 C175.5,310.010876 174.709824,308.103222 173.303301,306.696699 C171.896778,305.290176 169.989124,304.5 168,304.5 L168,304.5 Z M172.5,310.5 L163.5,310.5 C163.085786,310.5 162.75,310.164214 162.75,309.75 C162.75,309.335786 163.085786,309 163.5,309 L172.5,309 C172.914214,309 173.25,309.335786 173.25,309.75 C173.25,310.164214 172.914214,310.5 172.5,310.5 L172.5,310.5 Z M165,312 L171,312 C171.414214,312 171.75,312.335786 171.75,312.75 C171.75,313.164214 171.414214,313.5 171,313.5 L165,313.5 C164.585786,313.5 164.25,313.164214 164.25,312.75 C164.25,312.335786 164.585786,312 165,312 L165,312 Z M166.5,315 L169.5,315 C169.914214,315 170.25,315.335786 170.25,315.75 C170.25,316.164214 169.914214,316.5 169.5,316.5 L166.5,316.5 C166.085786,316.5 165.75,316.164214 165.75,315.75 C165.75,315.335786 166.085786,315 166.5,315 L166.5,315 Z" id="Filter"></path>
        </g>
    </g>
</svg>