<?xml version="1.0" encoding="utf-8"?>
<!-- Generator: Adobe Illustrator 19.0.0, SVG Export Plug-In . SVG Version: 6.00 Build 0)  -->
<svg version="1.1" id="Layer_1" xmlns="http://www.w3.org/2000/svg" xmlns:xlink="http://www.w3.org/1999/xlink" x="0px" y="0px"
	 viewBox="0 0 96 96" style="enable-background:new 0 0 96 96;" xml:space="preserve">
<style type="text/css">
	.st0{fill:#ffffff;}
</style>
<g id="XMLID_5_">
	<path id="XMLID_9_" class="st0" d="M58.2,53.8h-2.3L55.1,53c2.9-3.3,4.6-7.6,4.6-12.3c0-10.5-8.5-19-19-19c-10.5,0-19,8.5-19,19
		c0,10.5,8.5,19,19,19c4.7,0,9-1.7,12.3-4.6l0.8,0.8v2.3l14.6,14.6l4.3-4.3L58.2,53.8z M40.7,53.8c-7.3,0-13.1-5.9-13.1-13.1
		s5.9-13.1,13.1-13.1s13.1,5.9,13.1,13.1S48,53.8,40.7,53.8z"/>
</g>
</svg>
