<?xml version="1.0" encoding="UTF-8"?>
<svg width="98px" height="70px" viewBox="0 0 98 70" version="1.1" xmlns="http://www.w3.org/2000/svg" xmlns:xlink="http://www.w3.org/1999/xlink">
    <!-- Generator: Sketch 45.1 (43504) - http://www.bohemiancoding.com/sketch -->
    <title>US</title>
    <desc>Created with Sketch.</desc>
    <defs>
        <rect id="path-1" x="0" y="0" width="98" height="70" rx="8"></rect>
        <linearGradient x1="50%" y1="0%" x2="50%" y2="100%" id="linearGradient-3">
            <stop stop-color="#FFFFFF" offset="0%"></stop>
            <stop stop-color="#F0F0F0" offset="100%"></stop>
        </linearGradient>
        <rect id="path-4" x="0" y="0" width="98" height="70" rx="1.5"></rect>
        <filter x="-1.8%" y="-1.8%" width="103.6%" height="105.0%" filterUnits="objectBoundingBox" id="filter-6">
            <feOffset dx="0" dy="0.5" in="SourceAlpha" result="shadowOffsetOuter1"></feOffset>
            <feGaussianBlur stdDeviation="0.5" in="shadowOffsetOuter1" result="shadowBlurOuter1"></feGaussianBlur>
            <feColorMatrix values="0 0 0 0 0   0 0 0 0 0   0 0 0 0 0  0 0 0 0.16 0" type="matrix" in="shadowBlurOuter1"></feColorMatrix>
        </filter>
        <linearGradient x1="50%" y1="0%" x2="50%" y2="100%" id="linearGradient-7">
            <stop stop-color="#D02F44" offset="0%"></stop>
            <stop stop-color="#B12537" offset="100%"></stop>
        </linearGradient>
        <rect id="path-8" x="0" y="0" width="98" height="70" rx="1.5"></rect>
        <filter x="-0.3%" y="-0.4%" width="100.5%" height="100.7%" filterUnits="objectBoundingBox" id="filter-10">
            <feOffset dx="0" dy="-0.5" in="SourceAlpha" result="shadowOffsetInner1"></feOffset>
            <feComposite in="shadowOffsetInner1" in2="SourceAlpha" operator="arithmetic" k2="-1" k3="1" result="shadowInnerInner1"></feComposite>
            <feColorMatrix values="0 0 0 0 0   0 0 0 0 0   0 0 0 0 0  0 0 0 0.04 0" type="matrix" in="shadowInnerInner1" result="shadowMatrixInner1"></feColorMatrix>
            <feOffset dx="0" dy="0.5" in="SourceAlpha" result="shadowOffsetInner2"></feOffset>
            <feComposite in="shadowOffsetInner2" in2="SourceAlpha" operator="arithmetic" k2="-1" k3="1" result="shadowInnerInner2"></feComposite>
            <feColorMatrix values="0 0 0 0 1   0 0 0 0 1   0 0 0 0 1  0 0 0 0.12 0" type="matrix" in="shadowInnerInner2" result="shadowMatrixInner2"></feColorMatrix>
            <feMerge>
                <feMergeNode in="shadowMatrixInner1"></feMergeNode>
                <feMergeNode in="shadowMatrixInner2"></feMergeNode>
            </feMerge>
        </filter>
        <linearGradient x1="50%" y1="0%" x2="50%" y2="100%" id="linearGradient-11">
            <stop stop-color="#46467F" offset="0%"></stop>
            <stop stop-color="#3C3C6D" offset="100%"></stop>
        </linearGradient>
    </defs>
    <g id="V3---Vinnie-Edits" stroke="none" stroke-width="1" fill="none" fill-rule="evenodd">
        <g id="CorpSite_Homepage_V2.4" transform="translate(-121.000000, -3067.000000)">
            <g id="Footer" transform="translate(0.000000, 2789.000000)">
                <g id="Footer-Bottom" transform="translate(100.000000, 264.000000)">
                    <g id="Flags">
                        <g id="USA">
                            <g id="US" transform="translate(21.000000, 14.000000)">
                                <mask id="mask-2" fill="white">
                                    <use xlink:href="#path-1"></use>
                                </mask>
                                <use id="Mask" fill="#F4F4F4" xlink:href="#path-1"></use>
                                <g mask="url(#mask-2)">
                                    <g>
                                        <mask id="mask-5" fill="white">
                                            <use xlink:href="#path-4"></use>
                                        </mask>
                                        <g id="Mask">
                                            <use fill="black" fill-opacity="1" filter="url(#filter-6)" xlink:href="#path-4"></use>
                                            <use fill="url(#linearGradient-3)" fill-rule="evenodd" xlink:href="#path-4"></use>
                                        </g>
                                        <path d="M0,0 L98,0 L98,4.66666667 L0,4.66666667 L0,0 Z M0,9.33333333 L98,9.33333333 L98,14 L0,14 L0,9.33333333 Z M0,18.6666667 L98,18.6666667 L98,23.3333333 L0,23.3333333 L0,18.6666667 Z M0,28 L98,28 L98,32.6666667 L0,32.6666667 L0,28 Z M0,37.3333333 L98,37.3333333 L98,42 L0,42 L0,37.3333333 Z M0,46.6666667 L98,46.6666667 L98,51.3333333 L0,51.3333333 L0,46.6666667 Z M0,56 L98,56 L98,60.6666667 L0,60.6666667 L0,56 Z M0,65.3333333 L98,65.3333333 L98,70 L0,70 L0,65.3333333 Z" id="Rectangle-511" fill="url(#linearGradient-7)" mask="url(#mask-5)"></path>
                                        <mask id="mask-9" fill="white">
                                            <use xlink:href="#path-8"></use>
                                        </mask>
                                        <g id="Depth" fill-opacity="1" fill="black">
                                            <use filter="url(#filter-10)" xlink:href="#path-8"></use>
                                        </g>
                                    </g>
                                    <path d="M0,0.995485024 C0,0.445693827 0.443261772,0 0.996782452,0 L42,0 L42,32.6666667 L0,32.6666667 L0,0.995485024 Z" id="Rectangle-511" fill="url(#linearGradient-11)"></path>
                                    <path d="M7,9.33333333 C5.71133558,9.33333333 4.66666667,8.28866442 4.66666667,7 C4.66666667,5.71133558 5.71133558,4.66666667 7,4.66666667 C8.28866442,4.66666667 9.33333333,5.71133558 9.33333333,7 C9.33333333,8.28866442 8.28866442,9.33333333 7,9.33333333 Z M16.3333333,9.33333333 C15.0446689,9.33333333 14,8.28866442 14,7 C14,5.71133558 15.0446689,4.66666667 16.3333333,4.66666667 C17.6219977,4.66666667 18.6666667,5.71133558 18.6666667,7 C18.6666667,8.28866442 17.6219977,9.33333333 16.3333333,9.33333333 Z M25.6666667,9.33333333 C24.3780023,9.33333333 23.3333333,8.28866442 23.3333333,7 C23.3333333,5.71133558 24.3780023,4.66666667 25.6666667,4.66666667 C26.9553311,4.66666667 28,5.71133558 28,7 C28,8.28866442 26.9553311,9.33333333 25.6666667,9.33333333 Z M35,9.33333333 C33.7113356,9.33333333 32.6666667,8.28866442 32.6666667,7 C32.6666667,5.71133558 33.7113356,4.66666667 35,4.66666667 C36.2886644,4.66666667 37.3333333,5.71133558 37.3333333,7 C37.3333333,8.28866442 36.2886644,9.33333333 35,9.33333333 Z M11.6666667,14 C10.3780023,14 9.33333333,12.9553311 9.33333333,11.6666667 C9.33333333,10.3780023 10.3780023,9.33333333 11.6666667,9.33333333 C12.9553311,9.33333333 14,10.3780023 14,11.6666667 C14,12.9553311 12.9553311,14 11.6666667,14 Z M21,14 C19.7113356,14 18.6666667,12.9553311 18.6666667,11.6666667 C18.6666667,10.3780023 19.7113356,9.33333333 21,9.33333333 C22.2886644,9.33333333 23.3333333,10.3780023 23.3333333,11.6666667 C23.3333333,12.9553311 22.2886644,14 21,14 Z M30.3333333,14 C29.0446689,14 28,12.9553311 28,11.6666667 C28,10.3780023 29.0446689,9.33333333 30.3333333,9.33333333 C31.6219977,9.33333333 32.6666667,10.3780023 32.6666667,11.6666667 C32.6666667,12.9553311 31.6219977,14 30.3333333,14 Z M35,18.6666667 C33.7113356,18.6666667 32.6666667,17.6219977 32.6666667,16.3333333 C32.6666667,15.0446689 33.7113356,14 35,14 C36.2886644,14 37.3333333,15.0446689 37.3333333,16.3333333 C37.3333333,17.6219977 36.2886644,18.6666667 35,18.6666667 Z M25.6666667,18.6666667 C24.3780023,18.6666667 23.3333333,17.6219977 23.3333333,16.3333333 C23.3333333,15.0446689 24.3780023,14 25.6666667,14 C26.9553311,14 28,15.0446689 28,16.3333333 C28,17.6219977 26.9553311,18.6666667 25.6666667,18.6666667 Z M16.3333333,18.6666667 C15.0446689,18.6666667 14,17.6219977 14,16.3333333 C14,15.0446689 15.0446689,14 16.3333333,14 C17.6219977,14 18.6666667,15.0446689 18.6666667,16.3333333 C18.6666667,17.6219977 17.6219977,18.6666667 16.3333333,18.6666667 Z M7,18.6666667 C5.71133558,18.6666667 4.66666667,17.6219977 4.66666667,16.3333333 C4.66666667,15.0446689 5.71133558,14 7,14 C8.28866442,14 9.33333333,15.0446689 9.33333333,16.3333333 C9.33333333,17.6219977 8.28866442,18.6666667 7,18.6666667 Z M11.6666667,23.3333333 C10.3780023,23.3333333 9.33333333,22.2886644 9.33333333,21 C9.33333333,19.7113356 10.3780023,18.6666667 11.6666667,18.6666667 C12.9553311,18.6666667 14,19.7113356 14,21 C14,22.2886644 12.9553311,23.3333333 11.6666667,23.3333333 Z M21,23.3333333 C19.7113356,23.3333333 18.6666667,22.2886644 18.6666667,21 C18.6666667,19.7113356 19.7113356,18.6666667 21,18.6666667 C22.2886644,18.6666667 23.3333333,19.7113356 23.3333333,21 C23.3333333,22.2886644 22.2886644,23.3333333 21,23.3333333 Z M30.3333333,23.3333333 C29.0446689,23.3333333 28,22.2886644 28,21 C28,19.7113356 29.0446689,18.6666667 30.3333333,18.6666667 C31.6219977,18.6666667 32.6666667,19.7113356 32.6666667,21 C32.6666667,22.2886644 31.6219977,23.3333333 30.3333333,23.3333333 Z M35,28 C33.7113356,28 32.6666667,26.9553311 32.6666667,25.6666667 C32.6666667,24.3780023 33.7113356,23.3333333 35,23.3333333 C36.2886644,23.3333333 37.3333333,24.3780023 37.3333333,25.6666667 C37.3333333,26.9553311 36.2886644,28 35,28 Z M25.6666667,28 C24.3780023,28 23.3333333,26.9553311 23.3333333,25.6666667 C23.3333333,24.3780023 24.3780023,23.3333333 25.6666667,23.3333333 C26.9553311,23.3333333 28,24.3780023 28,25.6666667 C28,26.9553311 26.9553311,28 25.6666667,28 Z M16.3333333,28 C15.0446689,28 14,26.9553311 14,25.6666667 C14,24.3780023 15.0446689,23.3333333 16.3333333,23.3333333 C17.6219977,23.3333333 18.6666667,24.3780023 18.6666667,25.6666667 C18.6666667,26.9553311 17.6219977,28 16.3333333,28 Z M7,28 C5.71133558,28 4.66666667,26.9553311 4.66666667,25.6666667 C4.66666667,24.3780023 5.71133558,23.3333333 7,23.3333333 C8.28866442,23.3333333 9.33333333,24.3780023 9.33333333,25.6666667 C9.33333333,26.9553311 8.28866442,28 7,28 Z" id="Oval-43" fill="url(#linearGradient-3)"></path>
                                </g>
                            </g>
                        </g>
                    </g>
                </g>
            </g>
        </g>
    </g>
</svg>