<?xml version="1.0" standalone="no"?>
<!DOCTYPE svg PUBLIC "-//W3C//DTD SVG 20010904//EN"
 "http://www.w3.org/TR/2001/REC-SVG-20010904/DTD/svg10.dtd">
<svg version="1.0" xmlns="http://www.w3.org/2000/svg"
 width="260.000000pt" height="260.000000pt" viewBox="0 0 260.000000 260.000000"
 preserveAspectRatio="xMidYMid meet">
<metadata>
Created by potrace 1.14, written by Peter Selinger 2001-2017
</metadata>
<g transform="translate(0.000000,260.000000) scale(0.100000,-0.100000)"
fill="#000000" stroke="none">
<path d="M1420 2453 c-66 -7 -264 -55 -335 -80 -138 -50 -343 -162 -427 -233
-99 -83 -179 -160 -239 -230 -198 -229 -335 -538 -364 -820 -10 -101 -6 -250
8 -315 4 -16 9 -42 11 -56 7 -44 57 -161 94 -218 49 -79 139 -163 228 -215 81
-47 220 -103 283 -112 20 -3 54 -10 76 -15 66 -17 399 -20 495 -4 124 19 262
53 290 70 5 3 19 8 29 10 11 2 62 24 113 48 275 132 505 368 642 657 36 76
106 253 106 267 0 2 -207 3 -460 3 l-460 0 -22 -47 c-71 -156 -203 -253 -345
-257 -52 -1 -65 3 -87 23 -54 51 -52 179 7 351 88 256 243 417 412 428 129 8
171 -54 141 -208 l-7 -35 462 0 463 0 8 35 c12 53 7 245 -7 315 -57 271 -213
461 -462 564 -60 24 -139 47 -238 67 -35 7 -363 12 -415 7z"/>
</g>
</svg>
