<?xml version="1.0" encoding="UTF-8"?>
<svg width="34px" height="34px" viewBox="0 0 34 34" version="1.1" xmlns="http://www.w3.org/2000/svg" xmlns:xlink="http://www.w3.org/1999/xlink">
    <!-- Generator: Sketch 50.2 (55047) - http://www.bohemiancoding.com/sketch -->
    <title>youtube</title>
    <desc>Created with Sketch.</desc>
    <defs></defs>
    <g id="2.0" stroke="none" stroke-width="1" fill="none" fill-rule="evenodd">
        <g id="HomepageV2_Comp_SignedOut_desktop" transform="translate(-1081.000000, -2941.000000)" fill="#FC0D1C">
            <g id="Connect" transform="translate(50.000000, 2623.000000)">
                <path d="M1048,318 C1057.41309,318 1065,325.586914 1065,335 C1065,344.413086 1057.41309,352 1048,352 C1038.58691,352 1031,344.413086 1031,335 C1031,325.586914 1038.58691,318 1048,318 Z M1048,342.786133 C1058.625,342.786133 1058.625,342.786133 1058.625,335 C1058.625,327.213867 1058.625,327.213867 1048,327.213867 C1037.375,327.213867 1037.375,327.213867 1037.375,335 C1037.375,342.786133 1037.375,342.786133 1048,342.786133 Z M1045.16113,339.25 L1045.16113,330.75 L1052.25,335 L1045.16113,339.25 Z" id="youtube"></path>
            </g>
        </g>
    </g>
</svg>