<?xml version="1.0" encoding="UTF-8"?>
<svg width="169px" height="32px" viewBox="0 0 169 32" version="1.1" xmlns="http://www.w3.org/2000/svg" xmlns:xlink="http://www.w3.org/1999/xlink">
    <!-- Generator: Sketch 52 (66869) - http://www.bohemiancoding.com/sketch -->
    <title>DriveAutoAuctions-Logo-OnDarkBkgrd@2x</title>
    <desc>Created with Sketch.</desc>
    <g id="DRIVE-+-CT" stroke="none" stroke-width="1" fill="none" fill-rule="evenodd">
        <g id="HomepageV2_DRIVE_SignedOut_desktop" transform="translate(-15.000000, -29.000000)">
            <g id="Header">
                <g id="DriveAutoAuctions-Logo-OnDarkBkgrd" transform="translate(15.000000, 29.000000)">
                    <path d="M126.06492,15.3810575 L124.414161,18.4622529 L126.440092,18.4622529 L126.06492,15.3810575 Z M126.029241,13.9248736 L127.210667,13.9248736 L128.345747,21.1848276 L126.763402,21.1848276 L126.587954,19.6863448 L123.759816,19.6863448 L122.985195,21.1848276 L121.402483,21.1848276 L125.210851,14.4103908 C125.40469,14.0867126 125.677241,13.9248736 126.029241,13.9248736 Z" id="Fill-20" fill="#FFFFFE"></path>
                    <path d="M131.834483,13.903908 L130.894713,18.4412874 C130.778483,19.004046 130.797609,19.4193103 130.954299,19.6863448 C131.126805,19.9397701 131.45931,20.0662989 131.951448,20.0662989 C132.429977,20.0662989 132.81508,19.9397701 133.106759,19.6863448 C133.384092,19.4332874 133.58308,19.0183908 133.702253,18.4412874 L134.641287,13.903908 L136.13977,13.903908 L135.165425,18.6101149 C134.978943,19.5105287 134.584276,20.1928276 133.981793,20.6570115 C133.421241,21.1215632 132.656184,21.3536552 131.685149,21.3536552 C130.714483,21.3536552 130.045057,21.1215632 129.676506,20.6570115 C129.266023,20.1928276 129.154207,19.5105287 129.341057,18.6101149 L130.149149,14.7057471 C130.19292,14.4946207 130.305103,14.3085057 130.486069,14.1466667 C130.667034,13.9851954 130.863816,13.903908 131.074207,13.903908 L131.834483,13.903908" id="Fill-21" fill="#FFFFFE"></path>
                    <path d="M137.530483,21.1848276 L138.766713,15.2122299 L136.614621,15.2122299 L136.723862,14.6847816 C136.767632,14.4736552 136.878345,14.2941609 137.056368,14.1466667 C137.234391,13.9988046 137.430069,13.9248736 137.64046,13.9248736 L142.663356,13.9248736 L142.397057,15.2122299 L140.265563,15.2122299 L139.028966,21.1848276 L137.530483,21.1848276" id="Fill-22" fill="#FFFFFE"></path>
                    <path d="M143.838897,17.5548506 C143.670069,18.3710345 143.717149,18.990069 143.982345,19.411954 C144.243126,19.8481839 144.697747,20.0662989 145.345103,20.0662989 C145.978115,20.0662989 146.522483,19.8481839 146.978943,19.411954 C147.437977,18.9617471 147.748782,18.3430805 147.912092,17.5548506 C148.075034,16.7669885 148.022069,16.1409655 147.751724,15.6764138 C147.476598,15.2409195 147.022713,15.0224368 146.388966,15.0224368 C145.741609,15.0224368 145.197241,15.2409195 144.755494,15.6764138 C144.313011,16.1126437 144.007724,16.7390345 143.838897,17.5548506 Z M142.340046,17.5548506 C142.585011,16.3730575 143.088184,15.4373333 143.850299,14.748046 C144.653977,14.0587586 145.590805,13.7137471 146.659678,13.7137471 C147.71531,13.7137471 148.509057,14.0587586 149.042023,14.748046 C149.529011,15.452046 149.651862,16.3870345 149.410575,17.5548506 C149.168552,18.7230345 148.659862,19.6514023 147.884138,20.3406897 C147.096644,21.016 146.162023,21.3536552 145.078805,21.3536552 C143.980874,21.3536552 143.185655,21.016 142.692782,20.3406897 C142.213149,19.6653793 142.095816,18.7366437 142.340046,17.5548506 Z" id="Fill-23" fill="#FFFFFE"></path>
                    <path d="M124.493241,25.1061149 L122.842483,28.1869425 L124.868046,28.1869425 L124.493241,25.1061149 Z M124.457195,23.649931 L125.638989,23.649931 L126.774069,30.9098851 L125.191356,30.9098851 L125.016276,29.4114023 L122.18777,29.4114023 L121.414253,30.9098851 L119.830805,30.9098851 L123.639172,24.1350805 C123.833011,23.8117701 124.105195,23.649931 124.457195,23.649931 Z" id="Fill-24" fill="#FFFFFE"></path>
                    <path d="M129.722483,23.6285977 L128.783448,28.1663448 C128.666483,28.7291034 128.686345,29.1443678 128.842299,29.4114023 C129.014805,29.6644598 129.34731,29.7913563 129.839448,29.7913563 C130.317977,29.7913563 130.70308,29.6644598 130.994759,29.4114023 C131.272092,29.157977 131.47108,28.7434483 131.590253,28.1663448 L132.529655,23.6285977 L134.02777,23.6285977 L133.053425,28.3351724 C132.866575,29.2355862 132.472276,29.9178851 131.870161,30.382069 C131.309241,30.8466207 130.544184,31.0787126 129.572782,31.0787126 C128.602483,31.0787126 127.93269,30.8466207 127.564874,30.382069 C127.154023,29.9178851 127.042207,29.2355862 127.22869,28.3351724 L128.037149,24.4308046 C128.08092,24.2196782 128.192736,24.0331954 128.374805,23.8713563 C128.55577,23.7098851 128.751816,23.6285977 128.962943,23.6285977 L129.722483,23.6285977" id="Fill-25" fill="#FFFFFE"></path>
                    <path d="M139.958069,28.3984368 C139.712368,29.2425747 139.258851,29.903908 138.597885,30.382069 C137.924046,30.8466207 137.11669,31.0787126 136.174345,31.0787126 C135.076414,31.0787126 134.307678,30.748046 133.868138,30.0867126 C133.421977,29.4537011 133.32708,28.517977 133.583816,27.279908 C133.846069,26.0135172 134.337839,25.0638161 135.059862,24.4308046 C135.802115,23.7694713 136.742621,23.4388046 137.882483,23.4388046 C138.810851,23.4388046 139.501241,23.6708966 139.954391,24.1350805 C140.381057,24.586023 140.545471,25.2190345 140.447264,26.0344828 L139.539862,26.0344828 C139.202207,26.0344828 138.993287,25.8869885 138.914207,25.5912644 C138.853149,25.4088276 138.766713,25.2466207 138.655632,25.1061149 C138.417655,24.8949885 138.067126,24.7894253 137.602943,24.7894253 C136.955954,24.7894253 136.411954,25.0005517 135.973149,25.4224368 C135.548322,25.8446897 135.251126,26.464092 135.082299,27.279908 C134.919356,28.0681379 134.963126,28.6728276 135.212874,29.0947126 C135.446437,29.5309425 135.885977,29.7490575 136.533333,29.7490575 C136.983908,29.7490575 137.380414,29.6365057 137.722483,29.4114023 C138.033287,29.2002759 138.292598,28.8626207 138.501885,28.3984368 L139.958069,28.3984368" id="Fill-26" fill="#FFFFFE"></path>
                    <path d="M141.701517,30.9098851 L142.937747,24.9372874 L140.78492,24.9372874 L140.894161,24.4094713 C140.937931,24.1983448 141.049379,24.0188506 141.227402,23.8713563 C141.405425,23.7234943 141.600368,23.649931 141.810759,23.649931 L146.833655,23.649931 L146.567724,24.9372874 L144.436598,24.9372874 L143.2,30.9098851 L141.701517,30.9098851" id="Fill-27" fill="#FFFFFE"></path>
                    <path d="M146.178575,30.9098851 L147.524046,24.4094713 C147.56708,24.1983448 147.678529,24.0188506 147.856552,23.8713563 C148.034943,23.7234943 148.229517,23.649931 148.440644,23.649931 L149.179218,23.649931 L147.677057,30.9098851 L146.178575,30.9098851" id="Fill-28" fill="#FFFFFE"></path>
                    <path d="M150.586483,27.279908 C150.417655,28.0957241 150.465103,28.7147586 150.730299,29.1370115 C150.991816,29.5732414 151.445701,29.7913563 152.093057,29.7913563 C152.726069,29.7913563 153.270437,29.5732414 153.726529,29.1370115 C154.185563,28.6868046 154.496736,28.0681379 154.659678,27.279908 C154.823724,26.492046 154.769655,25.8656552 154.500414,25.4014713 C154.224552,24.9656092 153.770299,24.7471264 153.13692,24.7471264 C152.489563,24.7471264 151.945195,24.9656092 151.50308,25.4014713 C151.061333,25.8377011 150.756046,26.464092 150.586483,27.279908 Z M149.088,27.279908 C149.332966,26.0977471 149.836506,25.1623908 150.597885,24.4727356 C151.401931,23.7838161 152.338759,23.4388046 153.407632,23.4388046 C154.462897,23.4388046 155.256644,23.7838161 155.789977,24.4727356 C156.276966,25.1767356 156.399816,26.112092 156.158529,27.279908 C155.916138,28.4477241 155.407816,29.3764598 154.631724,30.0657471 C153.845333,30.7410575 152.909977,31.0787126 151.826391,31.0787126 C150.728828,31.0787126 149.933609,30.7410575 149.440736,30.0657471 C148.960736,29.390069 148.84377,28.4617011 149.088,27.279908 Z" id="Fill-29" fill="#FFFFFE"></path>
                    <path d="M155.808,30.9098851 L157.153471,24.4094713 C157.196506,24.1983448 157.307954,24.0188506 157.485977,23.8713563 C157.664,23.7234943 157.861149,23.6429425 158.074483,23.6285977 L158.87669,23.6285977 L160.795586,28.6305287 L161.830989,23.6285977 L163.308506,23.6285977 L161.801195,30.9098851 L160.260414,30.9098851 L158.320184,25.907954 L157.284782,30.9098851 L155.808,30.9098851" id="Fill-30" fill="#FFFFFE"></path>
                    <path d="M162.666299,28.6514943 L164.144184,28.6514943 C164.112552,29.0737471 164.212966,29.3691034 164.445793,29.537931 C164.685609,29.7350805 165.05269,29.8332874 165.545563,29.8332874 C165.981057,29.8332874 166.327908,29.7564138 166.585011,29.6011954 C166.842483,29.4463448 167.001747,29.2212414 167.062805,28.9258851 C167.155494,28.4756782 166.598621,28.1104368 165.390345,27.8286897 L165.35246,27.8073563 L165.192828,27.7650575 C164.506851,27.6105747 164.062161,27.4487356 163.857287,27.279908 C163.608276,27.1250575 163.457839,26.8995862 163.40708,26.6045977 C163.318437,26.3511724 163.315126,26.0274943 163.396782,25.6335632 C163.539126,24.9446437 163.890391,24.4024828 164.450943,24.0085517 C165.007448,23.6285977 165.74308,23.4388046 166.657839,23.4388046 C167.516322,23.4388046 168.136092,23.635954 168.519724,24.0295172 C168.907034,24.4657471 169.042759,25.0354943 168.925057,25.7391264 L168.08092,25.7391264 C167.756874,25.7391264 167.555678,25.5912644 167.476598,25.295908 C167.435034,25.1554023 167.361839,25.0354943 167.25554,24.9372874 C167.04,24.7544828 166.713747,24.6625287 166.278253,24.6625287 C165.856,24.6625287 165.537103,24.7401379 165.322299,24.8949885 C165.07954,25.0502069 164.928368,25.2675862 164.870253,25.5493333 C164.791908,25.9289195 165.141333,26.2106667 165.92,26.3934713 C166.144,26.464092 166.310621,26.5063908 166.420598,26.52 C166.657103,26.6045977 166.864552,26.6711724 167.044046,26.7204598 C167.223908,26.7701149 167.366621,26.8083678 167.473655,26.8366897 C167.653517,26.9209195 167.833011,27.0055172 168.012506,27.0897471 C168.258943,27.2585747 168.431448,27.4770575 168.531126,27.744092 C168.624552,28.0394483 168.635586,28.3634943 168.562023,28.7147586 C168.405701,29.4742989 168.029793,30.0657471 167.43577,30.4876322 C166.848,30.8815632 166.089563,31.0787126 165.16046,31.0787126 C164.20377,31.0787126 163.52846,30.8749425 163.134529,30.4666667 C162.698667,30.0583908 162.542713,29.4537011 162.666299,28.6514943" id="Fill-31" fill="#FFFFFE"></path>
                    <path d="M40.5208276,9.16708046 L45.5944828,9.17774713 C46.3429885,9.17921839 46.6056092,9.33627586 46.5942069,9.31898851 L46.6854253,9.42308046 C46.6975632,9.49885057 46.711908,9.69710345 46.6357701,10.0741149 C46.4562759,10.9616552 46.0950805,11.2128736 45.9751724,11.2963678 C45.6868046,11.4968276 45.0891034,11.7193563 43.8988506,11.7329655 L40.0029425,11.7248736 L40.5208276,9.16708046 Z M20.448,15.0786207 C19.944092,17.5676322 19.145931,19.3423448 18.1164138,20.2306207 C17.0508506,21.1770115 15.547954,21.6371494 13.5223908,21.6371494 C13.5131954,21.6371494 13.5036322,21.6371494 13.4944368,21.6371494 L11.6432184,21.6331034 L14.162023,9.18767816 L17.5841839,9.19503448 C19.0491954,9.19797701 19.9742529,9.52018391 20.3343448,10.1531954 L20.3652414,10.2054253 C20.6646437,10.6986667 21.0732874,11.9882299 20.448,15.0786207 Z M118.068598,9.32891954 L119.841471,0.565333333 C119.841471,0.565333333 90.4617931,0.503908046 90.4566437,0.503908046 C88.1581609,0.503908046 86.3823448,1.63383908 85.4495632,3.6891954 L80.0496552,14.3852874 L78.7501609,0.479264368 C78.7501609,0.479264368 64.0805517,0.448735632 64.0768736,0.448735632 C62.7946667,0.448735632 61.6143448,0.873563218 60.5693793,1.71108046 C59.5251494,2.54822989 58.8406437,3.64726437 58.5894253,4.88864368 L53.9667126,27.7285517 L52.7146667,26.9767356 C52.7142989,26.9458391 52.7146667,26.9116322 52.7157701,26.8744828 C52.7205517,26.6997701 52.7470345,26.4937931 52.7937471,26.262069 L52.9923678,25.2811034 L53.4822989,22.0652874 C53.8045057,19.8271264 53.7349885,18.248092 53.2627126,17.1023448 C53.1869425,16.909977 53.0909425,16.7043678 52.9684598,16.4925057 C53.4127816,16.1394023 53.815908,15.7469425 54.1767356,15.3158621 C55.3647816,13.9806897 56.1688276,12.306023 56.5675402,10.3371034 C57.2027586,7.2 56.6491954,4.69774713 54.9175172,2.89618391 C53.3094253,1.23291954 50.7887816,0.421149425 47.2121379,0.413425287 L36.9114483,0.391724138 C36.9077701,0.391724138 36.9044598,0.391724138 36.9007816,0.391724138 C35.6189425,0.391724138 34.4389885,0.816551724 33.3929195,1.6548046 C32.333977,2.50409195 31.6682299,3.57296552 31.4133333,4.832 L30.6236322,8.7337931 C30.3363678,7.08156322 29.76,5.64671264 28.8923218,4.44064368 L28.855908,4.39135632 C26.8182069,1.72211494 23.3371954,0.363402299 18.5096092,0.353471264 L10.7258851,0.337287356 C10.7214713,0.337287356 10.7170575,0.337287356 10.7130115,0.337287356 C9.43117241,0.337287356 8.25158621,0.762114943 7.20625287,1.6 C6.14731034,2.44928736 5.48156322,3.51816092 5.22703448,4.77682759 L0,30.6030345 L11.7517241,30.6276782 C11.7929195,30.6276782 11.8337471,30.6276782 11.8745747,30.6276782 C14.5967816,30.6276782 16.6506667,30.4353103 18.1311264,30.0457931 C19.734069,29.6408276 21.316046,28.9408736 22.8285057,27.9668966 C24.6517701,26.7987126 26.280092,25.1093333 27.6689655,22.9443678 L27.7053793,22.8858851 C27.7344368,22.8369655 27.7609195,22.7862069 27.7896092,22.7369195 L26.1862989,30.6582069 L36.1669885,30.6784368 L38.2142529,20.5645977 L42.344092,20.5734253 C42.8954483,20.5741609 43.2467126,20.6234483 43.456,20.6701609 C43.4876322,20.946023 43.4994023,21.4194023 43.401931,22.1767356 L42.9278161,24.8974713 C42.875954,25.1604598 42.8009195,25.6430345 42.7203678,26.7656092 C42.6346667,27.6042299 42.7174253,28.4226207 42.966069,29.1990805 L43.4453333,30.6938851 L63.3430805,30.7354483 L68.6723678,4.40312644 L72.8327356,30.7549425 L81.288092,30.7733333 L94.440092,7.16616092 L89.6592184,30.7906207 L113.714391,30.8406437 L115.564506,21.6993103 L101.410575,21.6698851 L101.882483,19.3382989 L107.821977,19.3508046 C107.825287,19.3508046 107.828966,19.3508046 107.832644,19.3508046 C109.115218,19.3508046 110.29554,18.925977 111.339034,18.0888276 C112.382897,17.2524138 113.06777,16.1537471 113.320092,14.9108966 L114.19292,10.5964138 L103.65646,10.5743448 L103.914667,9.29949425 L118.068598,9.32891954 Z" id="Fill-32" fill="#4D4E4C"></path>
                    <path d="M9.00818391,23.784092 L13.4896552,23.7932874 C16.0577471,23.7988046 18.0770575,23.1492414 19.5483218,21.8431264 C20.9452874,20.6374253 21.9501609,18.5250575 22.5611034,15.5063908 C23.1518161,12.5885057 23.0344828,10.4478161 22.2083678,9.08689655 C21.4344828,7.72634483 19.8948046,7.04331034 17.5885977,7.03889655 L12.3990805,7.02786207 L9.00818391,23.784092 Z M2.6354023,28.452046 L7.34050575,5.2045977 C7.49314943,4.4502069 7.89811494,3.80910345 8.5554023,3.28202299 C9.21268966,2.75494253 9.93471264,2.49158621 10.7211034,2.49342529 L18.5051954,2.5096092 C22.6457011,2.51843678 25.5253333,3.5817931 27.1422529,5.69967816 C28.7382069,7.91871264 29.0986667,11.1911724 28.2228966,15.5181609 C27.7542989,17.8328276 26.9642299,19.9209195 25.8537931,21.7802299 C24.6274943,23.6917701 23.2316322,25.147954 21.6654713,26.1513563 C20.3383908,27.0054253 18.9844598,27.6064368 17.6033103,27.9551264 C16.274023,28.3049195 14.3242299,28.4766897 11.7561379,28.4711724 L2.6354023,28.452046 Z" id="Fill-33" fill="#F6BC25"></path>
                    <path d="M37.3675402,13.8758621 L43.894069,13.8894713 C45.3094253,13.892046 46.4136092,13.6183908 47.2073563,13.0655632 C48,12.5142069 48.5149425,11.6597701 48.7492414,10.5015172 C48.9831724,9.34436782 48.8147126,8.4891954 48.246069,7.93305747 C47.7395862,7.32836782 46.8571954,7.02418391 45.5988966,7.0216092 L38.7582529,7.00726437 L37.3675402,13.8758621 Z M28.8217011,28.5072184 L33.5268046,5.25977011 C33.6794483,4.50501149 34.0847816,3.86390805 34.742069,3.33645977 C35.3993563,2.81011494 36.1213793,2.54675862 36.9074023,2.54822989 L47.2077241,2.56956322 C50.1432644,2.57581609 52.1967816,3.18418391 53.3675402,4.39503448 C54.5798621,5.65664368 54.9428966,7.49462069 54.454069,9.90933333 C54.1281839,11.5203678 53.4907586,12.8525977 52.5436322,13.9074943 C51.7105287,14.9138391 50.5666207,15.639908 49.1126437,16.0901149 C50.2363218,16.4961839 50.9531954,17.1016092 51.2621609,17.9074943 C51.5810575,18.6626207 51.6090115,19.9462989 51.3482299,21.7581609 L50.8792644,24.8533333 C50.8182069,25.1553103 50.7516322,25.4830345 50.6806437,25.8342989 C50.6089195,26.1870345 50.5688276,26.5136552 50.5603678,26.8156322 C50.5342529,27.721931 50.7317701,28.3012414 51.1525517,28.553931 L45.0195862,28.5410575 C44.8581149,28.0375172 44.808092,27.5089655 44.8684138,26.9546667 C44.9254253,26.1506207 44.9861149,25.595954 45.0475402,25.293977 L45.5337931,22.5015172 C45.7335172,20.9912644 45.6382529,19.9091494 45.2472644,19.2537011 C44.7816092,18.6994023 43.8157241,18.4202299 42.3485057,18.4169195 L36.4513103,18.4047816 L34.4044138,28.5186207 L28.8217011,28.5072184 Z" id="Fill-34" fill="#F6BC25"></path>
                    <path d="M55.9974253,28.5638621 L60.7025287,5.31641379 C60.8551724,4.56165517 61.2601379,3.92055172 61.9174253,3.39383908 C62.5747126,2.86675862 63.2967356,2.6034023 64.0831264,2.60487356 L66.8351264,2.61075862 L61.5797701,28.5752644 L55.9974253,28.5638621" id="Fill-35" fill="#F6BC25"></path>
                    <path d="M74.6754943,28.6028506 L70.5736092,2.61848276 L76.7852874,2.63135632 L78.5993563,22.0421149 L87.3964138,4.6171954 C87.9753563,3.30997701 88.9989885,2.65710345 90.4665747,2.66004598 L94.4772414,2.66850575 L80.0224368,28.6142529 L74.6754943,28.6028506" id="Fill-36" fill="#F6BC25"></path>
                    <path d="M92.2935172,28.6396322 L96.9989885,5.39218391 C97.1512644,4.63742529 97.5562299,3.99668966 98.2138851,3.4696092 C98.8711724,2.94252874 99.5931954,2.67917241 100.379586,2.68064368 L117.206437,2.71595402 L116.30492,7.16910345 L102.151356,7.13967816 L101.021057,12.7253333 L111.557885,12.7470345 L111.205885,14.4831264 C111.053609,15.2378851 110.648276,15.8793563 109.990989,16.406069 C109.333701,16.9331494 108.611678,17.1961379 107.82492,17.1946667 L100.11954,17.1784828 L98.7755402,23.8208736 L112.929103,23.8502989 L111.951448,28.6808276 L92.2935172,28.6396322" id="Fill-37" fill="#F6BC25"></path>
                </g>
            </g>
        </g>
    </g>
</svg>