<svg width="40" height="40" viewBox="0 0 40 40" fill="none" xmlns="http://www.w3.org/2000/svg">
<path d="M35 13.3334H5" stroke="#1254FF" stroke-width="2" stroke-linecap="round" stroke-linejoin="round"/>
<path d="M29.1667 21.6666V21.6666C33.3088 21.6666 36.6667 25.0245 36.6667 29.1666C36.6667 33.3088 33.3088 36.6666 29.1667 36.6666C25.0245 36.6666 21.6667 33.3088 21.6667 29.1666V29.1666C21.6667 25.0245 25.0245 21.6666 29.1667 21.6666C29.1667 21.6666 29.1667 21.6666 29.1667 21.6666" stroke="#1254FF" stroke-width="2" stroke-linecap="round" stroke-linejoin="round"/>
<path d="M24.455 35H10V35C7.23858 35 5 32.7614 5 30V30V10V10C5 7.23858 7.23858 5 10 5H30V5C32.7614 5 35 7.23858 35 10V24.455" stroke="#1254FF" stroke-width="2" stroke-linecap="round" stroke-linejoin="round"/>
<path d="M28.9883 26.6383V29.5683L31.2917 30.9733" stroke="#1254FF" stroke-width="2" stroke-linecap="round" stroke-linejoin="round"/>
<path d="M22.915 19.0833V19.0833C22.8699 19.0833 22.8333 19.1198 22.8333 19.1649C22.8333 19.21 22.8699 19.2466 22.915 19.2466C22.9601 19.2466 22.9967 19.21 22.9967 19.1649V19.1649C22.9967 19.1198 22.9601 19.0833 22.915 19.0833" stroke="#1254FF" stroke-width="2" stroke-linecap="round" stroke-linejoin="round"/>
<path d="M17.0817 19.0833V19.0833C17.0375 19.0833 17.0017 19.1191 17.0016 19.1633C17.0016 19.1638 17.0017 19.1644 17.0017 19.1649V19.1649C17.0017 19.21 17.0382 19.2466 17.0833 19.2466C17.1284 19.2466 17.165 19.21 17.165 19.1649C17.165 19.1198 17.1284 19.0833 17.0833 19.0833C17.0828 19.0833 17.0822 19.0833 17.0817 19.0833" stroke="#1254FF" stroke-width="2" stroke-linecap="round" stroke-linejoin="round"/>
<path d="M11.2483 19.0833V19.0833C11.2042 19.0823 11.1676 19.1173 11.1666 19.1615C11.1666 19.1632 11.1666 19.1649 11.1667 19.1666V19.1666C11.1667 19.2117 11.2032 19.2483 11.2483 19.2483C11.2934 19.2483 11.33 19.2117 11.33 19.1666C11.33 19.1215 11.2934 19.0849 11.2483 19.0849C11.2478 19.0849 11.2472 19.0849 11.2467 19.0849" stroke="#1254FF" stroke-width="2" stroke-linecap="round" stroke-linejoin="round"/>
<path d="M17.0817 24.0833V24.0833C17.0375 24.0833 17.0017 24.1191 17.0016 24.1633C17.0016 24.1638 17.0017 24.1644 17.0017 24.1649V24.1649C17.0017 24.21 17.0382 24.2466 17.0833 24.2466C17.1284 24.2466 17.165 24.21 17.165 24.1649C17.165 24.1198 17.1284 24.0833 17.0833 24.0833C17.0828 24.0833 17.0822 24.0833 17.0817 24.0833" stroke="#1254FF" stroke-width="2" stroke-linecap="round" stroke-linejoin="round"/>
<path d="M11.2483 24.0833V24.0833C11.2042 24.0823 11.1676 24.1173 11.1666 24.1615C11.1666 24.1632 11.1666 24.1649 11.1667 24.1666V24.1666C11.1667 24.2117 11.2032 24.2483 11.2483 24.2483C11.2934 24.2483 11.33 24.2117 11.33 24.1666C11.33 24.1215 11.2934 24.0849 11.2483 24.0849C11.2478 24.0849 11.2472 24.0849 11.2467 24.0849" stroke="#1254FF" stroke-width="2" stroke-linecap="round" stroke-linejoin="round"/>
<path d="M17.0817 29.0851V29.0851C17.0375 29.0851 17.0017 29.1209 17.0016 29.1651C17.0016 29.1656 17.0017 29.1662 17.0017 29.1668V29.1667C17.0017 29.2119 17.0382 29.2484 17.0833 29.2484C17.1284 29.2484 17.165 29.2119 17.165 29.1667C17.165 29.1216 17.1284 29.0851 17.0833 29.0851C17.0828 29.0851 17.0822 29.0851 17.0817 29.0851" stroke="#1254FF" stroke-width="2" stroke-linecap="round" stroke-linejoin="round"/>
<path d="M11.2483 29.085V29.085C11.2042 29.084 11.1676 29.1191 11.1667 29.1633C11.1666 29.1644 11.1666 29.1655 11.1667 29.1666V29.1666C11.1667 29.2117 11.2032 29.2483 11.2483 29.2483C11.2934 29.2483 11.33 29.2117 11.33 29.1666C11.33 29.1215 11.2934 29.085 11.2483 29.085C11.2478 29.085 11.2472 29.085 11.2467 29.085" stroke="#1254FF" stroke-width="2" stroke-linecap="round" stroke-linejoin="round"/>
</svg>
