<svg xmlns="http://www.w3.org/2000/svg" width="54.324" height="51.033" viewBox="0 0 54.324 51.033">
  <defs>
    <style>
      .cls-1, .cls-2 {
        fill: none;
        stroke-linecap: round;
        stroke-linejoin: round;
        stroke-width: 2.5px;
      }

      .cls-1 {
        stroke: #e5f3fe;
      }

      .cls-2 {
        stroke: #0174f1;
      }
    </style>
  </defs>
  <g id="Group_434" data-name="Group 434" transform="translate(-268.75 -952.735)">
    <g id="car-actions-search-1" transform="translate(271.252 952.485)">
      <circle id="Ellipse_3" data-name="Ellipse 3" class="cls-1" cx="11.504" cy="11.504" r="11.504" transform="translate(22.116 19.577)"/>
      <line id="Line_6" data-name="Line 6" class="cls-1" x1="8.248" y1="8.248" transform="translate(41.807 39.267)"/>
      <path id="Path_107" data-name="Path 107" class="cls-1" d="M2.951,13.24,6.783,4.7A4.932,4.932,0,0,1,11.4,1.5H30.867a4.928,4.928,0,0,1,4.621,3.2l3.837,8.546" transform="translate(2.624)"/>
      <path id="Path_108" data-name="Path 108" class="cls-1" d="M1.5,13.3v3.725a3.287,3.287,0,1,0,6.574,0V13.738" transform="translate(0.896 14.056)"/>
      <path id="Path_109" data-name="Path 109" class="cls-1" d="M4.572,9.75a.822.822,0,0,0-.822.822" transform="translate(3.576 9.827)"/>
      <path id="Path_110" data-name="Path 110" class="cls-1" d="M4.947,10.572a.822.822,0,0,0-.822-.822" transform="translate(4.023 9.827)"/>
      <path id="Path_111" data-name="Path 111" class="cls-1" d="M4.125,10.947a.822.822,0,0,0,.822-.822" transform="translate(4.023 10.274)"/>
      <path id="Path_112" data-name="Path 112" class="cls-1" d="M3.75,10.125a.822.822,0,0,0,.822.822" transform="translate(3.576 10.274)"/>
      <path id="Path_113" data-name="Path 113" class="cls-1" d="M45.887,10.037a6.574,6.574,0,0,0-5.7-3.287H7.322A6.574,6.574,0,0,0,.748,13.324v4.93a3.287,3.287,0,0,0,3.287,3.287H15.543" transform="translate(0 6.254)"/>
    </g>
    <g id="car-actions-search-1-2" data-name="car-actions-search-1" transform="translate(269.252 954.485)">
      <circle id="Ellipse_3-2" data-name="Ellipse 3" class="cls-2" cx="11.504" cy="11.504" r="11.504" transform="translate(22.116 19.577)"/>
      <line id="Line_6-2" data-name="Line 6" class="cls-2" x1="8.248" y1="8.248" transform="translate(41.807 39.267)"/>
      <path id="Path_107-2" data-name="Path 107" class="cls-2" d="M2.951,13.24,6.783,4.7A4.932,4.932,0,0,1,11.4,1.5H30.867a4.928,4.928,0,0,1,4.621,3.2l3.837,8.546" transform="translate(2.624)"/>
      <path id="Path_108-2" data-name="Path 108" class="cls-2" d="M1.5,13.3v3.725a3.287,3.287,0,1,0,6.574,0V13.738" transform="translate(0.896 14.056)"/>
      <path id="Path_109-2" data-name="Path 109" class="cls-2" d="M4.572,9.75a.822.822,0,0,0-.822.822" transform="translate(3.576 9.827)"/>
      <path id="Path_110-2" data-name="Path 110" class="cls-2" d="M4.947,10.572a.822.822,0,0,0-.822-.822" transform="translate(4.023 9.827)"/>
      <path id="Path_111-2" data-name="Path 111" class="cls-2" d="M4.125,10.947a.822.822,0,0,0,.822-.822" transform="translate(4.023 10.274)"/>
      <path id="Path_112-2" data-name="Path 112" class="cls-2" d="M3.75,10.125a.822.822,0,0,0,.822.822" transform="translate(3.576 10.274)"/>
      <path id="Path_113-2" data-name="Path 113" class="cls-2" d="M45.887,10.037a6.574,6.574,0,0,0-5.7-3.287H7.322A6.574,6.574,0,0,0,.748,13.324v4.93a3.287,3.287,0,0,0,3.287,3.287H15.543" transform="translate(0 6.254)"/>
    </g>
  </g>
</svg>
