<svg xmlns="http://www.w3.org/2000/svg" width="53.068" height="54.471" viewBox="0 0 53.068 54.471">
  <defs>
    <style>
      .cls-1, .cls-2 {
        fill: none;
        stroke-linecap: round;
        stroke-linejoin: round;
        stroke-width: 2.5px;
      }

      .cls-1 {
        stroke: #e5f3fe;
      }

      .cls-2 {
        stroke: #0174f1;
      }
    </style>
  </defs>
  <g id="Group_432" data-name="Group 432" transform="translate(-1077.75 -952.733)">
    <g id="study-book" transform="translate(1078.25 956.188)">
      <path id="Path_100" data-name="Path 100" class="cls-1" d="M16.773,38.4A45.563,45.563,0,0,0,3.791,36.116,3.218,3.218,0,0,1,.75,32.889V4.042A3.238,3.238,0,0,1,4.212.8c13.651.714,20.821,5.586,20.821,9.312,0-3.7,8.019-8.541,20.811-9.3a3.238,3.238,0,0,1,3.473,3.238v27.2" transform="translate(0)"/>
      <line id="Line_5" data-name="Line 5" class="cls-1" y2="8.39" transform="translate(25.034 10.116)"/>
      <path id="Path_101" data-name="Path 101" class="cls-1" d="M15.8,8.054A52.737,52.737,0,0,0,3.768,5.248" transform="translate(3.497 5.157)"/>
      <path id="Path_102" data-name="Path 102" class="cls-1" d="M19.414,9.4q1.12-.181,2.295-.335" transform="translate(21.623 9.581)"/>
      <path id="Path_103" data-name="Path 103" class="cls-1" d="M15.8,11.869A53.989,53.989,0,0,0,3.768,9.063" transform="translate(3.497 9.577)"/>
      <path id="Path_104" data-name="Path 104" class="cls-1" d="M15.859,15.912A54.5,54.5,0,0,0,3.717,13.106" transform="translate(3.437 14.261)"/>
      <path id="Path_105" data-name="Path 105" class="cls-1" d="M14.9,8.061A54.441,54.441,0,0,1,27.048,5.255" transform="translate(16.394 5.166)"/>
      <path id="Path_106" data-name="Path 106" class="cls-1" d="M38.854,38.023,39.07,35.6a6.476,6.476,0,0,0-5.045-6.907l-7.881-1.751V14.548a4.047,4.047,0,1,0-8.095,0v19.87l-3.188-2.392a3.309,3.309,0,0,0-4.632,4.632l1.023,1.364" transform="translate(10.217 11.243)"/>
    </g>
    <g id="study-book-2" data-name="study-book" transform="translate(1080.25 953.188)">
      <path id="Path_100-2" data-name="Path 100" class="cls-2" d="M16.773,38.4A45.563,45.563,0,0,0,3.791,36.116,3.218,3.218,0,0,1,.75,32.889V4.042A3.238,3.238,0,0,1,4.212.8c13.651.714,20.821,5.586,20.821,9.312,0-3.7,8.019-8.541,20.811-9.3a3.238,3.238,0,0,1,3.473,3.238v27.2" transform="translate(0)"/>
      <line id="Line_5-2" data-name="Line 5" class="cls-2" y2="8.39" transform="translate(25.034 10.116)"/>
      <path id="Path_101-2" data-name="Path 101" class="cls-2" d="M15.8,8.054A52.737,52.737,0,0,0,3.768,5.248" transform="translate(3.497 5.157)"/>
      <path id="Path_102-2" data-name="Path 102" class="cls-2" d="M19.414,9.4q1.12-.181,2.295-.335" transform="translate(21.623 9.581)"/>
      <path id="Path_103-2" data-name="Path 103" class="cls-2" d="M15.8,11.869A53.989,53.989,0,0,0,3.768,9.063" transform="translate(3.497 9.577)"/>
      <path id="Path_104-2" data-name="Path 104" class="cls-2" d="M15.859,15.912A54.5,54.5,0,0,0,3.717,13.106" transform="translate(3.437 14.261)"/>
      <path id="Path_105-2" data-name="Path 105" class="cls-2" d="M14.9,8.061A54.441,54.441,0,0,1,27.048,5.255" transform="translate(16.394 5.166)"/>
      <path id="Path_106-2" data-name="Path 106" class="cls-2" d="M38.854,38.023,39.07,35.6a6.476,6.476,0,0,0-5.045-6.907l-7.881-1.751V14.548a4.047,4.047,0,1,0-8.095,0v19.87l-3.188-2.392a3.309,3.309,0,0,0-4.632,4.632l1.023,1.364" transform="translate(10.217 11.243)"/>
    </g>
  </g>
</svg>
