<?xml version="1.0" encoding="UTF-8"?><svg width="9px" height="15px" viewBox="0 0 9 15" version="1.1" xmlns="http://www.w3.org/2000/svg" xmlns:xlink="http://www.w3.org/1999/xlink">        <title>Shape</title>        <defs/>    <g id="Lot-Details" stroke="none" stroke-width="1" fill="none" fill-rule="evenodd">        <g id="LotDetails_RecEngine_Comp-Full" transform="translate(-40.000000, -1215.000000)" fill="#FFFFFF" fill-rule="nonzero">            <g id="REC-ENGINE" transform="translate(14.000000, 1086.000000)">                <g id="4-Large" transform="translate(18.000000, 49.000000)">                    <g id="1">                        <g id="Image">                            <g id="Arrows" transform="translate(0.000000, 70.000000)">                                <g id="Left">                                    <path d="M16.1238532,24.7414679 C15.779206,25.0861774 15.2207836,25.0861774 14.8761364,24.7414679 L8.25848896,18.1240608 C8.09299979,17.9587221 8,17.734268 8,17.5002003 C8,17.2661326 8.09299979,17.0416785 8.25848896,16.8763398 L14.8761364,10.2589327 C15.2202703,9.91398212 15.7785568,9.91364644 16.1231043,10.2581829 C16.4676518,10.6027194 16.4679871,11.1616591 16.1238532,11.5066097 L10.13002,17.5002223 L16.1238532,23.493835 C16.2893478,23.659153 16.3823529,23.8835946 16.3823529,24.1176515 C16.3823529,24.3517084 16.2893478,24.57615 16.1238532,24.7414679 Z" id="Shape"/>                                </g>                            </g>                        </g>                    </g>                </g>            </g>        </g>    </g></svg>