<?xml version="1.0" encoding="UTF-8"?><svg width="9px" height="15px" viewBox="0 0 9 15" version="1.1" xmlns="http://www.w3.org/2000/svg" xmlns:xlink="http://www.w3.org/1999/xlink">        <title>Shape</title>        <defs/>    <g id="Lot-Details" stroke="none" stroke-width="1" fill="none" fill-rule="evenodd">        <g id="LotDetails_RecEngine_Comp-Full" transform="translate(-272.000000, -1215.000000)" fill="#FFFFFF" fill-rule="nonzero">            <g id="REC-ENGINE" transform="translate(14.000000, 1086.000000)">                <g id="4-Large" transform="translate(18.000000, 49.000000)">                    <g id="1">                        <g id="Image">                            <g id="Arrows" transform="translate(0.000000, 70.000000)">                                <g id="Right" transform="translate(243.500000, 17.500000) scale(-1, 1) translate(-243.500000, -17.500000) translate(231.000000, 0.000000)">                                    <path d="M15.1238532,24.7414679 C14.779206,25.0861774 14.2207836,25.0861774 13.8761364,24.7414679 L7.25848896,18.1240608 C7.09299979,17.9587221 7,17.734268 7,17.5002003 C7,17.2661326 7.09299979,17.0416785 7.25848896,16.8763398 L13.8761364,10.2589327 C14.2202703,9.91398212 14.7785568,9.91364644 15.1231043,10.2581829 C15.4676518,10.6027194 15.4679871,11.1616591 15.1238532,11.5066097 L9.13002002,17.5002223 L15.1238532,23.493835 C15.2893478,23.659153 15.3823529,23.8835946 15.3823529,24.1176515 C15.3823529,24.3517084 15.2893478,24.57615 15.1238532,24.7414679 Z" id="Shape"/>                                </g>                            </g>                        </g>                    </g>                </g>            </g>        </g>    </g></svg>