<svg xmlns="http://www.w3.org/2000/svg" width="668" height="361.328" viewBox="0 0 668 361.328">
  <defs>
    <style>
      .cls-1, .cls-7 {
        fill: #0c5db8;
      }

      .cls-1 {
        font-size: 300px;
        font-family: Helvetica;
      }

      .cls-2, .cls-3 {
        fill: none;
        stroke-linecap: round;
        stroke-linejoin: round;
      }

      .cls-2 {
        stroke: #0c5db8;
        stroke-width: 10px;
      }

      .cls-3 {
        stroke: #3a4352;
        stroke-width: 3px;
      }

      .cls-4 {
        fill: #ffc503;
      }

      .cls-5 {
        fill: #0174f1;
      }

      .cls-6 {
        fill: #3a4352;
      }
    </style>
  </defs>
  <g id="Component_11_1" data-name="Component 11 – 1" transform="translate(0 1.52)">
    <text id="_4_4" data-name="4    4" class="cls-1" transform="translate(334 266.93)"><tspan x="-333.545" y="0" xml:space="preserve">4    4</tspan></text>
    <g id="car-dashboard-warning" transform="translate(237.25 111.857)">
      <line id="Line_7" data-name="Line 7" class="cls-2" y2="51.118" transform="translate(96.595 29.559)"/>
      <path id="Path_114" data-name="Path 114" class="cls-2" d="M12,16a3.2,3.2,0,0,1,3.195,3.195" transform="translate(84.595 90.235)"/>
      <path id="Path_115" data-name="Path 115" class="cls-2" d="M11.625,19.195A3.2,3.2,0,0,1,14.82,16" transform="translate(81.775 90.235)"/>
      <path id="Path_116" data-name="Path 116" class="cls-2" d="M14.82,19.57a3.2,3.2,0,0,1-3.195-3.195" transform="translate(81.775 93.055)"/>
      <path id="Path_117" data-name="Path 117" class="cls-2" d="M15.195,16.375A3.2,3.2,0,0,1,12,19.57" transform="translate(84.595 93.055)"/>
      <circle id="Ellipse_4" data-name="Ellipse 4" class="cls-2" cx="70.287" cy="70.287" r="70.287" transform="translate(26.308 4)"/>
      <path id="Path_118" data-name="Path 118" class="cls-2" d="M19.648,144.574A95.837,95.837,0,0,0,50.335,74.287,95.837,95.837,0,0,0,19.648,4" transform="translate(142.105 0)"/>
      <path id="Path_119" data-name="Path 119" class="cls-2" d="M31.445,4a95.82,95.82,0,0,0,0,140.574" transform="translate(0 0)"/>
    </g>
    <g id="tools-crescent-double" transform="translate(159.92 356.946) rotate(-88)">
      <path id="Path_120" data-name="Path 120" class="cls-3" d="M4.4,19.4a.932.932,0,1,0,.66-.274.934.934,0,0,0-.66.274" transform="translate(5.024 27.395)"/>
      <path id="Path_121" data-name="Path 121" class="cls-3" d="M19.4,4.386a.934.934,0,1,1,0,1.32.934.934,0,0,1,0-1.32" transform="translate(27.388 5.012)"/>
      <path id="Path_122" data-name="Path 122" class="cls-3" d="M47.447.75a9.338,9.338,0,0,0-8.509,5.48l-9.52,2.117a5.607,5.607,0,0,0-4.344,4.778L21.835,39.1l-5.667,1.245A9.338,9.338,0,1,0,18.6,51.285l9.52-2.115a5.607,5.607,0,0,0,4.344-4.778L35.7,18.42l5.667-1.245A9.341,9.341,0,1,0,47.447.75Z" transform="translate(0 0)"/>
    </g>
    <g id="tools-wench-2" transform="translate(435.032 -0.766)">
      <path id="Path_123" data-name="Path 123" class="cls-3" d="M4.619,19.4a.941.941,0,1,0,1.33,0,.941.941,0,0,0-1.33,0" transform="translate(5.093 27.704)"/>
      <path id="Path_124" data-name="Path 124" class="cls-3" d="M44.248,21.425a5.645,5.645,0,0,1,0-11.29H56.326A15.054,15.054,0,1,0,29.4,23.432L13.806,39.018A9.406,9.406,0,1,0,19.13,44.34L34.721,28.749a15.054,15.054,0,0,0,21.6-7.324Z" transform="translate(0 0)"/>
    </g>
    <circle id="Ellipse_5" data-name="Ellipse 5" class="cls-4" cx="5" cy="5" r="5" transform="translate(254 30.93)"/>
    <circle id="Ellipse_6" data-name="Ellipse 6" class="cls-4" cx="5" cy="5" r="5" transform="translate(443 286.93)"/>
    <circle id="Ellipse_7" data-name="Ellipse 7" class="cls-5" cx="4" cy="4" r="4" transform="translate(354 313.93)"/>
    <circle id="Ellipse_8" data-name="Ellipse 8" class="cls-5" cx="5" cy="5" r="5" transform="translate(372 67.93)"/>
    <circle id="Ellipse_9" data-name="Ellipse 9" class="cls-6" cx="5" cy="5" r="5" transform="translate(190 128.93)"/>
    <circle id="Ellipse_10" data-name="Ellipse 10" class="cls-6" cx="4" cy="4" r="4" transform="translate(469 233.93)"/>
    <circle id="Ellipse_11" data-name="Ellipse 11" class="cls-7" cx="4" cy="4" r="4" transform="translate(240 295.93)"/>
    <circle id="Ellipse_12" data-name="Ellipse 12" class="cls-7" cx="4" cy="4" r="4" transform="translate(494 40.93)"/>
    <circle id="Ellipse_13" data-name="Ellipse 13" class="cls-6" cx="3" cy="3" r="3" transform="translate(473 100.93)"/>
    <circle id="Ellipse_14" data-name="Ellipse 14" class="cls-5" cx="3" cy="3" r="3" transform="translate(447 185.93)"/>
    <circle id="Ellipse_15" data-name="Ellipse 15" class="cls-6" cx="2" cy="2" r="2" transform="translate(218 229.93)"/>
    <circle id="Ellipse_16" data-name="Ellipse 16" class="cls-6" cx="3" cy="3" r="3" transform="translate(307 286.93)"/>
    <circle id="Ellipse_17" data-name="Ellipse 17" class="cls-5" cx="5" cy="5" r="5" transform="translate(173 191.93)"/>
    <circle id="Ellipse_18" data-name="Ellipse 18" class="cls-6" cx="2" cy="2" r="2" transform="translate(297 77.93)"/>
  </g>
</svg>
