<?xml version="1.0" encoding="UTF-8"?>
<svg width="100px" height="185px" viewBox="0 0 100 185" version="1.1" xmlns="http://www.w3.org/2000/svg" xmlns:xlink="http://www.w3.org/1999/xlink">
    <!-- Generator: Sketch 49.3 (51167) - http://www.bohemiancoding.com/sketch -->
    <title>footer_logos@1x</title>
    <desc>Created with Sketch.</desc>
    <defs></defs>
    <g id="footer_logos" stroke="none" stroke-width="1" fill="none" fill-rule="evenodd">
        <g id="CopartDirect-SolidLogo" transform="translate(1.000000, 125.000000)">
            <path d="M9.56295718,6.66721101 C9.37917349,7.69869438 8.58752524,10.7375501 4.38967601,10.7375501 C1.46406939,10.7375501 0.0505430743,8.84389362 0.0505430743,6.14434773 C0.0505430743,2.87920896 2.08594745,0.165419874 5.52040517,0.165419874 C7.76762025,0.165419874 9.77476788,1.14016017 9.8315111,4.16546183 L6.89166123,4.16546183 C6.91968825,3.21828902 6.46735064,2.68118253 5.50616193,2.68118253 C3.78204119,2.68118253 3.15993339,4.66006844 3.15993339,6.08760466 C3.15993339,6.92175078 3.35796032,8.22178739 4.78550014,8.22178739 C5.76093208,8.22178739 6.31205342,7.55764075 6.50985062,6.66721101 L9.56295718,6.66721101" id="Fill-1" fill="#FFFFFE"></path>
            <path d="M9.56295718,6.66721101 C9.37917349,7.69869438 8.58752524,10.7375501 4.38967601,10.7375501 C1.46406939,10.7375501 0.0505430743,8.84389362 0.0505430743,6.14434773 C0.0505430743,2.87920896 2.08594745,0.165419874 5.52040517,0.165419874 C7.76762025,0.165419874 9.77476788,1.14016017 9.8315111,4.16546183 L6.89166123,4.16546183 C6.91968825,3.21828902 6.46735064,2.68118253 5.50616193,2.68118253 C3.78204119,2.68118253 3.15993339,4.66006844 3.15993339,6.08760466 C3.15993339,6.92175078 3.35796032,8.22178739 4.78550014,8.22178739 C5.76093208,8.22178739 6.31205342,7.55764075 6.50985062,6.66721101 L9.56295718,6.66721101 L9.56295718,6.66721101 Z" id="Stroke-2"></path>
            <path d="M13.717133,8.64592275 C14.8196098,8.64592275 15.2154355,7.02057361 15.2154355,6.38421784 C15.2154355,5.50779283 14.9891509,5.01341102 14.2399996,5.01341102 C13.1235093,5.01341102 12.7276836,6.69550379 12.7276836,7.45890098 C12.7276836,8.05206727 12.9257113,8.64592275 13.717133,8.64592275 L13.717133,8.64592275 Z M14.4520378,2.97776153 C16.600234,2.97776153 18.0139865,3.96743541 18.0139865,6.1868503 C18.0139865,8.06626581 16.9678004,10.6815043 13.589635,10.6815043 C11.5687087,10.6815043 9.9291326,9.70607364 9.9291326,7.24659162 C9.9291326,4.90059588 11.4554523,2.97776153 14.4520378,2.97776153 L14.4520378,2.97776153 Z" id="Fill-4" fill="#FFFFFE"></path>
            <path d="M13.717133,8.64592275 C14.8196098,8.64592275 15.2154355,7.02057361 15.2154355,6.38421784 C15.2154355,5.50779283 14.9891509,5.01341102 14.2399996,5.01341102 C13.1235093,5.01341102 12.7276836,6.69550379 12.7276836,7.45890098 C12.7276836,8.05206727 12.9257113,8.64592275 13.717133,8.64592275 L13.717133,8.64592275 Z M14.4520378,2.97776153 C16.600234,2.97776153 18.0139865,3.96743541 18.0139865,6.1868503 C18.0139865,8.06626581 16.9678004,10.6815043 13.589635,10.6815043 C11.5687087,10.6815043 9.9291326,9.70607364 9.9291326,7.24659162 C9.9291326,4.90059588 11.4554523,2.97776153 14.4520378,2.97776153 L14.4520378,2.97776153 Z" id="Stroke-5"></path>
            <path d="M23.6099336,6.31392006 C23.6099336,5.59302315 23.4119072,5.01341102 22.5922339,5.01341102 C21.3484809,5.01341102 21.1226573,6.79428826 21.1226573,7.44488737 C21.1226573,7.71298383 21.2209813,8.64592275 22.1401272,8.64592275 C23.2563806,8.64592275 23.6099336,7.26110231 23.6099336,6.31392006 L23.6099336,6.31392006 Z M19.200311,3.16154454 L21.913883,3.16154454 L21.744572,3.99591944 L21.7723693,3.99591944 C22.2531944,3.31684119 22.8750738,2.97776153 23.7372509,2.97776153 C25.8009164,2.97776153 26.4085525,4.68832196 26.4085525,5.98881654 C26.4085525,8.16549665 25.3200913,10.6814862 22.8328035,10.6814862 C22.02714,10.6814862 21.2352603,10.5820136 20.6278539,9.60727442 L19.9632447,12.8721797 L17.1646726,12.8721797 L19.200311,3.16154454 L19.200311,3.16154454 Z" id="Fill-6" fill="#FFFFFE"></path>
            <path d="M23.6099336,6.31392006 C23.6099336,5.59302315 23.4119072,5.01341102 22.5922339,5.01341102 C21.3484809,5.01341102 21.1226573,6.79428826 21.1226573,7.44488737 C21.1226573,7.71298383 21.2209813,8.64592275 22.1401272,8.64592275 C23.2563806,8.64592275 23.6099336,7.26110231 23.6099336,6.31392006 L23.6099336,6.31392006 Z M19.200311,3.16154454 L21.913883,3.16154454 L21.744572,3.99591944 L21.7723693,3.99591944 C22.2531944,3.31684119 22.8750738,2.97776153 23.7372509,2.97776153 C25.8009164,2.97776153 26.4085525,4.68832196 26.4085525,5.98881654 C26.4085525,8.16549665 25.3200913,10.6814862 22.8328035,10.6814862 C22.02714,10.6814862 21.2352603,10.5820136 20.6278539,9.60727442 L19.9632447,12.8721797 L17.1646726,12.8721797 L19.200311,3.16154454 L19.200311,3.16154454 Z" id="Stroke-7"></path>
            <path d="M30.0966172,9.02744144 C31.0437826,9.02744144 31.4251298,8.33528003 31.5951279,7.24661328 C31.1430247,7.47243295 30.6194764,7.52917502 30.1108603,7.57167415 C29.6442843,7.61440299 29.2064242,7.85400616 29.2064242,8.3911032 C29.2064242,8.90063324 29.6442843,9.02744144 30.0966172,9.02744144 L30.0966172,9.02744144 Z M27.3828045,5.38073014 C27.8211289,3.43032827 29.33367,2.97776153 31.1285489,2.97776153 C32.4570764,2.97776153 34.6902798,3.14730176 34.6902798,4.92908231 C34.6902798,6.07336402 33.7998471,9.36676345 33.7998471,9.84712744 C33.7998471,10.1161405 33.8425768,10.3281806 33.9128742,10.4977209 L31.1708192,10.4977209 C31.1002922,10.2712078 31.0575624,10.0309109 31.0718057,9.79107349 L31.0437786,9.79107349 C30.5491704,10.3842346 29.6019944,10.6815043 28.7823184,10.6815043 C27.5245478,10.6815043 26.4076014,10.130154 26.4076014,8.73087271 C26.4076014,6.7942546 27.8493857,6.27116096 29.9555485,6.11586394 C30.7469677,6.0591208 32.0047384,6.17260708 32.0047384,5.26793305 C32.0047384,4.75839343 31.5526301,4.63158285 31.1285489,4.63158285 C30.5631839,4.63158285 30.1671297,4.82960952 30.0120621,5.38073014 L27.3828045,5.38073014 L27.3828045,5.38073014 Z" id="Fill-8" fill="#FFFFFE"></path>
            <path d="M30.0966172,9.02744144 C31.0437826,9.02744144 31.4251298,8.33528003 31.5951279,7.24661328 C31.1430247,7.47243295 30.6194764,7.52917502 30.1108603,7.57167415 C29.6442843,7.61440299 29.2064242,7.85400616 29.2064242,8.3911032 C29.2064242,8.90063324 29.6442843,9.02744144 30.0966172,9.02744144 L30.0966172,9.02744144 Z M27.3828045,5.38073014 C27.8211289,3.43032827 29.33367,2.97776153 31.1285489,2.97776153 C32.4570764,2.97776153 34.6902798,3.14730176 34.6902798,4.92908231 C34.6902798,6.07336402 33.7998471,9.36676345 33.7998471,9.84712744 C33.7998471,10.1161405 33.8425768,10.3281806 33.9128742,10.4977209 L31.1708192,10.4977209 C31.1002922,10.2712078 31.0575624,10.0309109 31.0718057,9.79107349 L31.0437786,9.79107349 C30.5491704,10.3842346 29.6019944,10.6815043 28.7823184,10.6815043 C27.5245478,10.6815043 26.4076014,10.130154 26.4076014,8.73087271 C26.4076014,6.7942546 27.8493857,6.27116096 29.9555485,6.11586394 C30.7469677,6.0591208 32.0047384,6.17260708 32.0047384,5.26793305 C32.0047384,4.75839343 31.5526301,4.63158285 31.1285489,4.63158285 C30.5631839,4.63158285 30.1671297,4.82960952 30.0120621,5.38073014 L27.3828045,5.38073014 L27.3828045,5.38073014 Z" id="Stroke-9"></path>
            <path d="M35.8200555,3.1615455 L38.5336276,3.1615455 L38.2935596,4.30674937 L38.3218164,4.30674937 C38.8166551,3.52911344 39.7353458,2.97776153 40.4562389,2.97776153 C40.9225911,2.97776153 41.1911456,3.00601831 41.4454568,3.09147786 L40.9225911,5.56452093 C40.5830499,5.43748026 40.201698,5.38073696 39.848373,5.38073696 C38.6611278,5.38073696 38.0672754,5.8893591 37.7424371,7.43061743 L37.1063144,10.4977422 L34.3077421,10.4977422 L35.8200555,3.1615455" id="Fill-10" fill="#FFFFFE"></path>
            <path d="M35.8200555,3.1615455 L38.5336276,3.1615455 L38.2935596,4.30674937 L38.3218164,4.30674937 C38.8166551,3.52911344 39.7353458,2.97776153 40.4562389,2.97776153 C40.9225911,2.97776153 41.1911456,3.00601831 41.4454568,3.09147786 L40.9225911,5.56452093 C40.5830499,5.43748026 40.201698,5.38073696 39.848373,5.38073696 C38.6611278,5.38073696 38.0672754,5.8893591 37.7424371,7.43061743 L37.1063144,10.4977422 L34.3077421,10.4977422 L35.8200555,3.1615455 L35.8200555,3.1615455 Z" id="Stroke-11"></path>
            <path d="M45.9676976,3.16155977 L47.4804629,3.16155977 L47.0844101,4.88636798 L45.6001312,4.88636798 L45.1057544,7.24660766 C45.0490114,7.48644514 44.9782548,7.74144475 44.9782548,7.98197142 C44.9782548,8.22180889 45.1057544,8.41960589 45.5438476,8.41960589 C45.996184,8.41960589 46.2362507,8.39111945 46.4625338,8.37687623 L46.0386838,10.3982651 C45.5438476,10.4834947 45.0349979,10.5537919 44.5259185,10.5820486 C43.9325285,10.5820486 43.2966387,10.5820486 42.7595323,10.2854679 C42.2787096,10.0166846 41.9961429,9.43776652 41.9961429,8.90065922 C41.9961429,8.50483549 42.0809129,8.23582239 42.15121,7.89674182 L42.8018025,4.88636798 L41.55782,4.88636798 L41.9538728,3.16155977 L43.1691391,3.16155977 L43.6639753,0.943063115 L46.4625338,0.943063115 L45.9676976,3.16155977" id="Fill-12" fill="#FFFFFE"></path>
            <path d="M45.9676976,3.16155977 L47.4804629,3.16155977 L47.0844101,4.88636798 L45.6001312,4.88636798 L45.1057544,7.24660766 C45.0490114,7.48644514 44.9782548,7.74144475 44.9782548,7.98197142 C44.9782548,8.22180889 45.1057544,8.41960589 45.5438476,8.41960589 C45.996184,8.41960589 46.2362507,8.39111945 46.4625338,8.37687623 L46.0386838,10.3982651 C45.5438476,10.4834947 45.0349979,10.5537919 44.5259185,10.5820486 C43.9325285,10.5820486 43.2966387,10.5820486 42.7595323,10.2854679 C42.2787096,10.0166846 41.9961429,9.43776652 41.9961429,8.90065922 C41.9961429,8.50483549 42.0809129,8.23582239 42.15121,7.89674182 L42.8018025,4.88636798 L41.55782,4.88636798 L41.9538728,3.16155977 L43.1691391,3.16155977 L43.6639753,0.943063115 L46.4625338,0.943063115 L45.9676976,3.16155977 L45.9676976,3.16155977 Z" id="Stroke-13"></path>
            <path d="M22.8365023,16.1531318 L23.523859,16.1531318 C24.4340554,16.1531318 24.9401539,15.4368352 24.9401539,14.5783361 C24.9401539,13.9925259 24.6899763,13.5948642 24.052701,13.5948642 L23.3816552,13.5948642 L22.8365023,16.1531318 L22.8365023,16.1531318 Z M22.6430583,12.8445984 L24.109426,12.8445984 C25.2410768,12.8445984 25.8324022,13.4299501 25.8324022,14.4246803 C25.8324022,15.8405054 25.0478737,16.9034654 23.4843302,16.9034654 L21.7850161,16.9034654 L22.6430583,12.8445984 L22.6430583,12.8445984 Z" id="Fill-15" fill="#FFFFFE"></path>
            <polyline id="Fill-16" fill="#FFFFFE" points="27.2838291 12.8445984 28.1823155 12.8445984 27.3238026 16.9034654 26.4248567 16.9034654 27.2838291 12.8445984"></polyline>
            <path d="M30.0293116,14.6804533 L30.8540366,14.6804533 C31.325669,14.6747099 31.7750178,14.4932187 31.7750178,14.0385715 C31.7750178,13.6006951 31.4681006,13.538207 31.1154675,13.538207 L30.2682292,13.538207 L30.0293116,14.6804533 L30.0293116,14.6804533 Z M29.5174882,12.8446532 L31.4564044,12.8446532 C32.1899304,12.8331667 32.6675378,13.1235461 32.6675378,13.9078464 C32.6675378,14.4589701 32.2806735,14.9193502 31.7355256,14.9990667 L31.7355256,15.0105533 C32.0707008,15.1125536 32.1557007,15.4084467 32.1557007,15.7266235 C32.1557007,15.9085702 32.127444,16.1814901 32.127444,16.4318965 C32.127444,16.6136134 32.1387007,16.7838437 32.1841872,16.9035334 L31.3144316,16.9035334 C31.2914587,16.8068168 31.2746884,16.7211273 31.2746884,16.6306134 C31.2746884,16.3579232 31.3199451,16.07926 31.3199451,15.80634 C31.3199451,15.4141899 31.08654,15.3177031 30.7341351,15.3177031 L29.8930958,15.3177031 L29.5576908,16.9035334 L28.6651921,16.9035334 L29.5174882,12.8446532 L29.5174882,12.8446532 Z" id="Fill-17" fill="#FFFFFE"></path>
            <polyline id="Fill-18" fill="#FFFFFE" points="34.1384931 12.8445984 37.2363872 12.8445984 37.0829283 13.5948961 34.8770714 13.5948961 34.6953559 14.4641939 36.7360376 14.4641939 36.5885517 15.1582078 34.5478699 15.1582078 34.3374383 16.1531678 36.577295 16.1531678 36.4178631 16.9034654 33.2857394 16.9034654 34.1384931 12.8445984"></polyline>
            <path d="M40.5539069,14.254257 C40.5539069,13.7539033 40.2527302,13.4984426 39.8263504,13.4984426 C38.911104,13.4984426 38.4959809,14.4247173 38.4959809,15.2037346 C38.4959809,15.7608319 38.7686711,16.2496991 39.4172003,16.2496991 C39.9115804,16.2496991 40.2922438,15.8685756 40.3719603,15.4426547 L41.2644634,15.4426547 C40.9008,16.5736196 40.28696,17 39.405484,17 C38.2685477,17 37.6037076,16.3464158 37.6037076,15.2037346 C37.6037076,13.8905931 38.4504943,12.7474525 39.8208368,12.7474525 C40.7585968,12.7474525 41.469383,13.265036 41.4464099,14.254257 L40.5539069,14.254257" id="Fill-19" fill="#FFFFFE"></path>
            <polyline id="Fill-20" fill="#FFFFFE" points="43.3549674 13.5948961 42.0817968 13.5948961 42.2407708 12.8445984 45.6288473 12.8445984 45.4698733 13.5948961 44.2532166 13.5948961 43.5598877 16.9034654 42.6614088 16.9034654 43.3549674 13.5948961"></polyline>
        </g>
        <g id="CT" transform="translate(1.000000, 1.000000)" fill="#FFFFFF">
            <path d="M9.56349201,4.85768748 L6.81705297,5.01535841 C6.77794862,3.57721558 6.16218938,2.85906953 4.96935735,2.85906953 C3.60309303,2.85906953 2.92005043,3.96652727 2.92005043,6.17923382 C2.92005043,7.45725797 3.10488566,8.32322426 3.47682478,8.77880431 C3.84942061,9.23438437 4.36726971,9.46089082 5.03640191,9.46089082 C6.1172343,9.46089082 6.78063518,8.81963995 7.02176874,7.53624269 L9.56349201,7.67827191 C9.3982985,8.89593812 8.90009113,9.82244145 8.06576542,10.4564685 C7.23143972,11.0905552 6.21227877,11.4085836 5.00308859,11.4085836 C3.52177986,11.4085836 2.31796279,10.9429738 1.39110006,10.0132466 C0.461789578,9.08160893 0,7.79821167 0,6.15612944 C0,4.62103182 0.448058278,3.36097773 1.34369722,2.38307165 C2.24238094,1.40259841 3.46589944,0.911555825 5.01944674,0.911555825 C7.71000536,0.911555825 9.22468712,2.22772906 9.56349201,4.85768748" id="Fill-1"></path>
            <path d="M12.9139254,2.91900505 L12.9139254,5.46557629 L14.5791033,5.46557629 C15.10274,5.46557629 15.4862586,5.43763595 15.7242862,5.37154629 C15.9623137,5.30271036 16.1724012,5.15799371 16.359683,4.92611274 C16.5445767,4.69482879 16.6368743,4.43100747 16.6368743,4.13345475 C16.6368743,3.85070803 16.5445767,3.59667777 16.359683,3.37291622 C16.1724012,3.14855765 15.9707912,3.03005 15.7522262,2.97936335 C15.5338403,2.92575133 15.1222025,2.91900505 14.520477,2.91900505 L12.9139254,2.91900505 L12.9139254,2.91900505 Z M12.9139078,7.28401091 L12.9139078,11.2860188 L10.3673542,11.2860188 L10.3673542,1.10022402 L15.25097,1.10022402 C16.1581294,1.10022402 16.8889315,1.1813579 17.4374659,1.37240163 C17.9863585,1.56338565 18.4427142,1.90702555 18.8037273,2.41848543 C19.1649194,2.93060202 19.3441423,3.49722576 19.3441423,4.12343128 C19.3441423,5.34802156 18.6971607,6.23959874 17.4010481,6.77171522 L19.4673058,11.2860188 L16.5724555,11.2860188 L14.850793,7.28401091 L12.9139078,7.28401091 L12.9139078,7.28401091 Z" id="Fill-2"></path>
            <path d="M22.8004167,7.28403048 L25.1773582,7.28403048 L23.9899621,3.71249004 L22.8004167,7.28403048 L22.8004167,7.28403048 Z M25.7931363,1.10022402 L29.2954562,11.2860188 L26.4734929,11.2860188 L25.7931363,9.10292628 L22.167533,9.10292628 L21.4619228,11.2860188 L19.1662865,11.2860188 L22.7497406,1.10022402 L25.7931363,1.10022402 L25.7931363,1.10022402 Z" id="Fill-3"></path>
            <path d="M37.3234017,3.30718693 L35.0920082,3.98425854 C34.7929049,3.18020242 34.1541614,2.77775646 33.1831804,2.77775646 C32.1412743,2.77775646 31.6236049,3.08342673 31.6236049,3.69440908 C31.6236049,3.9385871 31.7211567,4.14497424 31.9146484,4.31285409 C32.1077819,4.48342049 32.5471831,4.62855417 33.2305832,4.75344913 C34.3727276,4.96216462 35.2099778,5.17338756 35.7419159,5.38753586 C36.2711077,5.60108714 36.7186282,5.9446677 37.0829251,6.42078498 C37.4467445,6.89678286 37.6260273,7.42615363 37.6260273,8.01504653 C37.6260273,8.9340872 37.2370737,9.72799411 36.4584502,10.4002896 C35.6802445,11.0728239 34.5241897,11.4085836 32.9927931,11.4085836 C31.8448577,11.4085836 30.8673693,11.1695996 30.0613428,10.6962883 C29.2549581,10.2202307 28.7230201,9.51486073 28.4655286,8.57976042 L30.892802,8.08071787 C31.1672486,9.03086289 31.9262305,9.50441302 33.1747028,9.50441302 C33.7736854,9.50441302 34.2243103,9.39957766 34.5184583,9.18817562 C34.8148153,8.97677358 34.960546,8.72537172 34.960546,8.4324775 C34.960546,8.13224003 34.8260391,7.90304703 34.5604283,7.73707762 C34.2914145,7.57445148 33.7736854,7.41904918 33.0093304,7.27343789 C31.5816349,7.00705102 30.5651616,6.64024669 29.9576417,6.17386071 C29.3501816,5.7107583 29.047556,5.03094043 29.047556,4.13476533 C29.047556,3.23064996 29.4091067,2.46707127 30.134238,1.84570091 C30.8592499,1.22450965 31.8418129,0.911555825 33.0822256,0.911555825 C35.2828133,0.911555825 36.6939716,1.71077614 37.3234017,3.30718693" id="Fill-4"></path>
            <polyline id="Fill-5" points="46.5626409 1.64588284 46.5626409 11.8311056 44.0158914 11.8311056 44.0158914 7.64825265 40.5602452 7.64825265 40.5602452 11.8311056 38.0134958 11.8311056 38.0134958 1.64588284 40.5602452 1.64588284 40.5602452 5.64736321 44.0158914 5.64736321 44.0158914 1.64588284 46.5626409 1.64588284"></polyline>
            <polyline id="Fill-6" points="55.5620339 3.26093999 50.2314065 2.97186705 50.118093 5.05663103 54.3111681 5.28403269 54.2078845 7.19882751 50.0140333 6.97136615 49.8937348 9.18992039 55.2250787 9.47935154 55.116004 11.4899667 47.1207196 11.0566558 47.6723614 0.890147827 55.6671683 1.32363784 55.5620339 3.26093999"></polyline>
            <path d="M58.9887383,2.82095315 L58.7805612,9.21034177 L59.8631178,9.24580421 C60.8201234,9.27702788 61.5413104,8.97679115 62.0266788,8.3436612 C62.5132413,7.70951634 62.7699552,6.95638722 62.7986116,6.08081119 C62.8183129,5.46523336 62.7030902,4.88840153 62.4571224,4.35544999 C62.2081696,3.82273726 61.8893667,3.44518763 61.5054899,3.22142799 C61.117434,2.99713103 60.6475878,2.87510203 60.0971454,2.85677379 L58.9887383,2.82095315 L58.9887383,2.82095315 Z M56.4754705,0.866697081 L59.8948075,0.978099631 C61.2882379,1.02335319 62.3204748,1.23308371 62.9921154,1.60633598 C63.6637559,1.97720021 64.2577847,2.55230244 64.7759927,3.3280606 C65.2912157,4.10381877 65.5318122,5.06954634 65.4942004,6.22727316 C65.4464393,7.68273017 64.9336044,8.88618815 63.9562927,9.83018447 C62.978384,10.7768673 61.6583864,11.2228357 59.9968969,11.1685076 L56.143292,11.0424782 L56.4754705,0.866697081 L56.4754705,0.866697081 Z" id="Fill-7"></path>
            <path d="M73.0529591,1.23953943 L73.2953473,3.23875605 L70.5407185,3.57176977 L70.6075842,4.16603627 L70.4386288,4.18531978 C70.4022109,4.18531978 70.2487779,4.24603598 70.2225093,4.24466285 C69.8505687,4.22788679 69.7968373,4.35355798 69.3914639,4.30149847 C69.3490758,4.2841851 69.3060907,4.36454301 69.2607175,4.34776695 L68.6374335,4.74316851 C68.6798216,4.75881024 69.3401206,4.61600479 69.3837027,4.63367637 C69.6410163,4.73892971 69.6320611,4.57152734 69.9508673,4.59385561 C70.0350464,4.59904963 70.1174346,4.74800431 70.1299719,4.663527 C70.1466883,4.55427367 70.1466883,4.52018424 70.2392257,4.52424393 C70.2762407,4.56107961 70.4243005,4.57397509 70.4583303,4.57397509 L70.6672857,4.60382573 L71.5210177,11.6803374 L68.8834038,11.9999183 L67.9031046,3.89057458 L65.1347444,4.22531964 L64.8929532,2.2257448 L73.0529591,1.23953943" id="Fill-8"></path>
            <path d="M73.0912002,3.88037077 C73.2709019,3.52049274 73.4912006,3.18491305 73.7538874,2.87333318 C74.590903,1.88038504 75.7843368,1.38122442 77.3318008,1.38122442 C78.8941902,1.38122442 80.0750868,1.91375794 80.8703113,2.97548171 C81.6661329,4.03702637 82.0631481,5.25158487 82.0631481,6.6188587 C82.0631481,7.41067395 81.9449391,8.1355046 81.709118,8.79490288 C81.6977747,8.82696235 81.5138939,8.73066453 81.5079238,8.68093354 L81.2989684,8.62123247 C81.2189683,8.55902396 80.8882218,8.56851643 80.8362814,8.52421824 C80.6374753,8.35096574 80.5294155,8.38141329 80.2918034,8.24810081 C80.0195643,8.24810081 80.0106091,8.34410012 79.9706091,8.21078764 C79.9580717,8.16816108 79.9144896,8.07502741 79.8888179,8.00929654 C79.7795641,7.72332843 79.2601607,7.64500063 79.2649368,7.60631434 C79.2995637,7.31055526 79.3168772,6.98643817 79.3168772,6.63390337 C79.3168772,4.43135192 78.6476229,3.32932993 77.3150844,3.32932993 C76.1932924,3.32932993 75.5276202,4.05660832 75.3180678,5.50967258 C75.3138887,5.53910521 75.2553812,5.46465798 75.209411,5.41976278 C75.0822467,5.29510695 75.2231423,5.33361414 75.1276199,5.18095851 L75.1425453,5.00185531 C75.0750825,4.88818448 74.9431421,4.78502104 74.9258287,4.70334998 C74.9288137,4.5478287 74.7897091,4.45373982 74.6631419,4.54293321 L74.6625448,4.54197799 L74.6947837,4.49439624 L74.7097091,4.38991938 C74.6171717,4.31529304 74.3282162,4.44209811 74.1126936,4.36753148 C73.9700069,4.37123294 73.8750815,4.37797916 73.8750815,4.36544194 L73.8750815,4.36406881 L73.9300069,4.40842671 C73.9186636,4.36585985 73.8529919,4.27021874 73.8291113,4.23320408 C73.8040367,4.19732374 73.7813501,4.16604038 73.7467232,4.13618984 C73.5897081,3.9995341 73.0732898,3.9154153 73.0912002,3.88037077 L73.0912002,3.88037077 Z M77.2398549,11.8793145 C75.7306069,11.8793145 74.5628502,11.3624204 73.7371817,10.3339457 C72.9109161,9.3045755 72.4995744,8.06028053 72.4995744,6.59580708 C72.4995744,5.72572 72.6422605,4.9402894 72.9288265,4.23897796 C72.9401698,4.21199296 73.373601,4.24817197 73.373601,4.24817197 C73.373601,4.24817197 73.6518088,4.32309713 73.6709133,4.35235077 C73.6906147,4.38130592 73.7234504,4.40405212 73.7324056,4.43778337 L73.7324056,4.4391565 C73.752704,4.515813 73.9556883,4.68100656 74.133001,4.67718567 C74.3371794,4.67175285 74.4064328,4.65002157 74.4643431,4.73927505 L74.5718053,4.74942427 C74.6159843,4.81963303 74.7162824,4.77127496 74.7371778,4.86255828 C74.7986702,5.13975152 74.7138944,5.14458733 74.8589684,5.17210964 C74.8947892,5.29604958 75.0452364,5.63867548 75.0452364,5.63867548 C75.0452364,5.63867548 75.2822504,5.80966006 75.2786683,5.8475107 C75.2571759,6.08942046 75.2458326,6.34870331 75.2458326,6.62607565 C75.2458326,8.82857686 75.9347852,9.93078268 77.3150785,9.93078268 C78.3532835,9.93078268 78.989102,9.26278458 79.2189518,7.9279824 C79.4082048,8.01777319 79.6404428,7.9412361 79.7270096,8.16863843 C79.7502931,8.22899647 79.8195466,8.24499643 79.8308898,8.28678735 C79.886412,8.47239876 79.8947702,8.50165241 80.2296943,8.50165241 C80.5699915,8.74147263 80.7759608,8.64648782 80.9580497,8.80445752 C81.0786462,8.99102416 81.3884958,8.83299475 81.6255098,9.01245693 C81.4290927,9.49717197 81.1640191,9.94576771 80.8338711,10.3559755 C80.0141727,11.3692861 78.8159683,11.8793145 77.2398549,11.8793145 L77.2398549,11.8793145 Z" id="Fill-9"></path>
            <path d="M89.5586439,0.00923322053 L86.4446229,6.12420911 L86.4882049,6.77799918 C86.4882049,6.77799918 86.2058176,6.83973043 86.1723849,6.86014831 L85.9932809,6.96462576 L85.4708944,7.06910322 C85.3676111,7.09644646 85.183134,7.24892384 85.0302986,7.15119265 C84.9323884,7.15119265 84.6285087,7.19101348 84.5007479,7.07656589 L84.0458238,7.19095378 L84.2625396,7.22641641 L84.4571659,7.22104329 C84.4876136,7.37835649 84.6792548,7.3364461 84.8476126,7.34975951 C85.0165673,7.36229681 85.22791,7.41375942 85.275074,7.39871466 C85.3699991,7.36850575 86.1723849,7.33775953 86.1723849,7.33775953 L86.5174585,7.21214778 L86.7335773,10.4049191 L84.1162714,10.5815159 L83.8267199,6.30188049 L79.9186714,0.660694929 L82.9544836,0.455441506 L85.3497007,4.16737623 L87.2093969,0.167680744 L89.5586439,0.00923322053" id="Fill-10"></path>
            <path d="M96.3663873,4.44360107 L94.0374381,4.54879455 C93.9454981,3.69482891 93.4272904,3.14784672 92.4858004,2.90748978 C91.4768478,2.65041651 90.8983418,2.81829622 90.7478944,3.4107707 C90.6869991,3.64742617 90.7317751,3.87154439 90.8774463,4.08205074 C91.0219236,4.29518395 91.4123703,4.54437666 92.0434135,4.83386767 C93.0983361,5.31840242 93.8577371,5.72986294 94.3204224,6.06830891 C94.7807198,6.40675489 95.1299726,6.84985702 95.3645988,7.4013765 C95.3980316,7.48048056 95.4278822,7.5584503 95.4535538,7.63749466 C95.3783301,7.79576248 95.2959423,7.93331399 95.2231067,7.91832899 C95.193853,7.91194097 94.971764,7.99295547 94.8505703,7.98131374 L94.8159435,7.95283628 L94.6463917,7.93600054 C94.5848994,7.90585145 94.4171386,8.02835826 94.3789298,8.00256736 C94.2368406,7.91026934 94.1747512,7.71844945 93.98908,7.90406041 C93.8744535,8.01850757 93.7019166,8.13623829 93.7019166,8.13623829 C93.7019166,8.13623829 93.4475889,8.22632737 93.3741563,8.25749138 L93.2786341,8.37569971 L93.4714694,8.37569971 L93.6272899,8.36758035 C93.6977375,8.33826708 93.8314685,8.30155085 93.9186324,8.27056594 C94.1401244,8.19152158 94.164602,8.47223652 94.2917658,8.34519241 C94.3478851,8.28907331 94.4004222,8.25223768 94.4004222,8.25223768 C94.4004222,8.25223768 94.4577355,8.28328229 94.5377353,8.36758035 C94.6069889,8.41360996 94.9341522,8.29026733 95.0201221,8.26543164 C95.1663904,8.22011845 95.2905692,8.31480451 95.3884794,8.09892506 C95.4338524,8.0402985 95.5437028,7.99289577 95.5532551,8.05480589 C95.6045982,8.39283395 95.5848968,8.73378738 95.4971358,9.0799348 C95.2696737,9.97055697 94.6971379,10.6447027 93.7771403,11.1029689 C92.8559487,11.562071 91.6529667,11.6021901 90.1687915,11.2236847 C89.0565556,10.9403429 88.1687967,10.4669723 87.5043208,9.80900558 C86.8404419,9.14906877 86.5001443,8.33384919 86.4810399,7.36501848 L88.9562573,7.48119697 C88.987302,8.46877385 89.6058079,9.1153376 90.815954,9.42351508 C91.396251,9.57199191 91.8583393,9.58154409 92.1962489,9.44936569 C92.5353525,9.31790369 92.738337,9.1101436 92.8117697,8.82590629 C92.8857993,8.53540036 92.8117697,8.27964052 92.5950538,8.05420887 C92.3747559,7.82943394 91.9108765,7.55134586 91.2069977,7.22191476 C89.8887922,6.61003739 88.9944662,6.00353313 88.5210346,5.40222288 C88.047006,4.80324096 87.9216332,4.0696926 88.1437221,3.20104047 C88.3670051,2.325463 88.9055112,1.67442166 89.7610313,1.25161793 C90.6171485,0.828575383 91.6475936,0.767620481 92.8487845,1.07448453 C94.9813162,1.61794435 96.1508654,2.7409832 96.3663873,4.44360107" id="Fill-11"></path>
        </g>
        <g id="DRIVE" transform="translate(1.000000, 42.000000)" fill="#FEFEFE">
            <g id="Group" transform="translate(50.526316, 3.157895)">
                <path d="M2.43384121,0.760083408 L1.57219576,2.36837306 L2.62966973,2.36837306 L2.43384121,0.760083408 Z M2.41483433,0 L3.03169414,0 L3.62417138,3.78947368 L2.79804385,3.78947368 L2.70665721,3.00731157 L1.23026382,3.00731157 L0.826319523,3.78947368 L0,3.78947368 L1.98785138,0.253425132 C2.08902944,0.0844750441 2.23110111,0 2.41483433,0 Z" id="Fill-32"></path>
                <path d="M5.18750976,0 L4.70966262,2.30803532 C4.6505398,2.59429456 4.66045597,2.80552769 4.73978533,2.94136051 C4.82753408,3.07027072 4.99667026,3.13463228 5.24719387,3.13463228 C5.49042068,3.13463228 5.68631181,3.07027072 5.83468017,2.94136051 C5.97575171,2.8126374 6.07697149,2.60159137 6.13759109,2.30803532 L6.61543822,0 L7.37748652,0 L6.88205222,2.39391309 C6.78719377,2.85192788 6.5866252,3.19899383 6.27997232,3.43511093 C5.99464857,3.67141513 5.60548567,3.78947368 5.11173525,3.78947368 C4.61779773,3.78947368 4.2772802,3.67141513 4.08999555,3.43511093 C3.88138179,3.19899383 3.82431704,2.85192788 3.9191755,2.39391309 L4.3302288,0.407872649 C4.35249341,0.300478658 4.40974526,0.2058073 4.50179725,0.12348438 C4.59384924,0.0413485575 4.69375933,0 4.80115332,0 L5.18750976,0 Z" id="Fill-34"></path>
                <path d="M8.05763929,3.78947368 L8.70291343,0.671960578 L7.57939534,0.671960578 L7.636416,0.39664873 C7.65926266,0.286447195 7.71724326,0.192756692 7.8101658,0.115769208 C7.90308835,0.0385897361 8.00503437,0 8.11504392,0 L10.7368421,0 L10.5976503,0.671960578 L9.48526753,0.671960578 L8.8398014,3.78947368 L8.05763929,3.78947368 Z" id="Fill-36"></path>
                <path d="M11.1901835,1.90522718 C11.1064433,2.30988043 11.1299781,2.61692795 11.2613353,2.82636976 C11.3908682,3.04274431 11.6161823,3.15093159 11.9372778,3.15093159 C12.251258,3.15093159 12.5212701,3.04274431 12.7476789,2.82636976 C12.9751823,2.60306247 13.1297095,2.29619738 13.2105307,1.90522718 C13.2915343,1.51443941 13.264898,1.20374307 13.131169,0.973503037 C12.994521,0.757310927 12.7692069,0.648941211 12.4550442,0.648941211 C12.1339487,0.648941211 11.8639366,0.757310927 11.644643,0.973503037 C11.4253494,1.18987759 11.2739237,1.50057393 11.1901835,1.90522718 M10.4469205,1.90522718 C10.5682435,1.31904553 10.8178222,0.854916647 11.1958392,0.513022965 C11.5944719,0.171129282 12.0591481,0 12.5893205,0 C13.1127425,0 13.5066318,0.171129282 13.7709882,0.513022965 C14.012722,0.862031831 14.0736572,1.32597827 13.9536113,1.90522718 C13.8337478,2.48465852 13.5814324,2.94513859 13.1964828,3.28703227 C12.8060599,3.62199321 12.3422959,3.78947368 11.8050083,3.78947368 C11.260788,3.78947368 10.866169,3.62199321 10.6216986,3.28703227 C10.3837961,2.95188889 10.3255975,2.49140882 10.4469205,1.90522718" id="Fill-38"></path>
            </g>
            <g id="Group-2" transform="translate(50.526316, 8.210526)">
                <path d="M2.43384121,0.760083408 L1.57219576,2.36837306 L2.62966973,2.36837306 L2.43384121,0.760083408 Z M2.41483433,0 L3.03169414,0 L3.62417138,3.78947368 L2.79804385,3.78947368 L2.70665721,3.00731157 L1.23045581,3.00731157 L0.826511511,3.78947368 L0,3.78947368 L1.98804337,0.253425132 C2.08902944,0.0844750441 2.23110111,0 2.41483433,0 Z" id="Fill-40"></path>
                <path d="M5.19066504,0 L4.713005,2.30803532 C4.65369508,2.59448166 4.66379835,2.80571479 4.74294061,2.94136051 C4.83068936,3.07027072 4.99982554,3.13463228 5.25034915,3.13463228 C5.49357596,3.13463228 5.68946709,3.07027072 5.83802254,2.94136051 C5.97909409,2.8126374 6.08012677,2.60177847 6.14093347,2.30803532 L6.6187806,0 L7.38064181,0 L6.8852075,2.39391309 C6.79034905,2.85211498 6.58978048,3.19899383 6.2833147,3.43529803 C5.99799094,3.67160223 5.60864095,3.78947368 5.11489053,3.78947368 C4.62095301,3.78947368 4.28062258,3.67160223 4.09333793,3.43529803 C3.88453707,3.19899383 3.82747232,2.85211498 3.92233078,2.39391309 L4.33338408,0.407872649 C4.35564869,0.300478658 4.41290054,0.2058073 4.50513963,0.12348438 C4.59719162,0.0413485575 4.69691461,0 4.8044957,0 L5.19066504,0 Z" id="Fill-42"></path>
                <path d="M10.4805343,2.46002904 C10.358664,2.87873021 10.1338972,3.20694085 9.805869,3.44411363 C9.47182026,3.67435367 9.07099827,3.78947368 8.60358545,3.78947368 C8.05936514,3.78947368 7.67788185,3.62564203 7.4596829,3.29743139 C7.23856489,2.98345112 7.19167766,2.51932223 7.31865631,1.90522718 C7.44873646,1.27708419 7.69284198,0.806022567 8.05097288,0.492042296 C8.41895557,0.164014099 8.88563862,0 9.45083959,0 C9.91150211,0 10.2539431,0.115120018 10.4785275,0.345542495 C10.690341,0.569032229 10.771892,0.8830125 10.7231803,1.28766575 L10.2729169,1.28766575 C10.1054365,1.28766575 10.0019926,1.21432463 9.96258547,1.06782483 C9.93248278,0.977151849 9.88979168,0.896877985 9.83451217,0.827003236 C9.71665555,0.722282332 9.54242477,0.66992188 9.31236718,0.66992188 C8.99127172,0.66992188 8.72162452,0.774642784 8.50397288,0.984084592 C8.29325399,1.19334396 8.14565955,1.50057393 8.06191931,1.90522718 C7.98109813,2.29637982 8.00280856,2.59612973 8.12686817,2.80557153 C8.24253551,3.02176364 8.4609169,3.12995092 8.78182992,3.12995092 C9.00513721,3.12995092 9.20180818,3.0741241 9.37147793,2.96247045 C9.52582268,2.85793199 9.65462574,2.69045152 9.758252,2.46002904 L10.4805343,2.46002904 Z" id="Fill-44"></path>
                <path d="M11.3673651,3.78947368 L12.0126393,0.671960578 L10.8889292,0.671960578 L10.9459498,0.396456741 C10.9687965,0.286255206 11.0269691,0.192756692 11.1198916,0.115577219 C11.2128142,0.0383977473 11.3145682,0 11.4245778,0 L14.0463759,0 L13.9073761,0.671960578 L12.7949934,0.671960578 L12.1495272,3.78947368 L11.3673651,3.78947368 Z" id="Fill-46"></path>
                <path d="M13.5188117,3.78947368 L14.2211065,0.396456741 C14.2437611,0.286255206 14.3017417,0.192756692 14.3948563,0.115577219 C14.4879708,0.0383977473 14.5895329,0 14.6995424,0 L15.0852478,0 L14.3009738,3.78947368 L13.5188117,3.78947368 Z" id="Fill-48"></path>
                <path d="M15.7731399,1.90522718 C15.6893997,2.31006287 15.7129345,2.61692795 15.8442918,2.82636976 C15.974007,3.04274431 16.1991387,3.15093159 16.5202342,3.15093159 C16.8342144,3.15093159 17.104409,3.04274431 17.3306353,2.82636976 C17.5583212,2.60306247 17.7126659,2.29637982 17.7934871,1.90522718 C17.8746732,1.51443941 17.8478544,1.20374307 17.7143079,0.973503037 C17.5774774,0.757310927 17.3521633,0.649123652 17.038183,0.649123652 C16.7170876,0.649123652 16.4468931,0.757310927 16.2277819,0.973503037 C16.0084883,1.18987759 15.8570626,1.50057393 15.7731399,1.90522718 M15.0298769,1.90522718 C15.1511999,1.31904553 15.4009611,0.854916647 15.7787956,0.513022965 C16.1774283,0.171129282 16.6421045,0 17.1724593,0 C17.6958814,0 18.0895882,0.171129282 18.3539446,0.513022965 C18.5956784,0.862031831 18.6566136,1.32597827 18.5365677,1.90522718 C18.4167042,2.48465852 18.1643889,2.94513859 17.7796216,3.28703227 C17.3891987,3.62199321 16.9252523,3.78947368 16.3879647,3.78947368 C15.8437444,3.78947368 15.4493079,3.62199321 15.204655,3.28703227 C14.9667525,2.95188889 14.9085539,2.49140882 15.0298769,1.90522718" id="Fill-50"></path>
                <path d="M18.4760076,3.78947368 L19.1762801,0.406226984 C19.1988695,0.296342777 19.2566832,0.203113492 19.3495296,0.12615626 C19.442376,0.0491990269 19.5446028,0.00727456428 19.6556356,0 L20.0733487,0 L21.0720698,2.6031454 L21.6107705,0 L22.3799599,0 L21.5954556,3.78947368 L20.7933392,3.78947368 L19.7837062,1.18613685 L19.2448141,3.78947368 L18.4760076,3.78947368 Z" id="Fill-52"></path>
                <path d="M22.1601265,2.58554817 L22.8929904,2.58554817 C22.8774829,2.79480754 22.9272892,2.94148978 23.0425916,3.02523001 C23.1617254,3.12301818 23.3436186,3.17172982 23.588089,3.17172982 C23.8042811,3.17172982 23.9761402,3.13359973 24.1036662,3.0566098 C24.2313746,2.97980231 24.3103714,2.86814866 24.3406565,2.72164886 C24.386814,2.49815912 24.1104165,2.31699561 23.5110991,2.17742855 L23.4924902,2.166847 L23.4131285,2.14586633 C23.0730592,2.06924128 22.8523061,1.98878497 22.7508691,1.90522718 C22.6273568,1.82841968 22.5525562,1.7165836 22.5273794,1.57026624 C22.4834112,1.44456466 22.4819517,1.28401694 22.5222711,1.08862305 C22.593058,0.746729372 22.7672888,0.47799437 23.0451458,0.282600488 C23.3211784,0.0941393491 23.6860596,0 24.1399718,0 C24.5656058,0 24.8732006,0.0977881611 25.0633037,0.292999602 C25.2555961,0.509374153 25.3227343,0.791974641 25.2645357,1.14098351 L24.8458345,1.14098351 C24.6851044,1.14098351 24.5851269,1.06764239 24.5459022,0.921142585 C24.5254688,0.851450276 24.4889807,0.791974641 24.4362554,0.74308056 C24.3293452,0.652590023 24.1677028,0.606979873 23.9515107,0.606979873 C23.7420689,0.606979873 23.5840753,0.64547484 23.47753,0.722282332 C23.3569368,0.799089824 23.2821361,0.907094659 23.2533105,1.04666172 C23.2142682,1.23512286 23.3875868,1.37487235 23.7738136,1.46536289 C23.8849199,1.50057393 23.9677479,1.5215546 24.0222977,1.5283049 C24.1394245,1.57026624 24.242321,1.60328799 24.3315345,1.62773503 C24.4207479,1.65236451 24.4915349,1.67133833 24.5446251,1.68520381 C24.6336561,1.72716515 24.7226871,1.76894405 24.8119006,1.81090539 C24.9341358,1.89464562 25.0197004,2.00301534 25.0691418,2.13546721 C25.1154817,2.28196701 25.1207725,2.44269718 25.0844668,2.61692795 C25.0067471,2.99366779 24.8202928,3.28703227 24.5258337,3.49629164 C24.2341112,3.69150308 23.8579187,3.78947368 23.3972562,3.78947368 C22.9227282,3.78947368 22.5875848,3.68840159 22.3923733,3.48589253 C22.1761812,3.28338346 22.0988264,2.98345112 22.1601265,2.58554817" id="Fill-54"></path>
            </g>
            <path d="M8.70605141,5.89060465 C8.4570918,7.12071481 8.05317503,7.98406854 7.50208568,8.45966218 C6.93087393,8.96683476 6.12377479,9.22401958 5.10340759,9.22401958 L5.09062913,9.22401958 L3.53841371,9.22064137 L4.87809547,2.60125337 L6.86419094,2.60551285 C7.74781395,2.6072754 8.31182864,2.84463158 8.59324847,3.3390257 C8.90639412,3.85515789 8.94428886,4.71351775 8.70605141,5.89060465 M11.2552803,1.51376255 C10.4950355,0.517777234 9.15168176,0.0108984088 7.26252632,0.00693268054 L3.89165728,2.9375765e-05 L3.8873978,2.9375765e-05 C3.47584333,2.9375765e-05 3.09439902,0.138389229 2.75378703,0.411436965 C2.41067809,0.686687882 2.19564749,1.0292093 2.11471726,1.4294541 L0.000102815177,11.8778262 L4.33860955,11.8869327 L4.39119217,11.8869327 C5.51584333,11.8869327 6.35408078,11.8102619 6.94938066,11.6536891 C7.57860955,11.4947662 8.20225704,11.2180465 8.80225704,10.8317552 C9.51667564,10.3742277 10.1594174,9.70490086 10.7178507,8.8340563 C11.2150355,8.00154712 11.5731261,7.05550061 11.7824284,6.02220808 C12.17812,4.06681028 12.0025998,2.55234272 11.2552803,1.51376255" id="Fill-56"></path>
            <path d="M20.0467711,3.72329009 C19.9615814,4.14483231 19.7859143,4.44314321 19.5093415,4.63540759 C19.2239559,4.83428152 18.8057919,4.93504039 18.2661591,4.93504039 L18.2573464,4.93504039 L15.8195985,4.92989963 L16.2928421,2.59232313 L18.9942375,2.59805141 C19.4379584,2.59893268 19.7418507,2.69337576 19.8969547,2.87873684 L19.9185459,2.9019437 C20.0817283,3.06160098 20.1247638,3.33773317 20.0467711,3.72329009 M21.4619486,10.8599853 C21.4709082,10.7492387 21.4803084,10.6243917 21.5077748,10.4897038 L21.5964896,10.0493611 L21.7999168,8.70659486 C21.9225606,7.85499143 21.9031726,7.25425704 21.7448372,6.87956916 C21.6502472,6.63295961 21.4891212,6.42130722 21.2635153,6.24637454 C21.654213,6.04500367 21.9817528,5.78561567 22.2392313,5.47423256 C22.6863305,4.97646022 22.989929,4.34370624 23.1419486,3.59330233 C23.3744578,2.44426928 23.1885092,1.54522399 22.5880685,0.920548348 C22.0133317,0.326276622 21.0659633,0.0358971848 19.6922056,0.0329596083 L15.2314957,0.0237062424 L15.2282644,0.0237062424 C14.8164162,0.0237062424 14.434825,0.162066095 14.0939192,0.435113831 C13.7506634,0.710364749 13.5357797,1.05288617 13.4547026,1.45313097 L11.3400881,11.9016499 L14.4075055,11.9079657 L15.2939192,7.52818605 L17.5865508,7.53288617 C18.2433929,7.53435496 18.4904431,7.67065851 18.5823892,7.7636328 C18.6671383,7.92446512 18.741459,8.25670502 18.6528911,8.92838188 L18.4438825,10.1288225 C18.4137723,10.2774639 18.3864529,10.5261297 18.3617772,10.8771701 C18.3309327,11.1606463 18.3575177,11.4360441 18.4405043,11.6957258 L18.5112999,11.9166316 L21.9163917,11.9250037 C21.9163917,11.9250037 21.4183256,11.3988837 21.4619486,10.8599853" id="Fill-58"></path>
            <path d="M26.837552,0.0482350061 C26.4257038,0.0482350061 26.0441126,0.186594859 25.7033537,0.459789474 C25.3600979,0.734893513 25.1452142,1.07741493 25.0641371,1.47780661 L22.9493758,11.9261787 L26.0167931,11.9324945 L28.4213464,0.0514663403 L26.8409302,0.0482350061 L26.837552,0.0482350061 Z" id="Fill-60"></path>
            <path d="M38.2668397,0.0721909425 L38.261552,0.0721909425 C37.5074761,0.0721909425 36.9499241,0.427931457 36.648235,1.10137087 L33.3408176,7.65275398 L32.6313929,0.0602937576 L29.2781493,0.0533904529 L31.1551138,11.9430845 L33.9299486,11.9491065 L40.544049,0.0768910649 L38.2668397,0.0721909425 Z" id="Fill-62"></path>
            <path d="M49.7157944,2.66250184 L50.2348641,0.0971162791 L42.5591236,0.0809596083 L42.5557454,0.0809596083 C42.1438972,0.0809596083 41.7624529,0.21946634 41.4215471,0.492660955 C41.0784382,0.767911873 40.8635545,1.11028641 40.7824774,1.51067809 L38.667716,11.9590502 L47.830164,11.9781444 L48.3825753,9.24942962 L42.253175,9.23665116 L42.7062962,6.99704284 L45.7825263,7.00350551 L45.7859045,7.00350551 C46.1980465,7.00350551 46.5794908,6.86499878 46.9199559,6.59195104 C47.2630649,6.31714076 47.4782424,5.97461934 47.5593195,5.57378703 L47.7887442,4.44105753 L43.2256597,4.43165728 L43.586541,2.64972338 L49.7157944,2.66250184 Z" id="Fill-64"></path>
        </g>
        <g id="NPA" transform="translate(2.000000, 84.000000)" fill="#FFFFFF">
            <polygon id="Fill-1" points="8.2184431 4.48275862e-05 8.2184431 2.03611379 7.54580517 4.48275862e-05 6.68668448 4.48275862e-05 6.68668448 4.07195862 7.54580517 4.07195862 7.54580517 1.90521724 8.27425345 4.07195862 9.02152931 4.07195862 9.02152931 4.48275862e-05"></polygon>
            <polygon id="Fill-2" points="31.4021948 4.48275862e-05 31.4021948 6.40411379 28.9978672 4.48275862e-05 25.9251603 4.48275862e-05 25.9251603 12.808631 28.9978672 12.808631 28.9978672 5.99282069 31.6027983 12.808631 34.2745224 12.808631 34.2745224 4.48275862e-05"></polygon>
            <polygon id="Fill-3" points="21.2558741 8.75547759 21.2558741 10.7913224 20.5832362 8.75547759 19.7241155 8.75547759 19.7241155 12.8273914 20.5832362 12.8273914 20.5832362 10.6608741 21.3116845 12.8273914 22.0589603 12.8273914 22.0589603 8.75547759"></polygon>
            <polygon id="Fill-4" points="19.2945103 4.48275862e-05 19.2945103 2.03611379 18.6220966 4.48275862e-05 17.7629759 4.48275862e-05 17.7629759 4.07195862 18.6220966 4.07195862 18.6220966 1.90521724 19.3505448 4.07195862 20.0975966 4.07195862 20.0975966 4.48275862e-05"></polygon>
            <path d="M9.78725172,4.48275862e-05 L9.1897,4.07195862 L9.97395862,4.07195862 L10.0754931,3.26887241 L10.7889241,3.26887241 L10.9079414,4.07195862 L11.7298552,4.07195862 L11.0574414,4.48275862e-05 L9.78725172,4.48275862e-05 Z M10.403631,0.672458621 L10.6835793,2.55902759 L10.1653724,2.55902759 L10.403631,0.672458621 Z" id="Fill-5"></path>
            <path d="M6.4533569,8.75547759 L5.85558103,12.8273914 L6.64006379,12.8273914 L6.74159828,12.024081 L7.45502931,12.024081 L7.57382241,12.8273914 L8.39596034,12.8273914 L7.72332241,8.75547759 L6.4533569,8.75547759 Z M7.06951207,9.42789138 L7.34968448,11.3144603 L6.83125345,11.3144603 L7.06951207,9.42789138 Z" id="Fill-6"></path>
            <path d="M20.8635207,4.48275862e-05 L20.2657448,4.07195862 L21.0502276,4.07195862 L21.1517621,3.26887241 L21.864969,3.26887241 L21.9842103,4.07195862 L22.8061241,4.07195862 L22.1334862,4.48275862e-05 L20.8635207,4.48275862e-05 Z M21.4799,0.672458621 L21.7598483,2.55902759 L21.2414172,2.55902759 L21.4799,0.672458621 Z" id="Fill-7"></path>
            <path d="M46.0901328,0.00932413793 L43.8749776,12.8084966 L46.7822707,12.8084966 L47.15815,10.284031 L49.8014086,10.284031 L50.2431845,12.8084966 L53.2887707,12.8084966 L50.7970293,0.00932413793 L46.0901328,0.00932413793 Z M48.3743224,2.12294483 L49.4114086,8.05296207 L47.4907707,8.05296207 L48.3743224,2.12294483 Z" id="Fill-8"></path>
            <polygon id="Fill-9" points="11.6739776 0.0188051724 11.6739776 0.821891379 12.2715293 0.821891379 12.2715293 4.07189138 13.0560121 4.07189138 13.0560121 0.821891379 13.6537879 0.821891379 13.6537879 0.0188051724"></polygon>
            <polygon id="Fill-10" points="13.6407879 8.75547759 13.6407879 9.55856379 14.2385638 9.55856379 14.2385638 12.8085638 15.0230466 12.8085638 15.0230466 9.55856379 15.6205983 9.55856379 15.6205983 8.75547759"></polygon>
            <polygon id="Fill-11" points="24.6551724 4.37999138 22.6753621 4.37999138 22.6753621 5.18330172 23.2729138 5.18330172 23.2729138 8.43330172 24.0573966 8.43330172 24.0573966 5.18330172 24.6551724 5.18330172"></polygon>
            <polygon id="Fill-12" points="13.924569 4.07177931 14.7579138 4.07177931 14.7579138 0.0186931034 13.924569 0.0186931034"></polygon>
            <polygon id="Fill-13" points="15.8647069 12.8084517 16.6980517 12.8084517 16.6980517 8.75536552 15.8647069 8.75536552"></polygon>
            <polygon id="Fill-14" points="22.9281672 0.0188051724 22.9281672 3.26880517 22.9281672 4.07189138 23.7399948 4.07189138 24.65515 4.07189138 24.65515 3.26880517 23.7399948 3.26880517 23.7399948 0.0188051724"></polygon>
            <path d="M15.8482552,4.48275862e-05 L15.1574621,0.728493103 L15.1574621,3.34351034 L15.8738069,4.07195862 L16.7145483,4.07195862 L17.4055655,3.34351034 L17.4055655,0.728493103 L16.6889966,4.48275862e-05 L15.8482552,4.48275862e-05 Z M15.9905828,3.34351034 L16.5722207,3.34351034 L16.5722207,0.728493103 L15.9905828,0.728493103 L15.9905828,3.34351034 Z" id="Fill-15"></path>
            <path d="M3.24282759,7.71424483 L3.82424138,7.71424483 L3.82424138,5.09900345 L3.24282759,5.09900345 L3.24282759,7.71424483 Z M3.94101724,4.37077931 L3.1005,4.37077931 L2.40948276,5.09900345 L2.40948276,7.71424483 L3.12605172,8.44246897 L3.96656897,8.44246897 L4.65781034,7.71424483 L4.65781034,5.09900345 L3.94101724,4.37077931 Z" id="Fill-16"></path>
            <path d="M18.4842069,7.71424483 L19.0656207,7.71424483 L19.0656207,5.09900345 L18.4842069,5.09900345 L18.4842069,7.71424483 Z M19.1823966,4.37077931 L18.3418793,4.37077931 L17.6508621,5.09900345 L17.6508621,7.71424483 L18.367431,8.44246897 L19.2079483,8.44246897 L19.8991897,7.71424483 L19.8991897,5.09900345 L19.1823966,4.37077931 Z" id="Fill-17"></path>
            <path d="M17.7674586,8.75547759 L17.0764414,9.48370172 L17.0764414,12.0991672 L17.7930103,12.8273914 L18.6337517,12.8273914 L19.324769,12.0991672 L19.324769,9.48370172 L18.6082,8.75547759 L17.7674586,8.75547759 Z M17.9097862,12.0991672 L18.4914241,12.0991672 L18.4914241,9.48370172 L17.9097862,9.48370172 L17.9097862,12.0991672 Z" id="Fill-18"></path>
            <polygon id="Fill-19" points="11.8383828 8.75547759 11.1473655 9.48370172 11.1473655 12.0991672 11.8639345 12.8273914 12.7046759 12.8273914 13.3956931 12.0991672 13.3956931 11.0389948 12.5623483 11.0389948 12.5623483 12.0991672 11.9807103 12.0991672 11.9807103 9.48370172 12.5623483 9.48370172 12.5623483 10.3103224 13.3956931 10.3103224 13.3956931 9.48370172 12.6791241 8.75547759"></polygon>
            <polygon id="Fill-20" points="9.91817069 8.75547759 9.91817069 12.0991672 9.33653276 12.0991672 9.33653276 8.75547759 8.50318793 8.75547759 8.50318793 12.0991672 9.2197569 12.8273914 10.0602741 12.8273914 10.7515155 12.0991672 10.7515155 8.75547759"></polygon>
            <path d="M0.761105172,4.37080172 L-6.72413793e-05,4.37080172 L-6.72413793e-05,5.13197414 L-6.72413793e-05,6.26207759 L-6.72413793e-05,7.02302586 L-6.72413793e-05,8.44271552 L0.761105172,8.44271552 L0.761105172,7.02302586 L1.54558793,7.02302586 L2.16891552,6.40193966 L2.16891552,4.96275 L1.54558793,4.37192241 L1.54558793,4.37080172 L0.761105172,4.37080172 Z M0.761105172,6.26207759 L1.42657069,6.26207759 L1.42657069,5.13197414 L0.761105172,5.13197414 L0.761105172,6.26207759 Z" id="Fill-21"></path>
            <polygon id="Fill-22" points="9.77801724 5.13186207 9.77801724 4.37068966 8.8335 4.37068966 8.07232759 4.37068966 8.07232759 5.13186207 8.07232759 5.88137931 8.07232759 6.64232759 8.07232759 7.68143103 8.07232759 8.44260345 8.8335 8.44260345 9.77801724 8.44260345 9.77801724 7.68143103 8.8335 7.68143103 8.8335 6.64232759 9.6005 6.64232759 9.6005 5.88137931 8.8335 5.88137931 8.8335 5.13186207"></polygon>
            <path d="M16.0431207,6.26205517 L16.7085862,6.26205517 L16.7085862,5.13195172 L16.0431207,5.13195172 L16.0431207,6.26205517 Z M17.450931,4.96272759 L16.8276034,4.3719 L16.8276034,4.37077931 L16.0431207,4.37077931 L15.2819483,4.37077931 L15.2819483,5.13195172 L15.2819483,6.26205517 L15.2819483,7.02300345 L15.2819483,8.44246897 L16.0431207,8.44246897 L16.0431207,7.02300345 L16.8276034,7.02300345 L17.450931,6.40214138 L17.450931,4.96272759 Z" id="Fill-23"></path>
            <path d="M35.9321121,4.48275862e-05 L35.9321121,2.39764828 L35.9321121,5.95763103 L35.9321121,8.35545862 L35.9321121,12.8272345 L38.9440776,12.8272345 L38.9440776,8.35545862 L41.5922672,8.35545862 L41.5922672,8.35523448 L43.8751121,6.62354483 L43.8751121,1.86487241 L41.5922672,0.00385517241 L41.5922672,4.48275862e-05 L35.9321121,4.48275862e-05 Z M38.9440776,5.9574069 L40.932181,5.9574069 L40.932181,2.39764828 L38.9440776,2.39764828 L38.9440776,5.9574069 Z" id="Fill-24"></path>
            <path d="M10.9081207,6.07983103 L11.5735862,6.07983103 L11.5735862,5.13195172 L10.9081207,5.13195172 L10.9081207,6.07983103 Z M12.315931,4.89503793 L11.6926034,4.3719 L11.6926034,4.37077931 L10.1469483,4.37077931 L10.1469483,4.37122759 L10.1469483,5.13195172 L10.1469483,6.07983103 L10.1469483,6.79438276 L10.1469483,8.44314138 L10.9081207,8.44314138 L10.9081207,6.79438276 L11.5735862,6.79438276 L11.5735862,8.44314138 L11.8887241,8.44314138 L11.8887241,8.44246897 L12.315931,8.44246897 L12.315931,6.85243448 L11.8725862,6.4324 L12.315931,6.04150345 L12.315931,4.89503793 Z" id="Fill-25"></path>
            <path d="M21.0268276,6.07983103 L21.6922931,6.07983103 L21.6922931,5.13195172 L21.0268276,5.13195172 L21.0268276,6.07983103 Z M22.4348621,4.89503793 L21.8113103,4.3719 L21.8113103,4.37077931 L20.2656552,4.37077931 L20.2656552,4.37122759 L20.2656552,5.13195172 L20.2656552,6.07983103 L20.2656552,6.79438276 L20.2656552,8.44314138 L21.0268276,8.44314138 L21.0268276,6.79438276 L21.6922931,6.79438276 L21.6922931,8.44314138 L22.007431,8.44314138 L22.007431,8.44246897 L22.4348621,8.44246897 L22.4348621,6.85243448 L21.9915172,6.4324 L22.4348621,6.04150345 L22.4348621,4.89503793 Z" id="Fill-26"></path>
            <polyline id="Fill-27" points="6.33189655 4.3719 6.15437931 4.3719 5.89303448 6.54671034 5.5427069 4.3719 4.75351724 4.3719 5.44475862 8.44246897 5.97708621 8.44246897 6.33189655 6.33198621"></polyline>
            <polyline id="Fill-28" points="6.33660345 6.33200862 6.69141379 8.44249138 7.22374138 8.44249138 7.91498276 4.37192241 7.1257931 4.37192241 6.77546552 6.54673276 6.51412069 4.37192241 6.33660345 4.37192241"></polyline>
            <polygon id="Fill-29" points="13.5020017 5.13186207 13.5020017 6.04477586 14.2725879 6.04477586 14.8327086 6.64232759 14.8327086 7.88696552 14.2795362 8.44260345 13.3200017 8.44260345 12.69645 7.80291379 12.69645 7.15851724 13.439019 7.15851724 13.439019 7.68143103 14.0973121 7.68143103 14.0973121 6.72413793 13.3408466 6.72413793 12.69645 6.12187931 12.69645 5.01553448 13.3338983 4.37181034 14.238519 4.37181034 14.8327086 5.00813793 14.8327086 5.65948276 14.0692948 5.65948276 14.0692948 5.13186207"></polygon>
            <polygon id="Fill-30" points="23.1563172 8.74680345 22.518869 9.39052759 22.518869 10.4966483 23.1632655 11.0989069 23.919731 11.0989069 23.919731 12.0562 23.2612138 12.0562 23.2612138 11.5332862 22.518869 11.5332862 22.518869 12.1774586 23.1421966 12.8173724 24.101731 12.8173724 24.6551276 12.2617345 24.6551276 11.0173207 24.0947828 10.4195448 23.3244207 10.4195448 23.3244207 9.5064069 23.8917138 9.5064069 23.8917138 10.0342517 24.6551276 10.0342517 24.6551276 9.3829069 24.0609379 8.74680345"></polygon>
        </g>
        <g id="UPI-logo-white" transform="translate(1.000000, 170.000000)" fill="#FFFFFF" fill-rule="nonzero">
            <g id="Group" transform="translate(0.000000, 7.000000)">
                <path d="M1.05328185,0.130232558 C1.61389961,0.130232558 2.0046332,0.146511628 2.24247104,0.146511628 C2.53127413,0.146511628 2.90501931,0.146511628 3.3976834,0.130232558 L2.95598456,2.21395349 C2.87104247,2.60465116 2.8030888,2.97906977 2.73513514,3.32093023 C2.66718147,3.6627907 2.63320463,3.90697674 2.61621622,4.0372093 C2.58223938,4.28139535 2.58223938,4.49302326 2.5992278,4.65581395 C2.61621622,4.81860465 2.66718147,4.96511628 2.75212355,5.07906977 C2.83706564,5.19302326 2.97297297,5.2744186 3.14285714,5.33953488 C3.31274131,5.40465116 3.51660232,5.42093023 3.7034749,5.42093023 C3.87335907,5.42093023 4.04324324,5.40465116 4.196139,5.35581395 C4.31505792,5.32325581 4.43397683,5.2744186 4.53590734,5.20930233 C4.62084942,5.14418605 4.70579151,5.07906977 4.77374517,4.99767442 C4.85868726,4.9 4.94362934,4.78604651 5.01158301,4.63953488 C5.07953668,4.50930233 5.14749035,4.33023256 5.21544402,4.11860465 C5.28339768,3.90697674 5.38532819,3.41860465 5.53822394,2.65348837 C5.67413127,2.00232558 5.77606178,1.41627907 5.87799228,0.879069767 C5.96293436,0.358139535 6.03088803,0.0976744186 6.04787645,0.0976744186 C6.59150579,0.0976744186 7.01621622,0.0976744186 7.33899614,0.0976744186 L8.42625483,0.0976744186 L7.6957529,3.58139535 C7.67876448,3.64651163 7.67876448,3.69534884 7.66177606,3.74418605 C7.55984556,4.42790698 7.44092664,4.9 7.33899614,5.17674419 C7.22007722,5.45348837 7.06718147,5.69767442 6.86332046,5.90930233 C6.65945946,6.12093023 6.37065637,6.3 5.9969112,6.4627907 C5.62316602,6.6255814 5.21544402,6.73953488 4.77374517,6.82093023 C4.33204633,6.88604651 3.87335907,6.91860465 3.43166023,6.91860465 C3.02393822,6.91860465 2.65019305,6.88604651 2.27644788,6.8372093 C1.93667954,6.78837209 1.63088803,6.70697674 1.37606178,6.60930233 C1.1042471,6.51162791 0.883397683,6.39767442 0.696525097,6.25116279 C0.526640927,6.12093023 0.390733591,6.00697674 0.322779923,5.87674419 C0.237837838,5.74651163 0.186872587,5.6 0.152895753,5.42093023 C0.118918919,5.2255814 0.118918919,4.99767442 0.135907336,4.76976744 C0.152895753,4.68837209 0.16988417,4.5744186 0.186872587,4.41162791 C0.220849421,4.24883721 0.254826255,4.02093023 0.322779923,3.72790698 L0.492664093,2.94651163 C0.543629344,2.73488372 0.594594595,2.44186047 0.67953668,2.03488372 L1.05328185,0.130232558 Z" id="Shape"></path>
                <path d="M8.12046332,4.9 C8.22239382,4.42790698 8.30733591,3.97209302 8.37528958,3.53255814 C8.88494208,3.54883721 9.36061776,3.54883721 9.81930502,3.54883721 C10.2779923,3.54883721 10.7706564,3.54883721 11.2803089,3.53255814 C11.1783784,3.95581395 11.0934363,4.41162791 11.0254826,4.9 C10.5158301,4.88372093 10.0401544,4.88372093 9.58146718,4.88372093 C9.12277992,4.88372093 8.63011583,4.88372093 8.12046332,4.9 Z" id="Shape"></path>
                <path d="M11.3992278,6.82093023 L11.6710425,5.56744186 L12.1297297,3.10930233 L12.4185328,1.36744186 C12.4525097,1.18837209 12.4694981,0.993023256 12.5034749,0.813953488 C12.5204633,0.66744186 12.5544402,0.439534884 12.588417,0.130232558 C13.0640927,0.146511628 13.4378378,0.146511628 13.7266409,0.146511628 C13.9984556,0.146511628 14.3891892,0.146511628 14.8648649,0.130232558 C15.3405405,0.113953488 15.765251,0.113953488 16.0880309,0.113953488 C16.5637066,0.113953488 16.9204633,0.146511628 17.1413127,0.195348837 C17.3621622,0.244186047 17.5660232,0.341860465 17.7359073,0.455813953 C17.9057915,0.569767442 18.0416988,0.71627907 18.1436293,0.879069767 C18.2455598,1.04186047 18.3135135,1.22093023 18.3474903,1.43255814 C18.3814672,1.64418605 18.3814672,1.83953488 18.3644788,2.05116279 C18.3135135,2.49069767 18.1436293,2.88139535 17.8548263,3.25581395 C17.5660232,3.61395349 17.2092664,3.89069767 16.7675676,4.06976744 C16.3258687,4.24883721 15.8332046,4.34651163 15.3065637,4.34651163 C15.1196911,4.34651163 14.8988417,4.33023256 14.6440154,4.28139535 C14.627027,4.13488372 14.6100386,3.90697674 14.5760618,3.61395349 C14.5420849,3.32093023 14.5081081,3.09302326 14.4741313,2.94651163 C14.627027,2.97906977 14.7969112,2.99534884 14.9667954,2.99534884 C15.3235521,2.99534884 15.6123552,2.91395349 15.8162162,2.75116279 C16.0200772,2.58837209 16.1220077,2.39302326 16.1559846,2.16511628 C16.172973,2.05116279 16.1559846,1.95348837 16.1389961,1.87209302 C16.1050193,1.79069767 16.0540541,1.70930233 15.9861004,1.66046512 C15.9011583,1.61162791 15.8162162,1.5627907 15.7142857,1.54651163 C15.6123552,1.53023256 15.4934363,1.51395349 15.357529,1.51395349 C15.2216216,1.51395349 15.0857143,1.51395349 14.9498069,1.53023256 L14.4911197,1.5627907 C14.3552124,2.19767442 14.2362934,2.89767442 14.1003861,3.6627907 C13.8625483,5.0627907 13.7266409,5.90930233 13.6926641,6.18604651 L13.607722,6.82093023 L12.5374517,6.80465116 C12.3675676,6.80465116 11.9938224,6.80465116 11.3992278,6.82093023 Z" id="Shape"></path>
                <path d="M24.3953668,6.82093023 C23.9876448,6.82093023 23.6478764,6.80465116 23.3760618,6.80465116 C23.0362934,6.80465116 22.6965251,6.80465116 22.3567568,6.82093023 L22.4416988,6.15348837 C22.2888031,6.3 22.1698842,6.41395349 22.0679537,6.47906977 C21.9660232,6.56046512 21.8640927,6.60930233 21.7451737,6.6744186 C21.6262548,6.73953488 21.5073359,6.77209302 21.3714286,6.82093023 C21.2355212,6.86976744 21.0826255,6.88604651 20.9127413,6.91860465 C20.7428571,6.93488372 20.5559846,6.95116279 20.3861004,6.95116279 C20.0972973,6.95116279 19.842471,6.91860465 19.5876448,6.85348837 C19.3498069,6.78837209 19.1289575,6.69069767 18.9590734,6.54418605 C18.7891892,6.39767442 18.6702703,6.23488372 18.6362934,6.05581395 C18.5853282,5.87674419 18.5853282,5.66511628 18.619305,5.42093023 C18.619305,5.35581395 18.6362934,5.2744186 18.6702703,5.14418605 L18.9081081,4.0372093 C18.9930502,3.63023256 19.0779923,3.1744186 19.1629344,2.68604651 C19.2138996,2.37674419 19.2648649,2.1 19.2988417,1.82325581 C19.7405405,1.82325581 20.1142857,1.83953488 20.4370656,1.83953488 C20.7598456,1.83953488 21.0996139,1.83953488 21.4903475,1.82325581 L21.0826255,3.69534884 C21.0146718,3.97209302 20.980695,4.16744186 20.9637066,4.28139535 C20.9467181,4.37906977 20.9467181,4.46046512 20.9297297,4.49302326 C20.8787645,4.83488372 20.9297297,5.0627907 21.0656371,5.19302326 C21.2015444,5.30697674 21.3714286,5.37209302 21.592278,5.37209302 C21.6772201,5.37209302 21.7621622,5.35581395 21.8640927,5.33953488 C21.9490347,5.32325581 22.0339768,5.29069767 22.1189189,5.24186047 C22.1868726,5.20930233 22.2548263,5.16046512 22.3227799,5.09534884 C22.3907336,5.03023256 22.4586873,4.96511628 22.5096525,4.86744186 C22.5776062,4.75348837 22.6455598,4.63953488 22.6795367,4.5255814 C22.7474903,4.34651163 22.7984556,4.13488372 22.8664093,3.8744186 C22.9003861,3.67906977 22.9683398,3.35348837 23.0532819,2.88139535 L23.223166,1.85581395 C23.6818533,1.85581395 24.0725869,1.87209302 24.36139,1.87209302 C24.7011583,1.87209302 25.0239382,1.87209302 25.3637066,1.85581395 C25.176834,2.68604651 25.0069498,3.46744186 24.8540541,4.21627907 C24.7011583,4.93255814 24.5482625,5.81162791 24.3953668,6.82093023 Z" id="Shape"></path>
                <path d="M25.6015444,6.82093023 L25.8393822,5.7627907 L26.5359073,2.1 L26.8586873,0.130232558 C27.3513514,0.130232558 27.7250965,0.146511628 27.9799228,0.146511628 C28.3027027,0.146511628 28.6764479,0.146511628 29.0671815,0.130232558 L28.7444015,1.62790698 L28.0478764,5.33953488 L27.8100386,6.82093023 C27.419305,6.82093023 27.0795367,6.82093023 26.7737452,6.82093023 L25.6015444,6.82093023 Z" id="Shape"></path>
                <path d="M29.0162162,6.82093023 L29.2540541,5.7627907 L29.9505792,2.1 L30.2733591,0.130232558 C30.7660232,0.130232558 31.1397683,0.146511628 31.3945946,0.146511628 C31.7173745,0.146511628 32.0911197,0.146511628 32.4818533,0.130232558 L32.1590734,1.62790698 L31.4625483,5.33953488 L31.2247104,6.82093023 C30.8339768,6.82093023 30.4942085,6.82093023 30.188417,6.82093023 L29.0162162,6.82093023 Z" id="Shape"></path>
                <path d="M32.2100386,4.9 C32.3119691,4.42790698 32.3969112,3.97209302 32.4648649,3.53255814 C32.9745174,3.54883721 33.4501931,3.54883721 33.9088803,3.54883721 C34.3675676,3.54883721 34.8602317,3.54883721 35.3698842,3.53255814 C35.2679537,3.95581395 35.1830116,4.41162791 35.1150579,4.9 C34.6054054,4.88372093 34.1297297,4.88372093 33.6710425,4.88372093 C33.2123552,4.88372093 32.7196911,4.88372093 32.2100386,4.9 Z" id="Shape"></path>
                <path d="M35.4718147,6.82093023 C36.0324324,4.2 36.3891892,2.18139535 36.5760618,0.765116279 L36.6610039,0.130232558 C37.2895753,0.130232558 37.7142857,0.146511628 37.9181467,0.146511628 C38.0200772,0.146511628 38.3938224,0.146511628 39.0733591,0.130232558 C38.9034749,0.862790698 38.7675676,1.5627907 38.6486486,2.21395349 C38.4787645,3.1255814 38.3258687,3.98837209 38.2069498,4.78604651 C38.0880309,5.58372093 37.9861004,6.26744186 37.9011583,6.82093023 L36.7969112,6.80465116 C36.5930502,6.80465116 36.1513514,6.80465116 35.4718147,6.82093023 Z" id="Shape"></path>
                <path d="M43.3714286,5.37209302 C43.2694981,5.64883721 43.184556,5.90930233 43.0996139,6.16976744 L42.8957529,6.77209302 C42.5389961,6.8372093 42.2501931,6.88604651 42.046332,6.90232558 C41.842471,6.91860465 41.6555985,6.93488372 41.4687259,6.93488372 C41.1629344,6.93488372 40.8911197,6.91860465 40.6702703,6.86976744 C40.4324324,6.82093023 40.2455598,6.73953488 40.1096525,6.60930233 C39.9737452,6.47906977 39.8718147,6.33255814 39.8378378,6.16976744 C39.803861,6.00697674 39.803861,5.82790698 39.8208494,5.64883721 C39.8208494,5.61627907 39.8378378,5.55116279 39.8548263,5.46976744 C39.8718147,5.38837209 39.9057915,5.19302326 39.9737452,4.91627907 L40.3135135,3.22325581 L39.4810811,3.22325581 C39.5320463,2.99534884 39.5830116,2.70232558 39.6509653,2.32790698 L39.7189189,1.87209302 L40.619305,1.87209302 C40.6532819,1.7255814 40.7382239,1.4 40.823166,0.879069767 L41.7745174,0.7 C41.9444015,0.66744186 42.3181467,0.602325581 42.8787645,0.472093023 C42.7938224,0.895348837 42.7258687,1.36744186 42.6409266,1.85581395 L43.8640927,1.85581395 C43.7451737,2.53953488 43.6772201,2.97906977 43.6432432,3.20697674 L42.4030888,3.20697674 L42.1822394,4.42790698 C42.1482625,4.60697674 42.1312741,4.72093023 42.1312741,4.78604651 C42.1142857,4.94883721 42.1142857,5.07906977 42.1312741,5.17674419 C42.1482625,5.2744186 42.2162162,5.35581395 42.3011583,5.40465116 C42.3861004,5.45348837 42.4880309,5.46976744 42.6069498,5.46976744 C42.6918919,5.46976744 42.776834,5.46976744 42.8787645,5.45348837 C42.9467181,5.46976744 43.1166023,5.4372093 43.3714286,5.37209302 Z" id="Shape"></path>
            </g>
            <g id="Group" transform="translate(51.000000, 0.000000)">
                <path d="M0.316666667,6.4137931 L1.06666667,6.86206897 L0.716666667,7.46551724 C0.716666667,7.46551724 0.65,7.56896552 0.633333333,7.60344828 C0.616666667,7.63793103 0.45,7.93103448 0.4,8.03448276 C0.35,8.13793103 0.3,8.25862069 0.266666667,8.36206897 C0.2,8.5862069 0.15,8.82758621 0.166666667,9.06896552 C0.166666667,9.25862069 0.2,9.46551724 0.283333333,9.63793103 C0.316666667,9.68965517 0.35,9.74137931 0.383333333,9.77586207 C0.416666667,9.82758621 0.45,9.86206897 0.5,9.89655172 C0.583333333,9.96551724 0.666666667,10.0344828 0.766666667,10.1034483 C0.866666667,10.1724138 0.966666667,10.2241379 1.06666667,10.2758621 C1.16666667,10.3103448 1.25,10.3448276 1.35,10.3793103 C1.46666667,10.3965517 1.58333333,10.4137931 1.68333333,10.4310345 C1.8,10.4482759 1.9,10.4482759 2.01666667,10.4482759 C2.23333333,10.4482759 2.45,10.4482759 2.65,10.4482759 L2.83333333,10.4482759 L3.88333333,8.55172414 L4.63333333,9 L3.38333333,6.13793103 L0.316666667,6.4137931 Z" id="Shape"></path>
                <path d="M7.55,10.6206897 C7.53333333,10.637931 3.55,10.637931 3.46666667,10.637931 C3.46666667,10.637931 2.85,10.637931 2.63333333,10.637931 C2.41666667,10.637931 2.2,10.637931 1.98333333,10.6206897 C1.88333333,10.6206897 1.78333333,10.6034483 1.68333333,10.6034483 C1.58333333,10.5862069 1.46666667,10.5689655 1.36666667,10.5517241 C1.15,10.5 0.95,10.3965517 0.766666667,10.2586207 C0.683333333,10.1896552 0.6,10.1206897 0.516666667,10.0517241 C0.433333333,9.96551724 0.366666667,9.87931034 0.316666667,9.77586207 C0.283333333,9.70689655 0.25,9.65517241 0.233333333,9.5862069 C0.233333333,9.5862069 0.233333333,9.56896552 0.216666667,9.56896552 C0.25,9.65517241 0.3,9.74137931 0.333333333,9.84482759 C0.733333333,10.6206897 1.55,12.0689655 2.11666667,13.0344828 C2.16666667,13.1206897 2.21666667,13.1896552 2.26666667,13.2758621 C2.31666667,13.3448276 2.38333333,13.4310345 2.43333333,13.4827586 C2.58333333,13.637931 2.76666667,13.7586207 2.96666667,13.8448276 C3.18333333,13.9310345 3.4,14 3.63333333,14.0172414 C3.75,14.0344828 3.88333333,14.0344828 4,14.0344828 C4.11666667,14.0344828 4.25,14.0344828 4.36666667,14.0344828 L7.56666667,14.0172414 L7.56666667,10.6206897 L7.55,10.6206897 Z" id="Shape"></path>
                <g transform="translate(8.333333, 4.482759)" id="Shape">
                    <path d="M3.88333333,5.98275862 L4.4,5.98275862 C4.56666667,5.98275862 4.71666667,5.98275862 4.88333333,5.96551724 C5,5.94827586 5.11666667,5.94827586 5.23333333,5.9137931 C5.35,5.89655172 5.45,5.84482759 5.56666667,5.79310345 C5.66666667,5.74137931 5.76666667,5.68965517 5.86666667,5.62068966 C5.91666667,5.5862069 5.96666667,5.55172414 6,5.51724138 C6.05,5.48275862 6.08333333,5.44827586 6.13333333,5.39655172 C6.18333333,5.32758621 6.23333333,5.27586207 6.28333333,5.20689655 C6.33333333,5.13793103 6.38333333,5.05172414 6.41666667,4.96551724 C6.46666667,4.86206897 6.48333333,4.74137931 6.48333333,4.62068966 C6.48333333,4.55172414 6.48333333,4.5 6.48333333,4.43103448 C6.48333333,4.36206897 6.46666667,4.31034483 6.46666667,4.24137931 C6.43333333,4 6.36666667,3.77586207 6.28333333,3.56896552 C6.23333333,3.46551724 6.16666667,3.36206897 6.11666667,3.24137931 C6.05,3.13793103 6,3.01724138 5.93333333,2.9137931 C5.78333333,2.63793103 4.56666667,0.465517241 4.36666667,0.103448276 C4.35,0.0689655172 4.33333333,0.0517241379 4.33333333,0.0517241379 L1.5,1.74137931 L3.88333333,5.98275862 Z"></path>
                    <path d="M6.56666667,5.24137931 C6.51666667,5.32758621 6.46666667,5.43103448 6.4,5.5 C6.33333333,5.5862069 6.25,5.65517241 6.15,5.72413793 C6.06666667,5.79310345 5.96666667,5.84482759 5.86666667,5.89655172 C5.76666667,5.94827586 5.66666667,6 5.55,6.03448276 C5.43333333,6.06896552 5.31666667,6.0862069 5.2,6.10344828 C5.08333333,6.12068966 4.96666667,6.13793103 4.83333333,6.13793103 C4.58333333,6.15517241 4.35,6.15517241 4.1,6.15517241 L1.78333333,6.15517241 L1.78333333,6.13793103 L1.78333333,6 L1.78333333,5.24137931 L0.116666667,7.82758621 L1.78333333,10.4310345 L1.78333333,9.53448276 C1.9,9.53448276 2.93333333,9.53448276 3.05,9.53448276 C3.25,9.51724138 3.46666667,9.48275862 3.65,9.43103448 C3.86666667,9.36206897 4.06666667,9.25862069 4.25,9.12068966 C4.43333333,8.96551724 4.58333333,8.77586207 4.7,8.56896552 C5.26666667,7.60344828 6.08333333,6.15517241 6.48333333,5.37931034 C6.53333333,5.27586207 6.56666667,5.22413793 6.58333333,5.15517241 C6.61666667,5.15517241 6.6,5.18965517 6.56666667,5.24137931 Z"></path>
                </g>
                <g transform="translate(2.333333, 0.000000)" id="Shape">
                    <path d="M5.28333333,2.17241379 L5.03333333,1.70689655 C4.95,1.56896552 4.86666667,1.4137931 4.76666667,1.27586207 C4.7,1.17241379 4.63333333,1.06896552 4.55,0.982758621 C4.46666667,0.896551724 4.38333333,0.810344828 4.3,0.74137931 C4.2,0.672413793 4.1,0.603448276 4,0.551724138 C3.95,0.517241379 3.9,0.5 3.83333333,0.482758621 C3.78333333,0.465517241 3.73333333,0.431034483 3.66666667,0.431034483 C3.58333333,0.413793103 3.5,0.396551724 3.43333333,0.396551724 C3.35,0.379310345 3.25,0.396551724 3.16666667,0.396551724 C3.05,0.413793103 2.95,0.448275862 2.85,0.5 C2.8,0.534482759 2.75,0.551724138 2.7,0.586206897 C2.65,0.620689655 2.6,0.655172414 2.55,0.689655172 C2.36666667,0.827586207 2.21666667,1 2.08333333,1.18965517 C2.01666667,1.29310345 1.95,1.39655172 1.9,1.5 C1.83333333,1.60344828 1.78333333,1.72413793 1.71666667,1.82758621 C1.56666667,2.10344828 0.35,4.27586207 0.15,4.63793103 C0.133333333,4.67241379 0.116666667,4.68965517 0.116666667,4.68965517 L2.95,6.37931034 L5.28333333,2.17241379 Z"></path>
                    <path d="M3.31666667,0.137931034 C3.41666667,0.137931034 3.51666667,0.137931034 3.61666667,0.155172414 C3.71666667,0.172413793 3.83333333,0.224137931 3.93333333,0.25862069 C4.03333333,0.310344828 4.13333333,0.362068966 4.21666667,0.413793103 C4.31666667,0.482758621 4.4,0.551724138 4.48333333,0.620689655 C4.56666667,0.706896552 4.65,0.793103448 4.71666667,0.896551724 C4.78333333,1 4.86666667,1.10344828 4.91666667,1.20689655 C5.05,1.4137931 5.16666667,1.63793103 5.28333333,1.84482759 L6.45,3.9137931 L6.43333333,3.9137931 L6.31666667,3.98275862 L5.68333333,4.36206897 L8.78333333,4.62068966 L10.0333333,1.75862069 L9.28333333,2.20689655 C9.21666667,2.10344828 8.71666667,1.17241379 8.65,1.06896552 C8.53333333,0.896551724 8.4,0.724137931 8.25,0.586206897 C8.08333333,0.431034483 7.9,0.293103448 7.7,0.206896552 C7.48333333,0.120689655 7.25,0.0862068966 7.01666667,0.0862068966 C5.93333333,0.0517241379 4.3,0.0689655172 3.45,0.0862068966 C3.33333333,0.0862068966 3.28333333,0.103448276 3.2,0.103448276 C3.23333333,0.137931034 3.26666667,0.137931034 3.31666667,0.137931034 Z"></path>
                </g>
            </g>
        </g>
    </g>
</svg>