<svg width="122" height="261" viewBox="0 0 122 261" fill="none" xmlns="http://www.w3.org/2000/svg">
<path fill-rule="evenodd" clip-rule="evenodd" d="M54.9561 49.2372C72.9093 49.2372 84.2301 56.0384 80.1772 64.3389C76.1211 72.6723 58.1834 79.457 40.2473 79.457C24.1124 79.457 13.3357 73.9772 14.2606 66.818C14.4435 67.1863 14.6864 67.5296 14.9912 67.8447C15.0745 67.9283 15.1654 68.0042 15.2566 68.0802C16.1169 73.9579 25.9885 78.2675 40.1806 78.2675C57.3885 78.2675 74.5975 71.9198 78.4881 64.1243C82.3781 56.3591 71.5152 49.9973 54.2915 49.9973C41.9201 49.9973 29.5409 53.2852 22.1191 58.0186C22.045 58.0173 21.9745 58.0119 21.8985 58.0119C21.6151 58.0119 21.3383 58.0276 21.0642 58.0507C28.7564 52.8629 41.8596 49.2372 54.9561 49.2372ZM25.3892 66.4873L24.7517 68.5229C24.4822 68.2553 24.2442 67.9788 24.0393 67.6947C24.5482 67.3334 24.9992 66.9307 25.3892 66.4873ZM38.7303 76.6341C27.0179 76.6341 18.5732 73.4098 16.6152 68.8421C17.3083 69.0888 18.1159 69.2158 19.0378 69.2158C19.1377 69.2158 19.234 69.2087 19.3323 69.206C21.9335 72.9129 29.3192 75.4365 39.222 75.4365C49.3875 75.4365 59.5623 72.7799 65.8326 68.905L66.4701 68.498C67.2406 67.9891 67.9483 67.4621 68.5769 66.9177C69.2192 66.3654 69.9707 65.5838 70.5609 64.7518C70.8044 64.4152 71.0185 64.0741 71.1968 63.73C72.2148 61.7535 72.0202 59.8818 70.8079 58.2648C71.5545 59.5056 71.6923 60.9011 71.1013 62.3647C70.5479 63.4722 69.9123 64.364 68.9663 65.2416C68.338 65.8218 67.608 66.3831 66.7917 66.9209L67.3543 64.1642L65.7539 64.634C65.669 64.659 65.5911 64.6807 65.5197 64.6997L66.1466 62.6806H68.1283L69.5248 58.2122H67.5559L68.699 54.5455C73.3166 56.8656 75.2624 60.2356 73.3614 63.9718C69.8363 70.9431 54.2611 76.6341 38.7303 76.6341ZM59.4766 67.0472C59.5814 67.7754 59.973 68.3787 60.5771 68.7447C61.0186 69.0148 61.6341 69.1621 62.4852 69.2026C56.9123 71.61 49.4422 73.1607 41.9761 73.1607C37.0475 73.1607 32.8096 72.4855 29.6067 71.334L30.3953 68.8297C30.4092 68.8359 30.4227 68.8419 30.4366 68.8479C30.9682 69.0918 31.5905 69.2156 32.2855 69.2156C33.6571 69.2156 34.9413 68.7561 36.1036 67.8484C36.5237 67.5186 36.8977 67.1433 37.2307 66.7235C37.2967 67.2464 37.5108 67.7243 37.8807 68.135C38.5179 68.862 39.5242 69.2156 40.9582 69.2156C41.9153 69.2156 42.8128 69.0726 43.6281 68.7893C43.8058 68.7263 43.9882 68.6519 44.1741 68.5659L44.3244 69.015H48.8006H49.5977H54.5193L55.6629 65.3598C56.1386 63.8476 56.5726 63.186 56.8559 62.8972C57.1094 62.6663 57.2874 62.6343 57.4415 62.6343C57.4812 62.6343 57.6367 62.6459 57.9729 62.7947L58.691 63.1116L59.1589 62.5084L59.1051 62.6804H60.4409L59.8859 64.4534C59.5022 65.6244 59.373 66.4548 59.4766 67.0472ZM38.1737 53.6988C32.9023 54.862 28.0947 56.4374 24.5293 58.4261C24.1138 58.2709 23.653 58.1588 23.1458 58.0909C26.4466 56.1359 30.7027 54.4815 35.4509 53.2928C36.0911 53.124 36.7476 52.987 37.4032 52.8342C41.8884 51.8738 46.7247 51.3248 51.5456 51.3248C58.5042 51.3248 64.3078 52.463 68.2833 54.3428L62.2661 56.8382L61.8379 58.2122H60.501L60.4289 58.4437C59.8356 58.1544 59.2478 58.012 58.641 58.012C58.1878 58.012 57.7633 58.0801 57.3774 58.2122H52.1823L49.3395 67.2941C49.3374 67.2418 49.3376 67.2016 49.3395 67.1728C49.3455 67.0816 49.3811 66.8778 49.511 66.4355L50.7231 62.5593C50.8981 62.0276 50.9638 61.4754 50.9239 60.8691C50.878 60.2026 50.6519 59.6343 50.2707 59.2242C49.802 58.6907 49.1352 58.3455 48.3053 58.2014C47.661 58.0719 46.7872 58.012 45.5553 58.012C44.8354 58.012 44.1577 58.0608 43.4812 58.1618C42.7196 58.2785 42.1668 58.4304 41.744 58.6389C41.0968 58.9181 40.5594 59.2595 40.158 59.6435C39.7263 60.0378 39.3366 60.5616 38.9672 61.2455L38.9523 61.2729C38.8985 60.801 38.78 60.3537 38.593 59.9285C38.1845 59.0541 37.2605 58.012 35.1768 58.012C34.57 58.012 33.9911 58.1031 33.4231 58.2882L33.4467 58.2122H28.2692C31.4908 56.1413 35.9624 54.4107 40.9277 53.3401C41.9003 53.1306 42.8882 52.9661 43.8907 52.8163C41.9467 53.0111 40.0446 53.295 38.1737 53.6988ZM26.5429 59.9997C26.4667 59.8801 26.3823 59.7674 26.2943 59.6583C26.7842 59.2456 27.3213 58.8415 27.9056 58.4496L27.0369 61.225C26.94 60.7943 26.7782 60.3846 26.5429 59.9997ZM39.7201 62.7186C39.3869 62.8717 39.0965 63.0445 38.8501 63.2367C38.8395 63.2451 38.83 63.2543 38.8191 63.2627C38.8661 63.05 38.9014 62.8418 38.9282 62.6383L39.7201 62.7186ZM9.8906 63.3775L9.98668 63.2266H14.4447L14.2463 63.6823C13.776 64.7627 12.7909 65.9483 12.0747 66.5929C11.3203 67.2494 10.4993 67.7403 9.63062 68.0564C8.76843 68.3848 7.71492 68.5525 6.50536 68.5525C5.05752 68.5525 3.90685 68.3447 3.08483 67.9335C2.24055 67.5199 1.61691 66.7758 1.23344 65.7244C0.866259 64.6926 0.932205 63.3759 1.4283 61.8086C2.05682 59.7526 3.15783 58.1387 4.69984 57.0155C6.25595 55.8925 8.12552 55.3231 10.2578 55.3231C11.9898 55.3231 13.2208 55.6558 14.0213 56.3389C14.9134 57.0662 15.3498 58.2451 15.3498 59.9391V60.2645H10.9278L10.9023 59.9668C10.8608 59.4818 10.6839 59.1768 10.3292 58.9773C10.1034 58.8516 9.81462 58.7876 9.47294 58.7876C8.64414 58.7876 7.9095 59.1024 7.28939 59.7228C6.81093 60.1877 6.39924 60.9505 6.06164 61.9921C5.57858 63.5488 5.67139 64.2139 5.83422 64.4975C6.05486 64.8897 6.49749 65.0875 7.15152 65.0875C7.83324 65.0875 8.41265 64.9041 8.87264 64.542C9.22001 64.2875 9.55979 63.8975 9.8906 63.3775ZM26.2058 63.6822C25.7528 65.1067 24.8784 66.281 23.607 67.1712C22.3114 68.0779 20.7743 68.5373 19.038 68.5373C17.4482 68.5373 16.2481 68.1433 15.4712 67.3655C14.5126 66.3738 14.2801 65.0842 14.7759 63.5294C15.2093 62.131 16.0891 60.9562 17.3901 60.0411C18.6711 59.1447 20.1876 58.6904 21.8986 58.6904C23.8941 58.6904 25.2643 59.2532 25.9702 60.3637C26.5371 61.29 26.6153 62.4051 26.2058 63.6822ZM19.0119 63.7199C18.7945 64.4138 18.7739 64.9093 18.9478 65.1981C19.1099 65.4771 19.3747 65.6101 19.7598 65.6101C20.1878 65.6101 20.5995 65.4472 21.0177 65.1121C21.4131 64.7859 21.7352 64.2374 21.9716 63.4851C22.1733 62.8268 22.1909 62.3347 22.0218 62.0639C21.8606 61.7884 21.6131 61.6644 21.2372 61.6644C20.7743 61.6644 20.3528 61.8216 19.9482 62.1456C19.534 62.4913 19.2176 63.0224 19.0119 63.7199ZM37.978 60.2155C38.4184 61.2164 38.4173 62.3877 37.978 63.8022C37.4944 65.3344 36.7445 66.4832 35.6845 67.3147C34.6462 68.1256 33.5023 68.5373 32.2854 68.5373C31.6889 68.5373 31.1622 68.4344 30.7195 68.2312C30.4547 68.1185 30.2172 67.9709 30.011 67.7913L28.7876 71.675H24.4761L28.4782 58.8906H32.5264L32.3052 59.6068C32.6325 59.3772 32.9262 59.2095 33.1918 59.0999C33.8369 58.825 34.4872 58.6904 35.1768 58.6904C36.5627 58.6904 37.5052 59.2033 37.978 60.2155ZM33.7865 63.461C33.9862 62.8496 34.0128 62.3994 33.8654 62.1489C33.7786 61.9901 33.6339 61.8178 33.2383 61.8178C32.8396 61.8178 32.4852 61.9559 32.1226 62.2523C31.7614 62.5318 31.4729 63.0257 31.2582 63.7237C31.0723 64.3249 31.0544 64.7683 31.2064 65.0071C31.3502 65.2503 31.5958 65.3643 31.9625 65.3643C32.296 65.3643 32.6195 65.228 32.9517 64.9485C33.3026 64.6538 33.5835 64.1536 33.7865 63.461ZM48.8638 66.233C48.7398 66.6542 48.6752 66.9394 48.6625 67.1272C48.6502 67.3137 48.6739 67.5853 48.7355 67.9579L48.7979 68.3368H44.8129L44.7382 68.1142C44.6666 67.8996 44.6264 67.718 44.6167 67.5622C44.1919 67.8176 43.7851 68.0144 43.4022 68.1495C42.6616 68.4071 41.8401 68.5373 40.9581 68.5373C39.7309 68.5373 38.8913 68.2594 38.3911 67.6879C37.8793 67.1199 37.7528 66.408 38.0182 65.5757C38.2361 64.8549 38.6568 64.2464 39.2666 63.7723C39.8672 63.3039 40.8013 62.9614 42.042 62.7541C43.3933 62.508 44.3037 62.3269 44.8283 62.2187C45.1914 62.1272 45.6004 62.007 46.0246 61.8789C46.0971 61.5586 46.0384 61.465 46.0306 61.4539C46.0232 61.4457 45.912 61.341 45.4018 61.341C44.8739 61.341 44.4454 61.4181 44.1268 61.5703C43.913 61.6775 43.6912 61.8987 43.4546 62.245L43.3455 62.4043L39.3323 61.9972L39.564 61.5676C39.897 60.9521 40.2409 60.4867 40.6156 60.1445C40.9714 59.8041 41.4488 59.5034 42.0293 59.2548C42.3829 59.0774 42.8822 58.94 43.5838 58.8323C44.225 58.7368 44.8693 58.6904 45.5554 58.6904C46.7408 58.6904 47.5723 58.7463 48.1718 58.8665C48.8636 58.987 49.4031 59.2605 49.7675 59.6796C50.0471 59.9762 50.211 60.3952 50.2471 60.916C50.281 61.4316 50.2259 61.8998 50.0785 62.3476L48.8638 66.233ZM45.2626 64.3094C44.8742 64.4153 44.4973 64.5073 44.1385 64.5919C43.8536 64.6587 42.9873 64.8628 42.7067 65.0731C42.492 65.2251 42.3721 65.3667 42.3325 65.5136C42.2516 65.7448 42.3192 65.8191 42.352 65.8544C42.3987 65.9117 42.5192 66.0105 42.8942 66.0105C43.2606 66.0105 43.6137 65.9296 43.9735 65.7632C44.3347 65.5961 44.6061 65.4055 44.8031 65.1825C44.9784 64.9833 45.1288 64.6975 45.2626 64.3094ZM60.4005 59.1949L60.7259 59.3805L58.4799 62.2767L58.2468 62.1741C57.9203 62.0295 57.6492 61.9559 57.4416 61.9559C57.0551 61.9559 56.7197 62.0995 56.3851 62.4083C55.8987 62.8957 55.4349 63.8236 55.0156 65.1564L54.0207 68.3367H49.7239L52.6809 58.8906H56.7308L56.5506 59.4673C56.7417 59.3099 56.9246 59.1816 57.0996 59.085C57.5441 58.8212 58.0511 58.6904 58.6411 58.6904C59.2314 58.6904 59.807 58.8554 60.4005 59.1949ZM65.6472 62.002L64.7486 64.8944C64.6311 65.2472 64.6273 65.4019 64.6295 65.4456C64.6626 65.495 64.7806 65.5029 64.8517 65.5029C65.0121 65.5029 65.3321 65.4651 65.9454 65.2849L66.4643 65.1324L65.8358 68.2126L65.623 68.2544C64.6645 68.442 63.7795 68.5372 62.993 68.5372C62.0133 68.5372 61.3392 68.4156 60.931 68.166C60.496 67.9022 60.2246 67.4818 60.1481 66.9507C60.0629 66.4617 60.1877 65.7107 60.5305 64.6651L61.3642 62.002H60.0279L61 58.8906H62.3371L62.8193 57.3434L67.7542 55.2969L66.6337 58.8906H68.602L67.6296 62.002H65.6472Z" fill="#FEFEFE"/>
<path fill-rule="evenodd" clip-rule="evenodd" d="M15.0766 29.8142C14.8061 31.3326 13.6408 35.8058 7.46147 35.8058C3.15495 35.8058 1.07422 33.0183 1.07422 29.0446C1.07422 24.2383 4.07036 20.2435 9.12592 20.2435C12.4338 20.2435 15.3884 21.6784 15.4719 26.1316H11.1444C11.1857 24.7374 10.5198 23.9468 9.10495 23.9468C6.56703 23.9468 5.65128 26.8597 5.65128 28.9611C5.65128 30.1889 5.94278 32.1026 8.04413 32.1026C9.47998 32.1026 10.2912 31.125 10.5824 29.8142H15.0766Z" fill="#FFFFFE"/>
<path fill-rule="evenodd" clip-rule="evenodd" d="M21.1917 32.7269C22.8146 32.7269 23.3972 30.3344 23.3972 29.3977C23.3972 28.1076 23.0641 27.3798 21.9614 27.3798C20.3179 27.3798 19.7352 29.8559 19.7352 30.9796C19.7352 31.8528 20.0267 32.7269 21.1917 32.7269ZM22.2735 24.3833C25.4357 24.3833 27.5167 25.8401 27.5167 29.1071C27.5167 31.8737 25.9767 35.7233 21.004 35.7233C18.0292 35.7233 15.6157 34.2875 15.6157 30.6671C15.6157 27.2138 17.8625 24.3833 22.2735 24.3833Z" fill="#FFFFFE"/>
<path fill-rule="evenodd" clip-rule="evenodd" d="M35.7541 29.2942C35.7541 28.233 35.4626 27.3798 34.256 27.3798C32.4252 27.3798 32.0928 30.0013 32.0928 30.959C32.0928 31.3536 32.2375 32.7269 33.5905 32.7269C35.2337 32.7269 35.7541 30.6885 35.7541 29.2942ZM29.2631 24.6539H33.2575L33.0083 25.8821H33.0492C33.757 24.8825 34.6724 24.3833 35.9415 24.3833C38.9793 24.3833 39.8737 26.9013 39.8737 28.8156C39.8737 32.0197 38.2715 35.7233 34.6102 35.7233C33.4242 35.7233 32.2586 35.5769 31.3644 34.1421L30.3861 38.948H26.2666L29.2631 24.6539Z" fill="#FFFFFE"/>
<path fill-rule="evenodd" clip-rule="evenodd" d="M45.3023 33.2885C46.6966 33.2885 47.2579 32.2697 47.5082 30.6671C46.8427 30.9995 46.072 31.0831 45.3233 31.1456C44.6365 31.2085 43.992 31.5612 43.992 32.3518C43.992 33.1019 44.6365 33.2885 45.3023 33.2885ZM41.3076 27.9205C41.9528 25.0495 44.1793 24.3833 46.8214 24.3833C48.777 24.3833 52.0643 24.6329 52.0643 27.2557C52.0643 28.9401 50.7535 33.788 50.7535 34.4951C50.7535 34.8911 50.8164 35.2032 50.9199 35.4528H46.8836C46.7798 35.1194 46.7169 34.7657 46.7378 34.4126H46.6966C45.9685 35.2857 44.5743 35.7233 43.3677 35.7233C41.5162 35.7233 39.8721 34.9117 39.8721 32.852C39.8721 30.0013 41.9944 29.2313 45.0947 29.0027C46.2597 28.9191 48.1111 29.0862 48.1111 27.7545C48.1111 27.0044 47.4456 26.8178 46.8214 26.8178C45.9891 26.8178 45.4061 27.1093 45.1779 27.9205H41.3076Z" fill="#FFFFFE"/>
<path fill-rule="evenodd" clip-rule="evenodd" d="M53.7271 24.6539H57.7215L57.3681 26.3396H57.4097C58.1381 25.1949 59.4905 24.3833 60.5516 24.3833C61.2381 24.3833 61.6334 24.4249 62.0078 24.5507L61.2381 28.1911C60.7383 28.0041 60.1769 27.9205 59.6568 27.9205C57.9092 27.9205 57.0351 28.6692 56.5569 30.938L55.6205 35.4528H51.501L53.7271 24.6539Z" fill="#FFFFFE"/>
<path fill-rule="evenodd" clip-rule="evenodd" d="M68.6647 24.6539H70.8915L70.3085 27.1928H68.1237L67.3959 30.6671C67.3124 31.0202 67.2083 31.3955 67.2083 31.7496C67.2083 32.1026 67.3959 32.3938 68.0408 32.3938C68.7067 32.3938 69.06 32.3519 69.3931 32.3309L68.7692 35.3064C68.0408 35.4319 67.2918 35.5353 66.5424 35.5769C65.6689 35.5769 64.7329 35.5769 63.9423 35.1404C63.2345 34.7447 62.8186 33.8925 62.8186 33.1019C62.8186 32.5192 62.9433 32.1233 63.0468 31.6241L64.0045 27.1928H62.1733L62.7563 24.6539H64.5452L65.2736 21.3882H69.3931L68.6647 24.6539Z" fill="#FFFFFE"/>
<path fill-rule="evenodd" clip-rule="evenodd" d="M34.6152 43.7776H35.627C36.9668 43.7776 37.7118 42.7232 37.7118 41.4595C37.7118 40.5972 37.3435 40.0118 36.4054 40.0118H35.4177L34.6152 43.7776ZM34.3304 38.9074H36.4889C38.1547 38.9074 39.0252 39.7691 39.0252 41.2333C39.0252 43.3174 37.8703 44.8821 35.5688 44.8821H33.0674L34.3304 38.9074Z" fill="#FFFFFE"/>
<path fill-rule="evenodd" clip-rule="evenodd" d="M41.1619 38.9074H42.4845L41.2207 44.8821H39.8975L41.1619 38.9074Z" fill="#FFFFFE"/>
<path fill-rule="evenodd" clip-rule="evenodd" d="M45.2033 41.6098H46.4173C47.1116 41.6014 47.773 41.3342 47.773 40.665C47.773 40.0204 47.3212 39.9284 46.8021 39.9284H45.555L45.2033 41.6098ZM44.4499 38.9075H47.304C48.3838 38.8906 49.0868 39.318 49.0868 40.4725C49.0868 41.2838 48.5173 41.9615 47.7149 42.0788V42.0957C48.2083 42.2459 48.3334 42.6814 48.3334 43.1498C48.3334 43.4176 48.2918 43.8194 48.2918 44.188C48.2918 44.4555 48.3084 44.706 48.3753 44.8822H47.095C47.0612 44.7399 47.0365 44.6137 47.0365 44.4805C47.0365 44.0791 47.1031 43.6689 47.1031 43.2671C47.1031 42.6899 46.7596 42.5479 46.2408 42.5479H45.0028L44.5091 44.8822H43.1953L44.4499 38.9075Z" fill="#FFFFFE"/>
<path fill-rule="evenodd" clip-rule="evenodd" d="M51.2518 38.9074H55.812L55.5861 40.0119H52.339L52.0716 41.2915H55.0755L54.8584 42.3131H51.8545L51.5447 43.7777H54.8418L54.6071 44.8821H49.9966L51.2518 38.9074Z" fill="#FFFFFE"/>
<path fill-rule="evenodd" clip-rule="evenodd" d="M60.6958 40.9825C60.6958 40.2459 60.2524 39.8699 59.6248 39.8699C58.2775 39.8699 57.6665 41.2334 57.6665 42.3801C57.6665 43.2002 58.0679 43.9198 59.0225 43.9198C59.7502 43.9198 60.3106 43.3588 60.4279 42.7318H61.7417C61.2064 44.3966 60.3028 45.0242 59.0053 45.0242C57.3317 45.0242 56.353 44.0621 56.353 42.3801C56.353 40.4472 57.5995 38.7644 59.6167 38.7644C60.9971 38.7644 62.0433 39.5263 62.0095 40.9825H60.6958Z" fill="#FFFFFE"/>
<path fill-rule="evenodd" clip-rule="evenodd" d="M64.8189 40.0119H62.9448L63.1788 38.9074H68.1661L67.9321 40.0119H66.1412L65.1206 44.8821H63.798L64.8189 40.0119Z" fill="#FFFFFE"/>
<path fill-rule="evenodd" clip-rule="evenodd" d="M12.704 5.94503L9.34275 6.138C9.29489 4.37794 8.5413 3.49904 7.08146 3.49904C5.40937 3.49904 4.57344 4.85439 4.57344 7.5624C4.57344 9.1265 4.79964 10.1863 5.25484 10.7439C5.71084 11.3014 6.3446 11.5786 7.16351 11.5786C8.48628 11.5786 9.29818 10.7938 9.59329 9.22316L12.704 9.39698C12.5018 10.8872 11.8921 12.0211 10.871 12.7971C9.84989 13.5731 8.6026 13.9623 7.12274 13.9623C5.30986 13.9623 3.83658 13.3925 2.70224 12.2546C1.56491 11.1144 0.999756 9.54377 0.999756 7.53412C0.999756 5.6554 1.54811 4.1133 2.64423 2.9165C3.74408 1.71655 5.24147 1.11559 7.14276 1.11559C10.4356 1.11559 12.2893 2.72638 12.704 5.94503Z" fill="#FFFFFE"/>
<path fill-rule="evenodd" clip-rule="evenodd" d="M16.8046 3.57239V6.68899H18.8425C19.4834 6.68899 19.9527 6.65479 20.244 6.57391C20.5353 6.48967 20.7924 6.31256 21.0217 6.02877C21.2479 5.74572 21.3609 5.42284 21.3609 5.05868C21.3609 4.71265 21.2479 4.40175 21.0217 4.1279C20.7924 3.85333 20.5457 3.70829 20.2782 3.64626C20.0109 3.58065 19.5072 3.57239 18.7708 3.57239H16.8046ZM16.8046 8.91447V13.8123H13.688V1.34649H19.6648C20.775 1.34649 21.6694 1.44578 22.3407 1.67959C23.0124 1.91333 23.571 2.33389 24.0128 2.95983C24.4548 3.58658 24.6742 4.28004 24.6742 5.04642C24.6742 6.54512 23.8824 7.63627 22.2961 8.2875L24.8249 13.8123H21.2821L19.175 8.91447H16.8046Z" fill="#FFFFFE"/>
<path fill-rule="evenodd" clip-rule="evenodd" d="M28.9037 8.91449H31.8127L30.3595 4.54349L28.9037 8.91449ZM32.5663 1.34649L36.8526 13.8123H33.3989L32.5663 11.1405H28.1291L27.2656 13.8123H24.4561L28.8416 1.34649H32.5663Z" fill="#FFFFFE"/>
<path fill-rule="evenodd" clip-rule="evenodd" d="M46.6775 4.04747L43.9467 4.87609C43.5806 3.89206 42.7989 3.39953 41.6106 3.39953C40.3354 3.39953 39.7019 3.77362 39.7019 4.52136C39.7019 4.8202 39.8213 5.07279 40.0581 5.27824C40.2945 5.48699 40.8322 5.66461 41.6686 5.81746C43.0664 6.0729 44.0911 6.3314 44.7421 6.59348C45.3897 6.85484 45.9374 7.27532 46.3832 7.85802C46.8285 8.44056 47.0479 9.08843 47.0479 9.80914C47.0479 10.9339 46.5719 11.9055 45.619 12.7283C44.6666 13.5514 43.2518 13.9623 41.3776 13.9623C39.9727 13.9623 38.7764 13.6698 37.7899 13.0906C36.8031 12.5079 36.152 11.6447 35.8369 10.5003L38.8075 9.88951C39.1434 11.0523 40.0723 11.6319 41.6002 11.6319C42.3333 11.6319 42.8848 11.5036 43.2447 11.2449C43.6074 10.9861 43.7858 10.6785 43.7858 10.32C43.7858 9.95257 43.6212 9.67207 43.2961 9.46895C42.9669 9.26992 42.3333 9.07973 41.3978 8.90153C39.6505 8.57551 38.4065 8.1266 37.663 7.55582C36.9196 6.98906 36.5492 6.15707 36.5492 5.06029C36.5492 3.9538 36.9917 3.0193 37.8792 2.25884C38.7665 1.4986 39.969 1.11559 41.487 1.11559C44.1802 1.11559 45.9072 2.09371 46.6775 4.04747Z" fill="#FFFFFE"/>
<path fill-rule="evenodd" clip-rule="evenodd" d="M57.9853 2.01429V14.4794H54.8684V9.36024H50.6393V14.4794H47.5225V2.01429H50.6393V6.91147H54.8684V2.01429H57.9853Z" fill="#FFFFFE"/>
<path fill-rule="evenodd" clip-rule="evenodd" d="M68.9988 3.99087L62.475 3.63709L62.3363 6.18851L67.4679 6.46681L67.3415 8.81022L62.2089 8.53184L62.0617 11.247L68.5864 11.6012L68.4529 14.0619L58.668 13.5316L59.3431 1.08939L69.1275 1.61992L68.9988 3.99087Z" fill="#FFFFFE"/>
<path fill-rule="evenodd" clip-rule="evenodd" d="M73.1928 3.45239L72.938 11.272L74.2629 11.3154C75.4341 11.3536 76.3168 10.9862 76.9108 10.2113C77.5063 9.43522 77.8204 8.51351 77.8555 7.44194C77.8796 6.68857 77.7386 5.98262 77.4376 5.33037C77.1329 4.67842 76.7427 4.21636 76.2729 3.94251C75.798 3.66801 75.223 3.51866 74.5493 3.49623L73.1928 3.45239ZM70.117 1.06069L74.3017 1.19703C76.007 1.25241 77.2703 1.50909 78.0923 1.96589C78.9143 2.41977 79.6413 3.12361 80.2755 4.07301C80.9061 5.02242 81.2005 6.20431 81.1545 7.62119C81.096 9.40244 80.4684 10.8753 79.2723 12.0306C78.0755 13.1892 76.4601 13.735 74.4267 13.6685L69.7104 13.5142L70.117 1.06069Z" fill="#FFFFFE"/>
<path fill-rule="evenodd" clip-rule="evenodd" d="M90.405 1.51699L90.7017 3.96372L87.3304 4.37127L87.4123 5.09856L87.2055 5.12216C87.1609 5.12216 86.9731 5.19647 86.941 5.19479C86.4858 5.17425 86.42 5.32806 85.9239 5.26434C85.872 5.24316 85.8194 5.3415 85.7639 5.32097L85.0011 5.80488C85.053 5.82402 85.8611 5.64925 85.9144 5.67088C86.2293 5.79969 86.2184 5.59482 86.6085 5.62214C86.7116 5.6285 86.8124 5.8108 86.8277 5.70741C86.8482 5.5737 86.8482 5.53198 86.9614 5.53695C87.0067 5.58203 87.188 5.59781 87.2296 5.59781L87.4853 5.63434L88.5302 14.2949L85.3021 14.686L84.1024 4.76144L80.7144 5.17111L80.4185 2.72395L90.405 1.51699Z" fill="#FFFFFE"/>
<path fill-rule="evenodd" clip-rule="evenodd" d="M90.4516 4.74895C90.6715 4.30852 90.9411 3.89782 91.2626 3.5165C92.287 2.30129 93.7476 1.69039 95.6414 1.69039C97.5535 1.69039 98.9988 2.34213 99.972 3.64151C100.946 4.94067 101.432 6.4271 101.432 8.10043C101.432 9.06948 101.287 9.95656 100.999 10.7636C100.985 10.8028 100.76 10.6849 100.752 10.6241L100.497 10.551C100.399 10.4749 99.9939 10.4865 99.9304 10.4323C99.687 10.2203 99.5548 10.2575 99.264 10.0944C98.9308 10.0944 98.9199 10.2118 98.8709 10.0487C98.8556 9.99653 98.8022 9.88255 98.7708 9.8021C98.6371 9.45212 98.0014 9.35626 98.0073 9.30892C98.0497 8.94695 98.0708 8.55029 98.0708 8.11884C98.0708 5.42326 97.2518 4.07456 95.621 4.07456C94.2481 4.07456 93.4334 4.96464 93.1769 6.74296C93.1718 6.77898 93.1002 6.68787 93.044 6.63292C92.8883 6.48036 93.0608 6.52749 92.9439 6.34066L92.9621 6.12147C92.8796 5.98236 92.7181 5.8561 92.6969 5.75615C92.7005 5.56581 92.5303 5.45066 92.3754 5.55982L92.3747 5.55865L92.4141 5.50042L92.4324 5.37256C92.3191 5.28123 91.9655 5.43642 91.7017 5.34516C91.5271 5.34969 91.4109 5.35794 91.4109 5.3426V5.34092L91.4782 5.39521C91.4643 5.34311 91.3839 5.22606 91.3547 5.18076C91.324 5.13685 91.2962 5.09857 91.2539 5.06203C91.0617 4.89479 90.4297 4.79184 90.4516 4.74895ZM95.5289 14.5384C93.6818 14.5384 92.2527 13.9058 91.2422 12.6471C90.231 11.3873 89.7275 9.8645 89.7275 8.07222C89.7275 7.00737 89.9022 6.04612 90.2529 5.18783C90.2668 5.1548 90.7972 5.19908 90.7972 5.19908C90.7972 5.19908 91.1377 5.29078 91.1611 5.32658C91.1852 5.36202 91.2254 5.38985 91.2363 5.43114V5.43282C91.2612 5.52663 91.5096 5.7288 91.7266 5.72413C91.9765 5.71748 92.0612 5.69088 92.1321 5.80011L92.2636 5.81253C92.3177 5.89846 92.4404 5.83928 92.466 5.95099C92.5413 6.29023 92.4375 6.29615 92.6151 6.32983C92.6589 6.48152 92.843 6.90084 92.843 6.90084C92.843 6.90084 93.1331 7.1101 93.1287 7.15642C93.1024 7.45248 93.0885 7.7698 93.0885 8.10926C93.0885 10.8048 93.9317 12.1537 95.621 12.1537C96.8916 12.1537 97.6697 11.3362 97.951 9.70259C98.1826 9.81248 98.4668 9.71881 98.5728 9.99711C98.6013 10.071 98.686 10.0906 98.6999 10.1417C98.7679 10.3689 98.7781 10.4047 99.188 10.4047C99.6045 10.6982 99.8565 10.5819 100.079 10.7753C100.227 11.0036 100.606 10.8102 100.896 11.0298C100.656 11.623 100.331 12.172 99.9274 12.6741C98.9242 13.9142 97.4578 14.5384 95.5289 14.5384Z" fill="#FFFFFE"/>
<path fill-rule="evenodd" clip-rule="evenodd" d="M110.605 0.0112915L106.794 7.49505L106.848 8.29519C106.848 8.29519 106.502 8.37074 106.461 8.39573L106.242 8.52359L105.603 8.65145C105.476 8.68492 105.25 8.87153 105.063 8.75192C104.944 8.75192 104.572 8.80065 104.415 8.66059L103.859 8.80058L104.124 8.84398L104.362 8.83741C104.399 9.02993 104.634 8.97864 104.84 8.99493C105.047 9.01028 105.305 9.07326 105.363 9.05485C105.479 9.01788 106.461 8.98025 106.461 8.98025L106.883 8.82652L107.148 12.734L103.945 12.9501L103.59 7.7125L98.8076 0.808577L102.523 0.55738L105.454 5.1002L107.73 0.205206L110.605 0.0112915Z" fill="#FFFFFE"/>
<path fill-rule="evenodd" clip-rule="evenodd" d="M118.937 5.43825L116.087 5.56699C115.974 4.52188 115.34 3.85246 114.188 3.5583C112.953 3.24368 112.245 3.44914 112.061 4.17423C111.986 4.46386 112.041 4.73815 112.219 4.99577C112.396 5.25662 112.874 5.56159 113.646 5.91588C114.937 6.50887 115.867 7.01244 116.433 7.42664C116.996 7.84084 117.424 8.38313 117.711 9.0581C117.752 9.15491 117.788 9.25034 117.82 9.34707C117.728 9.54077 117.627 9.70911 117.538 9.69077C117.502 9.68295 117.23 9.7821 117.082 9.76785L117.039 9.733L116.832 9.7124C116.757 9.6755 116.551 9.82543 116.505 9.79387C116.331 9.68091 116.255 9.44615 116.028 9.67331C115.887 9.81337 115.676 9.95746 115.676 9.95746C115.676 9.95746 115.365 10.0677 115.275 10.1059L115.158 10.2505H115.394L115.585 10.2406C115.671 10.2047 115.835 10.1598 115.941 10.1219C116.212 10.0251 116.242 10.3687 116.398 10.2132C116.467 10.1445 116.531 10.0994 116.531 10.0994C116.531 10.0994 116.601 10.1374 116.699 10.2406C116.784 10.2969 117.184 10.146 117.289 10.1156C117.468 10.0601 117.62 10.176 117.74 9.91179C117.796 9.84004 117.93 9.78203 117.942 9.8578C118.005 10.2715 117.981 10.6888 117.873 11.1124C117.595 12.2024 116.894 13.0274 115.768 13.5883C114.641 14.1501 113.168 14.1992 111.352 13.736C109.991 13.3892 108.904 12.8099 108.091 12.0047C107.279 11.197 106.862 10.1993 106.839 9.01361L109.868 9.15579C109.906 10.3644 110.663 11.1557 112.144 11.5329C112.854 11.7146 113.42 11.7263 113.833 11.5645C114.248 11.4036 114.497 11.1494 114.587 10.8015C114.677 10.446 114.587 10.133 114.321 9.85707C114.052 9.58198 113.484 9.24164 112.623 8.83847C111.009 8.08963 109.915 7.34736 109.335 6.61146C108.755 5.8784 108.602 4.98065 108.874 3.91756C109.147 2.84599 109.806 2.04922 110.853 1.53177C111.901 1.01404 113.162 0.939437 114.632 1.31499C117.242 1.9801 118.673 3.35452 118.937 5.43825Z" fill="#FFFFFE"/>
<path fill-rule="evenodd" clip-rule="evenodd" d="M29.69 86.2955C29.6703 85.9335 29.4212 85.9224 29.2897 85.9208C28.6778 85.9119 27.9244 85.9079 27.2184 85.9596C26.5121 86.011 26.4297 86.6702 26.4297 86.6702C26.7319 86.4075 27.3005 86.3989 27.3005 86.3989C27.3005 86.3989 28.211 86.3817 28.8189 86.3989C29.1604 86.4086 29.1284 86.6949 28.925 86.7995C28.4227 87.0581 27.6949 87.2908 27.3361 87.3684C27.7126 87.437 28.6295 87.4661 29.1995 87.3853C29.6862 87.3166 29.69 87.0624 29.7019 86.8426C29.7121 86.6492 29.7002 86.4808 29.69 86.2955Z" fill="#FEFEFE"/>
<path fill-rule="evenodd" clip-rule="evenodd" d="M2.52473 90.8062C2.53416 90.9382 2.55059 91.1354 2.57187 91.2714C2.60419 91.4783 2.60527 91.5753 2.97187 91.6852C3.48985 91.8403 6.58508 92.6371 7.24421 92.7664C7.5502 92.8181 8.06657 93.0099 8.49189 92.5854C8.75075 92.3271 8.86253 92.2172 9.03331 92.0426C9.17634 91.8964 9.30401 91.8312 9.78671 91.8099C10.2691 91.7889 10.7028 91.7582 10.7028 91.7582L9.12758 91.5257C9.12758 91.5257 8.68421 91.4584 8.37418 91.8099C8.19182 92.0168 8.17889 92.0221 8.11532 92.0943C7.90926 92.3271 7.75977 92.424 7.33848 92.3529C6.82831 92.2667 4.79248 91.7886 3.44271 91.4137C3.37376 91.3945 3.25739 91.3587 3.23692 91.1971C3.22615 91.113 3.23504 91.0877 3.23207 90.9908C3.22857 90.8755 3.28648 90.8162 3.49982 90.8259C5.791 90.9293 11.3802 91.2068 11.3802 91.2068V90.8229C10.9202 90.8162 8.59236 90.7195 2.93281 90.4787C2.71301 90.4787 2.5013 90.4765 2.52473 90.8062Z" fill="#FEFEFE"/>
<path fill-rule="evenodd" clip-rule="evenodd" d="M8.44123 89.6689C7.34252 89.6361 3.84302 89.9275 3.84302 89.9275C3.84302 89.9275 7.31128 90.0652 9.47692 90.1341C9.94856 90.1492 10.1654 89.7172 9.86937 89.4965C8.55113 88.5145 6.62091 87.9111 6.62091 87.9111C7.3269 88.2904 8.36285 89.0486 8.58238 89.2727C8.80217 89.4965 8.63005 89.6746 8.44123 89.6689Z" fill="#FEFEFE"/>
<path fill-rule="evenodd" clip-rule="evenodd" d="M15.3984 86.9287C15.3976 86.9276 15.3337 86.9276 15.3329 86.9287C10.2444 86.8994 6.65386 87.1267 4.88416 87.2708C5.49534 85.8192 5.99257 84.8875 6.24981 84.4668C6.49412 84.0676 6.80901 84.008 7.04443 83.9563C10.0675 83.5289 15.0948 83.5173 15.3655 83.517C15.6362 83.5173 20.6638 83.5289 23.6869 83.9563C23.9223 84.008 24.2372 84.0676 24.4815 84.4668C24.7387 84.8875 25.236 85.8192 25.8472 87.2708C24.0775 87.1267 20.4866 86.8994 15.3984 86.9287ZM26.3024 87.3091C26.0907 86.8094 25.414 85.249 24.8169 84.2925C24.6286 84.0339 24.3713 83.6326 23.6397 83.517C22.2539 83.2977 19.1802 83.027 15.3779 83.0001H15.3534C11.5511 83.027 8.47746 83.2977 7.09161 83.517C6.35975 83.6326 6.10278 84.0339 5.9145 84.2925C5.31733 85.249 4.64043 86.8097 4.42898 87.3093C2.86858 87.4499 2.49282 88.2394 2.27356 88.5489C1.53605 89.6344 1.20636 91.3233 1.1436 92.2367C1.0442 93.6837 1.01807 94.4002 1.01807 94.4002L0.999758 100.623C0.999219 100.795 1.12582 100.935 1.28205 100.935H5.82023C5.97619 100.935 6.10279 100.796 6.10279 100.624V98.8118H11.3914V98.1914H2.2108C2.2108 98.1914 2.51195 98.8118 3.24649 98.8118H5.60851V99.6786C5.60851 99.7928 5.5242 99.8855 5.42023 99.8855H1.64568C1.54171 99.8855 1.4574 99.7928 1.4574 99.6786V94.366C1.4574 94.0902 1.50211 93.7195 1.58292 92.2367C1.63006 91.375 1.92824 89.8241 2.65013 88.6866C2.87989 88.3245 3.46521 87.7597 4.53349 87.6872C7.32703 87.4976 15.362 87.3769 15.362 87.3769H15.3693C15.3693 87.3769 23.4043 87.4976 26.1979 87.6872C26.8451 87.7311 27.3152 87.9558 27.636 88.2068C27.6414 88.2119 28.1984 88.2001 28.2111 88.2055C27.9398 87.8464 27.4717 87.4144 26.3024 87.3091Z" fill="#FEFEFE"/>
<path fill-rule="evenodd" clip-rule="evenodd" d="M24.2756 84.8093C24.1108 84.5314 23.8991 84.3959 23.6165 84.3442C21.1462 83.9956 15.7752 83.9347 15.3781 83.9307H15.3539C14.9566 83.9347 9.58553 83.9956 7.11522 84.3442C6.83267 84.3959 6.62095 84.5314 6.4561 84.8093C6.33489 85.0138 5.76169 86.1017 5.42041 87.0065C5.94997 86.1082 6.42081 85.3392 6.70337 84.9128C6.79738 84.7835 6.98027 84.6302 7.31536 84.5895C8.80842 84.4088 11.9923 84.241 15.366 84.2407C18.7395 84.241 21.9233 84.4088 23.4164 84.5895C23.7514 84.6302 23.9343 84.7835 24.0283 84.9128C24.3109 85.3392 24.7817 86.1082 25.3113 87.0065C24.97 86.1017 24.3968 85.0138 24.2756 84.8093Z" fill="#FEFEFE"/>
<path fill-rule="evenodd" clip-rule="evenodd" d="M1.53201 87.3855C2.10224 87.4663 3.01913 87.4372 3.39569 87.3682C3.03664 87.2906 2.30884 87.0579 1.80675 86.7996C1.60339 86.6948 1.57107 86.4085 1.91261 86.3988C2.52082 86.3815 3.43098 86.3988 3.43098 86.3988C3.43098 86.3988 3.99986 86.4074 4.30208 86.6703C4.30208 86.6703 4.21966 86.0112 3.5134 85.9595C2.80715 85.9077 2.05375 85.9121 1.44177 85.9207C1.31033 85.9226 1.06117 85.9336 1.04151 86.2956C1.03154 86.4809 1.01942 86.649 1.02993 86.8427C1.04151 87.0622 1.04555 87.3165 1.53201 87.3855Z" fill="#FEFEFE"/>
<path fill-rule="evenodd" clip-rule="evenodd" d="M6.82614 96.3612C6.17779 96.1172 4.8396 95.5903 4.8396 95.5903C4.8396 95.5903 5.419 96.0197 6.43988 96.6246C7.26897 97.1159 7.69537 97.1321 8.30682 97.1321H11.4029L11.4069 96.6246H8.26103C7.72284 96.6246 7.15314 96.4843 6.82614 96.3612Z" fill="#FEFEFE"/>
<path fill-rule="evenodd" clip-rule="evenodd" d="M13.8176 93.7613H14.9538C16.1411 93.7613 16.8942 93.0453 16.8942 91.9641C16.8942 90.7426 16.0899 90.209 14.9155 90.195C14.3792 90.195 13.9965 90.2513 13.8176 90.3073V93.7613ZM12.707 89.451C13.2686 89.3244 14.073 89.2544 14.839 89.2544C16.0261 89.2544 16.7921 89.493 17.3282 90.0267C17.7624 90.4477 18.0048 91.0936 18.0048 91.8238C18.0048 93.0731 17.2899 93.9017 16.3835 94.2384V94.2809C17.0475 94.5333 17.4432 95.2073 17.6474 96.1904C17.9283 97.51 18.1325 98.4226 18.3113 98.7876H17.1622C17.0219 98.5209 16.8304 97.7064 16.588 96.5274C16.3323 95.2215 15.8728 94.7302 14.8643 94.6877H13.8176V98.7876H12.707V89.451Z" fill="#FEFEFE"/>
<path fill-rule="evenodd" clip-rule="evenodd" d="M22.8041 94.7302C22.8168 93.9439 22.5105 92.7224 21.2467 92.7224C20.1105 92.7224 19.6124 93.8736 19.5233 94.7302H22.8041ZM19.5103 95.6145C19.5359 97.2854 20.5061 97.9733 21.6296 97.9733C22.4336 97.9733 22.9188 97.819 23.34 97.6223L23.5315 98.5069C23.1359 98.7036 22.4592 98.9282 21.4763 98.9282C19.5741 98.9282 18.438 97.5523 18.438 95.5022C18.438 93.4526 19.5359 91.8378 21.336 91.8378C23.353 91.8378 23.889 93.7893 23.889 95.0389C23.889 95.2918 23.8637 95.4882 23.8507 95.6145H19.5103Z" fill="#FEFEFE"/>
<path fill-rule="evenodd" clip-rule="evenodd" d="M25.8542 96.0217C25.8542 96.2043 25.8798 96.3729 25.9051 96.5273C26.1095 97.3836 26.7862 97.9732 27.5905 97.9732C28.7775 97.9732 29.4671 96.9063 29.4671 95.3477C29.4671 93.9859 28.816 92.8206 27.6287 92.8206C26.8627 92.8206 26.1478 93.4242 25.9307 94.3511C25.8924 94.5055 25.8542 94.6878 25.8542 94.8564V96.0217ZM24.7436 94.2105C24.7436 93.3399 24.718 92.638 24.6924 91.9923H25.7009L25.752 93.1576H25.7776C26.2372 92.3293 26.9647 91.8377 27.9732 91.8377C29.4671 91.8377 30.5903 93.2279 30.5903 95.2917C30.5903 97.7345 29.2373 98.9421 27.7817 98.9421C26.9647 98.9421 26.2498 98.5491 25.8797 97.8751H25.8541V101.568H24.7436V94.2105Z" fill="#FEFEFE"/>
<mask id="mask0" mask-type="alpha" maskUnits="userSpaceOnUse" x="0" y="83" width="81" height="19">
<path d="M0.999756 101.89H80.909V83H0.999756V101.89Z" fill="white"/>
</mask>
<g mask="url(#mask0)">
<path fill-rule="evenodd" clip-rule="evenodd" d="M31.5083 98.7878H32.6315V88.8193H31.5083V98.7878Z" fill="#FEFEFE"/>
<path fill-rule="evenodd" clip-rule="evenodd" d="M37.1861 95.3196C35.9605 95.2916 34.5693 95.5302 34.5693 96.8501C34.5693 97.6504 35.0541 98.0296 35.6287 98.0296C36.433 98.0296 36.9437 97.468 37.1223 96.8921C37.1605 96.7658 37.1861 96.6254 37.1861 96.4991V95.3196ZM37.3521 98.7877L37.2629 97.9311H37.2247C36.8799 98.4647 36.2159 98.942 35.3351 98.942C34.0839 98.942 33.4458 97.9734 33.4458 96.9905C33.4458 95.3477 34.7735 94.4494 37.1606 94.4631V94.323C37.1606 93.7614 37.0202 92.7505 35.7564 92.7505C35.1821 92.7505 34.582 92.9469 34.148 93.2558L33.8924 92.4415C34.4031 92.0766 35.1436 91.8379 35.9223 91.8379C37.8119 91.8379 38.2714 93.2558 38.2714 94.618V97.1588C38.2714 97.7487 38.297 98.3244 38.3735 98.7877H37.3521Z" fill="#FEFEFE"/>
<path fill-rule="evenodd" clip-rule="evenodd" d="M43.9332 98.5349C43.6396 98.7036 42.9886 98.9282 42.1587 98.9282C40.295 98.9282 39.082 97.5383 39.082 95.4602C39.082 93.368 40.3844 91.8518 42.4014 91.8518C43.0651 91.8518 43.6526 92.0344 43.9588 92.2028L43.7035 93.1577C43.4355 92.9891 43.0142 92.8347 42.4014 92.8347C40.9843 92.8347 40.2182 93.986 40.2182 95.4041C40.2182 96.9767 41.1375 97.9456 42.3629 97.9456C43.0015 97.9456 43.4225 97.7629 43.7417 97.6083L43.9332 98.5349Z" fill="#FEFEFE"/>
<path fill-rule="evenodd" clip-rule="evenodd" d="M48.4545 94.7302C48.4672 93.9439 48.1609 92.7224 46.8971 92.7224C45.7609 92.7224 45.2628 93.8736 45.1737 94.7302H48.4545ZM45.1607 95.6145C45.1863 97.2854 46.1565 97.9733 47.28 97.9733C48.084 97.9733 48.5691 97.819 48.9904 97.6223L49.1819 98.5069C48.7863 98.7036 48.1096 98.9282 47.1267 98.9282C45.2245 98.9282 44.0884 97.5523 44.0884 95.5022C44.0884 93.4526 45.1863 91.8378 46.9864 91.8378C49.0034 91.8378 49.5394 93.7893 49.5394 95.0389C49.5394 95.2918 49.5141 95.4882 49.5011 95.6145H45.1607Z" fill="#FEFEFE"/>
<path fill-rule="evenodd" clip-rule="evenodd" d="M57.7306 94.6318C57.6671 93.3122 57.5903 91.7254 57.603 90.5462H57.5647C57.2711 91.6554 56.9137 92.8346 56.4795 94.1405L54.9606 98.7315H54.118L52.7265 94.2246C52.3181 92.8909 51.9734 91.6694 51.7309 90.5462H51.7053C51.6798 91.7254 51.6159 93.3122 51.5394 94.7301L51.3097 98.7878H50.25L50.8501 89.3246H52.267L53.7352 93.9019C54.0924 95.0671 54.386 96.106 54.6031 97.0889H54.6414C54.8585 96.1341 55.165 95.0951 55.5478 93.9019L57.0796 89.3246H58.4967L59.033 98.7878H57.9478L57.7306 94.6318Z" fill="#FEFEFE"/>
<path fill-rule="evenodd" clip-rule="evenodd" d="M60.3713 91.9922L61.7246 96.0078C61.8649 96.4571 62.0182 96.9905 62.1203 97.3978H62.1459C62.2609 96.9905 62.3883 96.4709 62.5418 95.9796L63.7672 91.9922H64.9545L63.2694 96.8361C62.4648 99.1666 61.9161 100.36 61.1503 101.09C60.6014 101.624 60.0521 101.834 59.7712 101.891L59.4905 100.852C59.7712 100.753 60.1416 100.557 60.4737 100.248C60.7799 99.9812 61.1627 99.5036 61.4183 98.872C61.4692 98.7456 61.5078 98.6473 61.5078 98.577C61.5078 98.5067 61.4822 98.4087 61.431 98.2543L59.146 91.9922H60.3713Z" fill="#FEFEFE"/>
<path fill-rule="evenodd" clip-rule="evenodd" d="M71.6174 98.4788C71.2088 98.7035 70.3918 98.9281 69.3448 98.9281C66.9195 98.9281 65.0938 97.2433 65.0938 94.1405C65.0938 91.1781 66.9195 89.17 69.5875 89.17C70.6598 89.17 71.3364 89.4229 71.6301 89.5913L71.362 90.5882C70.9405 90.3635 70.3406 90.1952 69.6257 90.1952C67.6088 90.1952 66.2684 91.6131 66.2684 94.0982C66.2684 96.415 67.4811 97.9029 69.5748 97.9029C70.2515 97.9029 70.9405 97.7486 71.3874 97.5099L71.6174 98.4788Z" fill="#FEFEFE"/>
<path fill-rule="evenodd" clip-rule="evenodd" d="M75.4078 95.3196C74.1822 95.2916 72.7907 95.5302 72.7907 96.8501C72.7907 97.6504 73.2761 98.0296 73.8503 98.0296C74.6547 98.0296 75.1654 97.468 75.3442 96.8921C75.3822 96.7658 75.4078 96.6254 75.4078 96.4991V95.3196ZM75.5738 98.7877L75.4843 97.9311H75.4464C75.1013 98.4647 74.4376 98.942 73.5568 98.942C72.3056 98.942 71.6675 97.9734 71.6675 96.9905C71.6675 95.3477 72.9952 94.4494 75.3822 94.4631V94.323C75.3822 93.7614 75.2419 92.7505 73.9781 92.7505C73.4038 92.7505 72.8036 92.9469 72.3697 93.2558L72.1141 92.4415C72.6248 92.0766 73.3653 91.8379 74.1443 91.8379C76.0333 91.8379 76.4928 93.2558 76.4928 94.618V97.1588C76.4928 97.7487 76.5184 98.3244 76.5952 98.7877H75.5738Z" fill="#FEFEFE"/>
<path fill-rule="evenodd" clip-rule="evenodd" d="M77.858 94.1123C77.858 93.312 77.8451 92.6241 77.8071 91.9921H78.79L78.8283 93.326H78.8792C79.1602 92.4134 79.8368 91.8378 80.5899 91.8378C80.7176 91.8378 80.8068 91.8518 80.9091 91.8798V93.0453C80.7941 93.0173 80.6794 93.0031 80.5261 93.0031C79.7347 93.0031 79.1728 93.663 79.0195 94.5896C78.9942 94.7579 78.9686 94.9549 78.9686 95.1652V98.7876H77.858V94.1123Z" fill="#FEFEFE"/>
</g>
<path fill-rule="evenodd" clip-rule="evenodd" d="M30.4341 114.061C30.4341 112.148 30.0477 111.32 28.8517 111.32C27.5093 111.32 27.1965 112.663 27.1965 116.379C27.1965 120.352 27.7485 121.07 28.8885 121.07C29.8453 121.07 30.5445 120.574 30.5445 117.741H33.1933C33.1933 120.574 32.4941 123.02 29.0173 123.02C25.0437 123.02 24.5469 120.186 24.5469 116.195C24.5469 112.203 25.0437 109.37 29.0173 109.37C32.8069 109.37 33.0829 112.148 33.0829 114.061H30.4341Z" fill="#FFFFFE"/>
<mask id="mask1" mask-type="alpha" maskUnits="userSpaceOnUse" x="34" y="112" width="17" height="14">
<path d="M34.084 125.952H50.7272V112.607H34.084V125.952Z" fill="white"/>
</mask>
<g mask="url(#mask1)">
<path fill-rule="evenodd" clip-rule="evenodd" d="M37.984 121.29C39.0144 121.29 39.3448 120.279 39.3448 117.814C39.3448 115.349 39.0144 114.338 37.984 114.338C36.7328 114.338 36.6232 115.79 36.6232 117.814C36.6232 119.838 36.7328 121.29 37.984 121.29ZM37.984 112.608C41.0376 112.552 41.884 114.374 41.884 117.814C41.884 121.199 40.8904 123.02 37.984 123.02C34.9304 123.075 34.084 121.254 34.084 117.814C34.084 114.429 35.0776 112.608 37.984 112.608Z" fill="#FFFFFE"/>
<path fill-rule="evenodd" clip-rule="evenodd" d="M46.864 121.07C47.968 121.07 48.1888 119.966 48.1888 117.814C48.1888 115.662 47.968 114.558 46.864 114.558C45.7416 114.558 45.5208 115.662 45.5208 117.814C45.5208 119.966 45.7416 121.07 46.864 121.07ZM42.9824 112.866H45.4104V113.914H45.4472C45.9992 112.994 46.6984 112.608 47.692 112.608C49.7704 112.608 50.7272 114.135 50.7272 117.814C50.7272 121.493 49.7704 123.02 47.692 123.02C46.7352 123.02 46.0912 122.634 45.5576 121.843H45.5208V126H42.9824V112.866Z" fill="#FFFFFE"/>
</g>
<path fill-rule="evenodd" clip-rule="evenodd" d="M56.4636 117.814C56.1148 118.072 55.6916 118.237 55.3788 118.311C54.3492 118.531 53.9436 119.028 53.9436 119.911C53.9436 120.666 54.2204 121.29 54.9004 121.29C55.5812 121.29 56.4636 120.849 56.4636 119.764V117.814ZM51.8284 115.901V115.662C51.8284 113.381 53.3924 112.608 55.3052 112.608C58.3228 112.608 58.8932 113.858 58.8932 115.643V120.849C58.8932 121.769 58.9476 122.192 59.206 122.762H56.7772C56.6116 122.45 56.538 122.063 56.4636 121.732H56.4268C55.8388 122.762 55.122 123.02 53.9068 123.02C52.1412 123.02 51.5156 121.512 51.5156 120.186C51.5156 118.329 52.27 117.575 54.018 117.097L55.4524 116.71C56.2068 116.508 56.4636 116.214 56.4636 115.551C56.4636 114.797 56.1332 114.338 55.2868 114.338C54.514 114.338 54.1092 114.852 54.1092 115.625V115.901H51.8284Z" fill="#FFFFFE"/>
<path fill-rule="evenodd" clip-rule="evenodd" d="M60.3687 112.866H62.7966V114.19H62.8335C63.3487 113.234 64.0663 112.608 65.1143 112.608C65.2623 112.608 65.4279 112.626 65.5751 112.645V115.073C65.3167 115.054 65.0415 115.036 64.7831 115.036C63.9007 115.036 62.9079 115.496 62.9079 116.82V122.762H60.3687V112.866Z" fill="#FFFFFE"/>
<path fill-rule="evenodd" clip-rule="evenodd" d="M67.2279 110.033H69.7663V112.866H71.2383V114.594H69.7663V119.948C69.7663 120.72 69.9319 121.034 70.6679 121.034C70.8703 121.034 71.0727 121.015 71.2383 120.997V122.762C70.6855 122.818 70.1711 122.873 69.5823 122.873C67.5959 122.873 67.2279 122.266 67.2279 120.261V114.594H65.9399V112.866H67.2279V110.033Z" fill="#FFFFFE"/>
<path fill-rule="evenodd" clip-rule="evenodd" d="M76.4277 109.628H79.1501L81.7805 120.04H81.8173L84.4477 109.628H87.1709V122.762H85.5517V111.284H85.5149L82.6093 122.762H80.9893L78.0829 111.284H78.0461V122.762H76.4277V109.628Z" fill="#FFFFFE"/>
<path fill-rule="evenodd" clip-rule="evenodd" d="M94.1173 117.832C94.1173 115.698 93.8053 113.858 92.1485 113.858C90.5853 113.858 90.2541 115.698 90.2541 117.832C90.2541 119.966 90.5669 121.806 92.1485 121.806C93.7861 121.806 94.1173 119.966 94.1173 117.832ZM92.1853 112.645C95.0373 112.645 95.7365 115.054 95.7365 117.832C95.7365 120.61 95.0189 123.02 92.1853 123.02C89.3349 123.02 88.6357 120.61 88.6357 117.832C88.6357 115.054 89.3525 112.645 92.1853 112.645Z" fill="#FFFFFE"/>
<path fill-rule="evenodd" clip-rule="evenodd" d="M100.376 121.695C101.811 121.695 102.179 120.077 102.179 117.832C102.179 115.478 101.811 113.97 100.376 113.97C98.72 113.97 98.3888 115.919 98.3888 117.832C98.3888 119.856 98.72 121.695 100.376 121.695ZM96.936 109.628H98.4808V114.024H98.5176C98.868 113.178 99.8056 112.645 100.799 112.645C103.466 112.645 103.798 115.772 103.798 117.832C103.798 120.61 102.859 123.02 100.578 123.02C99.512 123.02 98.6464 122.284 98.4448 121.549H98.408V122.762H96.936V109.628Z" fill="#FFFFFE"/>
<path fill-rule="evenodd" clip-rule="evenodd" d="M105.096 122.762H106.641V112.902H105.096V122.762ZM105.096 111.394H106.641V109.628H105.096V111.394Z" fill="#FFFFFE"/>
<path fill-rule="evenodd" clip-rule="evenodd" d="M108.286 122.762H109.832V109.628H108.286V122.762Z" fill="#FFFFFE"/>
<mask id="mask2" mask-type="alpha" maskUnits="userSpaceOnUse" x="1" y="106" width="117" height="20">
<path d="M59.5031 106.133H1.04785V125.721H117.958V106.133H59.5031Z" fill="white"/>
</mask>
<g mask="url(#mask2)">
<path fill-rule="evenodd" clip-rule="evenodd" d="M116.339 116.802V116.269C116.339 115.165 115.989 113.858 114.628 113.858C113.009 113.858 112.825 115.846 112.825 116.434V116.802H116.339ZM112.77 118.017C112.77 119.525 112.77 121.806 114.665 121.806C116.136 121.806 116.339 120.261 116.339 119.525H117.884C117.884 120.574 117.259 123.02 114.573 123.02C112.163 123.02 111.151 121.346 111.151 117.961C111.151 115.496 111.629 112.645 114.665 112.645C117.681 112.645 117.958 115.275 117.958 117.39V118.017H112.77Z" fill="#FFFFFE"/>
<path fill-rule="evenodd" clip-rule="evenodd" d="M17.4926 114.552L17.4486 114.903H12.9966L13.0774 114.435C13.1358 114.097 13.159 113.638 12.9334 113.372C12.767 113.174 12.4614 113.074 12.0262 113.074C10.0134 113.074 9.12139 115.595 8.93099 116.929C8.80939 117.782 8.90059 118.413 9.19579 118.752C9.40059 118.989 9.71659 119.104 10.1622 119.104C11.3966 119.104 11.9598 118.068 12.1854 117.45L12.2814 117.187H16.8726L16.7046 117.71C16.1926 119.302 14.4406 123.006 9.23099 123.006C7.491 123.006 6.1662 122.496 5.2942 121.49C4.3638 120.418 4.019 118.826 4.2958 116.886C4.9454 112.344 8.31259 109.172 12.4862 109.172C14.3086 109.172 15.723 109.682 16.5758 110.648C17.391 111.57 17.6998 112.884 17.4926 114.552ZM17.2606 106.133H4.32776C2.49736 106.133 0.999756 107.63 0.999756 109.461V122.394C0.999756 124.224 2.49736 125.721 4.32776 125.721H17.2606C19.091 125.721 20.5886 124.224 20.5886 122.394V109.461C20.5886 107.63 19.091 106.133 17.2606 106.133Z" fill="#FFFFFE"/>
</g>
<path fill-rule="evenodd" clip-rule="evenodd" d="M2.28807 138.27C2.97378 138.27 3.4517 138.291 3.74261 138.291C4.09586 138.291 4.553 138.291 5.1556 138.27L4.61534 140.93C4.51144 141.429 4.42833 141.907 4.34521 142.343C4.26209 142.779 4.22054 143.091 4.19976 143.257C4.1582 143.569 4.1582 143.839 4.17898 144.047C4.19976 144.255 4.26209 144.442 4.36599 144.587C4.46989 144.732 4.63612 144.836 4.84391 144.92C5.0517 145.003 5.30105 145.023 5.52963 145.023C5.73742 145.023 5.94521 145.003 6.13222 144.94C6.27768 144.899 6.42313 144.836 6.54781 144.753C6.6517 144.67 6.7556 144.587 6.83872 144.483C6.94261 144.358 7.04651 144.213 7.12962 144.026C7.21274 143.86 7.29586 143.631 7.37897 143.361C7.46209 143.091 7.58677 142.468 7.77378 141.491C7.94001 140.66 8.06469 139.912 8.18936 139.226C8.29326 138.561 8.37638 138.229 8.39716 138.229H9.97637H11.3062L10.4127 142.675C10.392 142.758 10.392 142.821 10.3712 142.883C10.2465 143.756 10.101 144.358 9.97637 144.712C9.83092 145.065 9.64391 145.377 9.39456 145.647C9.14521 145.917 8.79196 146.145 8.33482 146.353C7.87768 146.561 7.37897 146.707 6.83872 146.81C6.29846 146.894 5.73742 146.935 5.19716 146.935C4.69846 146.935 4.24131 146.894 3.78417 146.831C3.36859 146.769 2.99456 146.665 2.68287 146.54C2.35041 146.416 2.08028 146.27 1.85171 146.083C1.64391 145.917 1.47768 145.771 1.39456 145.605C1.29067 145.439 1.22833 145.252 1.18677 145.023C1.14521 144.774 1.14521 144.483 1.16599 144.192C1.18677 144.088 1.20755 143.943 1.22833 143.735C1.26989 143.527 1.31145 143.236 1.39456 142.862L1.60236 141.865C1.66469 141.595 1.72703 141.221 1.83093 140.701L2.28807 138.27Z" fill="white"/>
<path fill-rule="evenodd" clip-rule="evenodd" d="M10.9321 144.358C11.0568 143.756 11.1607 143.174 11.2438 142.613C11.8672 142.634 12.449 142.634 13.01 142.634C13.5711 142.634 14.1737 142.634 14.797 142.613C14.6724 143.153 14.5685 143.735 14.4853 144.358C13.862 144.338 13.2802 144.338 12.7191 144.338C12.1581 144.338 11.5555 144.338 10.9321 144.358Z" fill="white"/>
<path fill-rule="evenodd" clip-rule="evenodd" d="M14.9429 146.81L15.2753 145.21L15.8364 142.073L16.1896 139.849C16.2312 139.621 16.252 139.371 16.2935 139.143C16.3143 138.956 16.3559 138.665 16.3974 138.27C16.9792 138.291 17.4364 138.291 17.7896 138.291C18.1221 138.291 18.6 138.291 19.1818 138.27C19.7636 138.249 20.2831 138.249 20.6779 138.249C21.2597 138.249 21.6961 138.291 21.9662 138.353C22.2364 138.416 22.4857 138.54 22.6935 138.686C22.9013 138.831 23.0675 139.018 23.1922 139.226C23.3169 139.434 23.4 139.662 23.4415 139.932C23.4831 140.203 23.4831 140.452 23.4623 140.722C23.4 141.283 23.1922 141.782 22.8389 142.26C22.4857 142.717 22.0493 143.07 21.5091 143.299C20.9688 143.527 20.3662 143.652 19.7221 143.652C19.4935 143.652 19.2234 143.631 18.9117 143.569C18.8909 143.382 18.8701 143.091 18.8286 142.717C18.787 142.343 18.7455 142.052 18.7039 141.865C18.8909 141.907 19.0987 141.927 19.3065 141.927C19.7429 141.927 20.0961 141.823 20.3454 141.616C20.5948 141.408 20.7195 141.158 20.761 140.868C20.7818 140.722 20.761 140.597 20.7403 140.494C20.6987 140.39 20.6364 140.286 20.5532 140.223C20.4493 140.161 20.3455 140.099 20.2208 140.078C20.0961 140.057 19.9506 140.036 19.7844 140.036C19.6182 140.036 19.4519 140.036 19.2857 140.057L18.7247 140.099C18.5584 140.909 18.413 141.803 18.2468 142.779C17.9558 144.566 17.7896 145.647 17.7481 146L17.6442 146.81L16.3351 146.79C16.1273 146.79 15.6701 146.79 14.9429 146.81Z" fill="white"/>
<path fill-rule="evenodd" clip-rule="evenodd" d="M30.8385 146.81C30.3398 146.81 29.9242 146.79 29.5918 146.79C29.1762 146.79 28.7606 146.79 28.345 146.81L28.4489 145.959C28.2619 146.146 28.1164 146.291 27.9918 146.374C27.8671 146.478 27.7424 146.54 27.597 146.623C27.4515 146.707 27.3061 146.748 27.1398 146.81C26.9736 146.873 26.7866 146.894 26.5788 146.935C26.371 146.956 26.1424 146.977 25.9346 146.977C25.5814 146.977 25.2697 146.935 24.958 146.852C24.6671 146.769 24.397 146.644 24.1892 146.457C23.9814 146.27 23.8359 146.062 23.7944 145.834C23.732 145.605 23.732 145.335 23.7736 145.023C23.7736 144.94 23.7944 144.836 23.8359 144.67L24.1268 143.257C24.2307 142.738 24.3346 142.156 24.4385 141.533C24.5009 141.138 24.5632 140.784 24.6048 140.431C25.145 140.431 25.6022 140.452 25.997 140.452C26.3918 140.452 26.8074 140.452 27.2853 140.431L26.7866 142.821C26.7035 143.174 26.6619 143.423 26.6411 143.569C26.6203 143.694 26.6203 143.797 26.5996 143.839C26.5372 144.275 26.5996 144.566 26.7658 144.733C26.932 144.878 27.1398 144.961 27.41 144.961C27.5138 144.961 27.6177 144.94 27.7424 144.92C27.8463 144.899 27.9502 144.857 28.0541 144.795C28.1372 144.753 28.2203 144.691 28.3035 144.608C28.3866 144.525 28.4697 144.442 28.532 144.317C28.6151 144.171 28.6983 144.026 28.7398 143.881C28.8229 143.652 28.8853 143.382 28.9684 143.049C29.0099 142.8 29.0931 142.384 29.197 141.782L29.4048 140.473C29.9658 140.473 30.4437 140.494 30.797 140.494C31.2125 140.494 31.6073 140.494 32.0229 140.473C31.7944 141.533 31.5866 142.53 31.3996 143.486C31.2125 144.4 31.0255 145.522 30.8385 146.81Z" fill="white"/>
<path fill-rule="evenodd" clip-rule="evenodd" d="M32.314 146.81L32.6049 145.46L33.4568 140.784L33.8516 138.27C34.4542 138.27 34.9114 138.291 35.2231 138.291C35.6179 138.291 36.075 138.291 36.553 138.27L36.1582 140.182L35.3062 144.919L35.0153 146.81H33.7477H32.314Z" fill="white"/>
<path fill-rule="evenodd" clip-rule="evenodd" d="M36.4907 146.81L36.7816 145.46L37.6336 140.784L38.0284 138.27C38.631 138.27 39.0882 138.291 39.3998 138.291C39.7947 138.291 40.2518 138.291 40.7297 138.27L40.3349 140.182L39.483 144.919L39.192 146.81H37.9245H36.4907Z" fill="white"/>
<path fill-rule="evenodd" clip-rule="evenodd" d="M40.397 144.358C40.5216 143.756 40.6255 143.174 40.7087 142.613C41.332 142.634 41.9138 142.634 42.4749 142.634C43.0359 142.634 43.6385 142.634 44.2619 142.613C44.1372 143.153 44.0333 143.735 43.9502 144.358C43.3268 144.338 42.745 144.338 42.184 144.338C41.6229 144.338 41.0203 144.338 40.397 144.358Z" fill="white"/>
<path fill-rule="evenodd" clip-rule="evenodd" d="M44.3867 146.81C45.0724 143.465 45.5088 140.888 45.7374 139.08L45.8413 138.27C46.6101 138.27 47.1296 138.291 47.3789 138.291C47.5036 138.291 47.9607 138.291 48.7919 138.27C48.5841 139.205 48.4179 140.099 48.2724 140.93C48.0646 142.093 47.8776 143.195 47.7322 144.213C47.5867 145.231 47.462 146.104 47.3582 146.81L46.0075 146.79C45.7581 146.79 45.2179 146.79 44.3867 146.81Z" fill="white"/>
<path fill-rule="evenodd" clip-rule="evenodd" d="M54.0489 144.961C53.9243 145.314 53.8204 145.647 53.7165 145.979L53.4671 146.748C53.0308 146.831 52.6775 146.894 52.4282 146.914C52.1788 146.935 51.9502 146.956 51.7217 146.956C51.3477 146.956 51.0152 146.935 50.7451 146.873C50.4542 146.81 50.2256 146.707 50.0594 146.54C49.8931 146.374 49.7684 146.187 49.7269 145.979C49.6853 145.771 49.6853 145.543 49.7061 145.314C49.7061 145.273 49.7269 145.19 49.7477 145.086C49.7684 144.982 49.81 144.733 49.8931 144.379L50.3087 142.218H49.2905C49.3529 141.927 49.4152 141.553 49.4983 141.075L49.5814 140.494H50.6827C50.7243 140.307 50.8282 139.891 50.9321 139.226L52.0957 138.997C52.3035 138.956 52.7606 138.873 53.4463 138.706C53.3424 139.247 53.2593 139.849 53.1554 140.473H54.6515C54.5061 141.345 54.423 141.907 54.3814 142.197H52.8645L52.5944 143.756C52.5528 143.984 52.5321 144.13 52.5321 144.213C52.5113 144.421 52.5113 144.587 52.5321 144.712C52.5528 144.836 52.636 144.94 52.7399 145.003C52.8437 145.065 52.9684 145.086 53.1139 145.086C53.2178 145.086 53.3217 145.086 53.4463 145.065C53.5295 145.086 53.7372 145.044 54.0489 144.961Z" fill="white"/>
<path fill-rule="evenodd" clip-rule="evenodd" d="M62.6935 137.73L63.6286 138.27L63.1922 138.997C63.1922 138.997 63.1091 139.122 63.0883 139.164C63.0675 139.205 62.8597 139.558 62.7974 139.683C62.735 139.808 62.6727 139.953 62.6311 140.078C62.548 140.348 62.4857 140.639 62.5065 140.93C62.5065 141.158 62.548 141.408 62.6519 141.616C62.6935 141.678 62.735 141.74 62.7766 141.782C62.8182 141.844 62.8597 141.886 62.9221 141.927C63.026 142.01 63.1299 142.093 63.2545 142.177C63.3792 142.26 63.5039 142.322 63.6286 142.384C63.7532 142.426 63.8571 142.468 63.9818 142.509C64.1273 142.53 64.2727 142.551 64.3974 142.571C64.5428 142.592 64.6675 142.592 64.813 142.592H65.6026H65.8312L67.1403 140.306L68.0753 140.847L66.5169 137.397L62.6935 137.73Z" fill="white"/>
<path fill-rule="evenodd" clip-rule="evenodd" d="M71.7117 142.8C71.6909 142.821 66.7247 142.821 66.6208 142.821H65.5818C65.3117 142.821 65.0416 142.821 64.7714 142.8C64.6468 142.8 64.5221 142.779 64.3974 142.779C64.2727 142.758 64.1273 142.738 64.0026 142.717C63.7325 142.655 63.4831 142.53 63.2546 142.364C63.1507 142.281 63.0468 142.197 62.9429 142.114C62.839 142.01 62.7559 141.907 62.6935 141.782C62.652 141.699 62.6104 141.636 62.5896 141.553C62.5896 141.553 62.5896 141.533 62.5688 141.533C62.6104 141.636 62.6727 141.74 62.7143 141.865C63.213 142.8 64.2312 144.545 64.9377 145.709C65 145.813 65.0623 145.896 65.1247 146C65.187 146.083 65.2701 146.187 65.3325 146.249C65.5195 146.436 65.7481 146.582 65.9974 146.686C66.2675 146.79 66.5377 146.873 66.8286 146.894C66.974 146.914 67.1403 146.914 67.2857 146.914H67.7429L71.7324 146.894V142.8H71.7117Z" fill="white"/>
<path fill-rule="evenodd" clip-rule="evenodd" d="M77.53 142.613H78.1742C78.382 142.613 78.569 142.613 78.7768 142.592C78.9222 142.571 79.0677 142.571 79.2131 142.53C79.3586 142.509 79.4833 142.447 79.6287 142.384C79.7534 142.322 79.8781 142.26 80.0028 142.177C80.0651 142.135 80.1274 142.094 80.169 142.052C80.2313 142.01 80.2729 141.969 80.3352 141.906C80.3976 141.823 80.4599 141.761 80.5222 141.678C80.5846 141.595 80.6469 141.491 80.6885 141.387C80.7508 141.262 80.7716 141.117 80.7716 140.971V140.743C80.7716 140.66 80.7508 140.597 80.7508 140.514C80.7093 140.223 80.6261 139.953 80.5222 139.704C80.4599 139.579 80.3768 139.455 80.3144 139.309C80.2313 139.184 80.169 139.039 80.0859 138.914C79.8989 138.582 78.382 135.964 78.1326 135.527C78.1118 135.486 78.0911 135.465 78.0911 135.465L74.5586 137.501L77.53 142.613Z" fill="white"/>
<path fill-rule="evenodd" clip-rule="evenodd" d="M80.8756 141.719C80.8132 141.823 80.7509 141.948 80.6678 142.031C80.5846 142.135 80.4807 142.218 80.3561 142.301C80.2522 142.384 80.1275 142.447 80.0028 142.509C79.8781 142.571 79.7535 142.634 79.608 142.675C79.4626 142.717 79.3171 142.738 79.1717 142.758C79.0262 142.779 78.8807 142.8 78.7145 142.8C78.4028 142.821 78.1119 142.821 77.8002 142.821H74.9119V142.8V142.634V141.719L72.834 144.836L74.9119 147.974V146.893H76.4911C76.7405 146.873 77.0106 146.831 77.2392 146.769C77.5093 146.686 77.7587 146.561 77.9872 146.395C78.2158 146.208 78.4028 145.979 78.5483 145.73C79.2548 144.566 80.273 142.821 80.7717 141.886C80.834 141.761 80.8756 141.699 80.8963 141.616C80.9379 141.616 80.9171 141.657 80.8756 141.719Z" fill="white"/>
<path fill-rule="evenodd" clip-rule="evenodd" d="M71.7946 132.618L71.4829 132.057C71.379 131.891 71.2751 131.704 71.1505 131.538C71.0673 131.413 70.9842 131.288 70.8803 131.184C70.7764 131.081 70.6725 130.977 70.5686 130.894C70.444 130.81 70.3193 130.727 70.1946 130.665C70.1323 130.623 70.0699 130.603 69.9868 130.582C69.9245 130.561 69.8621 130.519 69.779 130.519C69.6751 130.499 69.5712 130.478 69.4881 130.478C69.3842 130.457 69.2595 130.478 69.1556 130.478C69.0102 130.499 68.8855 130.54 68.7608 130.603C68.6985 130.644 68.6362 130.665 68.5738 130.706C68.5115 130.748 68.4492 130.79 68.3868 130.831C68.1582 130.997 67.9712 131.205 67.805 131.434C67.7219 131.558 67.6388 131.683 67.5764 131.808C67.4933 131.932 67.431 132.078 67.3478 132.203C67.1608 132.535 65.6439 135.153 65.3946 135.59C65.3738 135.631 65.353 135.652 65.353 135.652L68.8855 137.688L71.7946 132.618Z" fill="white"/>
<path fill-rule="evenodd" clip-rule="evenodd" d="M69.3427 130.166C69.4674 130.166 69.5921 130.166 69.7167 130.187C69.8414 130.208 69.9869 130.27 70.1116 130.312C70.2362 130.374 70.3609 130.436 70.4648 130.499C70.5895 130.582 70.6934 130.665 70.7973 130.748C70.9012 130.852 71.0051 130.956 71.0882 131.081C71.1713 131.205 71.2752 131.33 71.3375 131.455C71.5038 131.704 71.6492 131.974 71.7947 132.223L73.2492 134.717H73.2284L73.083 134.8L72.2934 135.257L76.1583 135.569L77.7168 132.119L76.7817 132.66C76.6986 132.535 76.0752 131.413 75.9921 131.288C75.8466 131.081 75.6804 130.873 75.4934 130.706C75.2856 130.519 75.057 130.353 74.8077 130.249C74.5375 130.145 74.2466 130.104 73.9557 130.104C72.6051 130.062 70.5687 130.083 69.509 130.104C69.3635 130.104 69.3012 130.125 69.1973 130.125C69.2388 130.166 69.2804 130.166 69.3427 130.166Z" fill="white"/>
<path fill-rule="evenodd" clip-rule="evenodd" d="M84.8531 161.203L83.4888 163.75H85.1632L84.8531 161.203ZM84.823 160H85.7997L86.7378 166H85.4297L85.285 164.762H82.9474L82.3078 166H80.9995L84.1469 160.401C84.3071 160.134 84.5321 160 84.823 160Z" fill="#FEFEFE"/>
<path fill-rule="evenodd" clip-rule="evenodd" d="M89.2133 160L88.4567 163.654C88.3631 164.108 88.3788 164.442 88.5044 164.657C88.6433 164.861 88.9111 164.963 89.3078 164.963C89.6929 164.963 90.0031 164.861 90.238 164.657C90.4614 164.453 90.6216 164.119 90.7176 163.654L91.4742 160H92.6808L91.8963 163.79C91.7461 164.515 91.4286 165.065 90.943 165.439C90.4913 165.813 89.8751 166 89.0933 166C88.3113 166 87.7721 165.813 87.4756 165.439C87.1453 165.065 87.0549 164.515 87.2051 163.79L87.856 160.646C87.8912 160.476 87.9819 160.326 88.1276 160.195C88.2734 160.065 88.4315 160 88.6016 160H89.2133Z" fill="#FEFEFE"/>
<path fill-rule="evenodd" clip-rule="evenodd" d="M93.7577 166L94.7794 161.064H93.0005L93.0908 160.628C93.1269 160.453 93.2187 160.305 93.3659 160.183C93.513 160.061 93.6744 160 93.8486 160H97.9998L97.7794 161.064H96.0181L94.9961 166H93.7577Z" fill="#FEFEFE"/>
<path fill-rule="evenodd" clip-rule="evenodd" d="M98.7175 163.017C98.585 163.657 98.6222 164.143 98.8302 164.475C99.0353 164.818 99.392 164.989 99.9004 164.989C100.398 164.989 100.825 164.818 101.184 164.475C101.544 164.121 101.788 163.636 101.916 163.017C102.045 162.398 102.003 161.906 101.791 161.541C101.574 161.199 101.218 161.027 100.72 161.027C100.212 161.027 99.7843 161.199 99.4371 161.541C99.0899 161.884 98.8501 162.376 98.7175 163.017ZM97.5407 163.017C97.7328 162.088 98.128 161.354 98.7265 160.812C99.3577 160.271 100.093 160 100.933 160C101.762 160 102.385 160.271 102.804 160.812C103.187 161.365 103.283 162.099 103.093 163.017C102.903 163.934 102.504 164.663 101.894 165.204C101.276 165.735 100.542 166 99.691 166C98.8293 166 98.2045 165.735 97.8174 165.204C97.4408 164.674 97.3486 163.945 97.5407 163.017Z" fill="#FEFEFE"/>
<path fill-rule="evenodd" clip-rule="evenodd" d="M84.8531 169.203L83.4888 171.75H85.1632L84.8531 169.203ZM84.823 168H85.7997L86.7378 174H85.4297L85.285 172.762H82.9477L82.3082 174H80.9995L84.1472 168.401C84.3071 168.134 84.5321 168 84.823 168Z" fill="#FEFEFE"/>
<path fill-rule="evenodd" clip-rule="evenodd" d="M89.2182 168L88.4619 171.654C88.368 172.108 88.384 172.442 88.5093 172.657C88.6482 172.861 88.916 172.963 89.3127 172.963C89.6978 172.963 90.008 172.861 90.2432 172.657C90.4665 172.453 90.6265 172.119 90.7228 171.654L91.4794 168H92.6856L91.9012 171.79C91.751 172.516 91.4334 173.065 90.9482 173.439C90.4964 173.813 89.88 174 89.0982 174C88.3161 174 87.7773 173.813 87.4808 173.439C87.1501 173.065 87.0598 172.516 87.21 171.79L87.8608 168.646C87.8961 168.476 87.9867 168.326 88.1328 168.195C88.2785 168.065 88.4364 168 88.6068 168H89.2182Z" fill="#FEFEFE"/>
<path fill-rule="evenodd" clip-rule="evenodd" d="M97.5939 171.895C97.401 172.558 97.0451 173.078 96.5257 173.453C95.9968 173.818 95.3622 174 94.6221 174C93.7604 174 93.1564 173.741 92.8109 173.221C92.4608 172.724 92.3866 171.989 92.5876 171.017C92.7936 170.022 93.1801 169.276 93.7471 168.779C94.3298 168.26 95.0687 168 95.9636 168C96.693 168 97.2352 168.182 97.5908 168.547C97.9261 168.901 98.0553 169.398 97.9781 170.039H97.2652C97 170.039 96.8363 169.923 96.7739 169.691C96.7262 169.547 96.6586 169.42 96.5711 169.309C96.3845 169.144 96.1086 169.061 95.7443 169.061C95.2359 169.061 94.809 169.226 94.4644 169.558C94.1307 169.889 93.8971 170.376 93.7645 171.017C93.6365 171.636 93.6709 172.11 93.8673 172.442C94.0504 172.784 94.3962 172.956 94.9043 172.956C95.2579 172.956 95.5693 172.867 95.8379 172.691C96.0823 172.525 96.2863 172.26 96.4503 171.895H97.5939Z" fill="#FEFEFE"/>
<path fill-rule="evenodd" clip-rule="evenodd" d="M98.9978 174L100.019 169.064H98.2402L98.3305 168.628C98.3667 168.453 98.4588 168.305 98.6059 168.183C98.7531 168.061 98.9142 168 99.0883 168H103.24L103.019 169.064H101.258L100.236 174H98.9978Z" fill="#FEFEFE"/>
<path fill-rule="evenodd" clip-rule="evenodd" d="M102.404 174L103.516 168.628C103.552 168.453 103.644 168.305 103.791 168.183C103.939 168.061 104.1 168 104.274 168H104.884L103.643 174H102.404Z" fill="#FEFEFE"/>
<path fill-rule="evenodd" clip-rule="evenodd" d="M105.974 171.017C105.841 171.658 105.879 172.143 106.087 172.475C106.292 172.818 106.648 172.989 107.157 172.989C107.654 172.989 108.082 172.818 108.44 172.475C108.8 172.121 109.045 171.636 109.173 171.017C109.301 170.398 109.259 169.906 109.047 169.541C108.831 169.199 108.474 169.028 107.977 169.028C107.468 169.028 107.041 169.199 106.694 169.541C106.347 169.884 106.107 170.376 105.974 171.017ZM104.797 171.017C104.989 170.088 105.385 169.354 105.983 168.812C106.614 168.271 107.35 168 108.189 168C109.018 168 109.642 168.271 110.06 168.812C110.443 169.365 110.539 170.099 110.349 171.017C110.16 171.934 109.76 172.663 109.151 173.204C108.533 173.735 107.798 174 106.947 174C106.086 174 105.461 173.735 105.074 173.204C104.697 172.674 104.605 171.945 104.797 171.017Z" fill="#FEFEFE"/>
<path fill-rule="evenodd" clip-rule="evenodd" d="M110.253 174L111.362 168.643C111.398 168.469 111.489 168.322 111.636 168.2C111.783 168.078 111.945 168.011 112.121 168H112.783L114.364 172.122L115.217 168H116.435L115.193 174H113.923L112.324 169.878L111.471 174H110.253Z" fill="#FEFEFE"/>
<path fill-rule="evenodd" clip-rule="evenodd" d="M116.086 172.094H117.247C117.222 172.425 117.301 172.657 117.484 172.79C117.672 172.945 117.96 173.022 118.347 173.022C118.69 173.022 118.962 172.961 119.164 172.84C119.366 172.718 119.491 172.541 119.539 172.309C119.612 171.955 119.174 171.669 118.225 171.448L118.196 171.431L118.07 171.398C117.532 171.276 117.182 171.149 117.022 171.017C116.826 170.895 116.708 170.718 116.668 170.486C116.598 170.287 116.596 170.033 116.66 169.724C116.772 169.182 117.048 168.757 117.488 168.447C117.925 168.149 118.502 168 119.221 168C119.895 168 120.382 168.155 120.683 168.464C120.988 168.806 121.094 169.254 121.002 169.806H120.339C120.084 169.806 119.926 169.69 119.864 169.458C119.832 169.348 119.774 169.254 119.69 169.176C119.521 169.033 119.265 168.961 118.923 168.961C118.591 168.961 118.341 169.022 118.172 169.144C117.981 169.265 117.863 169.436 117.817 169.657C117.755 169.956 118.03 170.177 118.641 170.32C118.817 170.376 118.948 170.409 119.035 170.42C119.22 170.486 119.383 170.538 119.524 170.577C119.666 170.616 119.778 170.646 119.862 170.668C120.003 170.735 120.144 170.801 120.285 170.867C120.479 171 120.614 171.171 120.692 171.381C120.766 171.613 120.774 171.868 120.717 172.143C120.594 172.74 120.298 173.204 119.832 173.536C119.37 173.845 118.775 174 118.045 174C117.294 174 116.763 173.84 116.454 173.519C116.112 173.199 115.989 172.724 116.086 172.094Z" fill="#FEFEFE"/>
<path fill-rule="evenodd" clip-rule="evenodd" d="M14.7842 164.327C14.39 166.274 13.7505 167.641 12.8779 168.394C11.9735 169.197 10.6956 169.605 9.07999 169.605H9.05976L6.60208 169.599L8.72324 159.119L11.8679 159.125C13.267 159.128 14.16 159.504 14.6056 160.287C15.1014 161.104 15.1614 162.463 14.7842 164.327ZM18.8205 157.397C17.6167 155.82 15.4898 155.017 12.4986 155.011L7.16138 155H7.15464C6.50301 155 5.89906 155.219 5.35976 155.651C4.8165 156.087 4.47603 156.63 4.3479 157.263L0.999756 173.807L7.86906 173.821H7.95231C9.73301 173.821 11.0602 173.7 12.0028 173.452C12.9991 173.2 13.9865 172.762 14.9365 172.15C16.0677 171.426 17.0853 170.366 17.9695 168.987C18.7567 167.669 19.3237 166.171 19.6551 164.535C20.2816 161.439 20.0037 159.041 18.8205 157.397Z" fill="#FEFEFE"/>
<path fill-rule="evenodd" clip-rule="evenodd" d="M32.7402 160.895C32.6053 161.563 32.3271 162.035 31.8892 162.339C31.4374 162.654 30.7753 162.814 29.9209 162.814H29.9069L26.0471 162.806L26.7964 159.104L31.0737 159.114C31.7762 159.115 32.2574 159.264 32.503 159.558L32.5371 159.595C32.7955 159.847 32.8637 160.285 32.7402 160.895ZM34.9809 172.195C34.9951 172.02 35.0099 171.822 35.0534 171.609L35.1939 170.911L35.516 168.785C35.7102 167.437 35.6795 166.486 35.4288 165.893C35.279 165.502 35.0239 165.167 34.6667 164.89C35.2853 164.571 35.8039 164.161 36.2116 163.667C36.9195 162.879 37.4002 161.877 37.6409 160.689C38.009 158.87 37.7146 157.447 36.7639 156.457C35.8539 155.517 34.3539 155.057 32.1788 155.052L25.116 155.037H25.1109C24.4588 155.037 23.8546 155.257 23.3148 155.689C22.7713 156.125 22.4311 156.667 22.3027 157.301L18.9546 173.844L23.8113 173.854L25.2148 166.92L28.8448 166.927C29.8848 166.929 30.276 167.145 30.4216 167.292C30.5558 167.547 30.6734 168.073 30.5332 169.137L30.2023 171.037C30.1546 171.273 30.1113 171.666 30.0723 172.222C30.0234 172.671 30.0655 173.107 30.1969 173.518L30.309 173.868L35.7004 173.881C35.7004 173.881 34.9118 173.048 34.9809 172.195Z" fill="#FEFEFE"/>
<path fill-rule="evenodd" clip-rule="evenodd" d="M43.4922 155.076C42.8401 155.076 42.2359 155.295 41.6964 155.728C41.1529 156.164 40.8127 156.706 40.6843 157.34L37.3359 173.883L42.1927 173.893L45.9999 155.081L43.4976 155.076H43.4922Z" fill="#FEFEFE"/>
<path fill-rule="evenodd" clip-rule="evenodd" d="M61.5885 155.114H61.5802C60.3862 155.114 59.5034 155.678 59.0257 156.744L53.789 167.117L52.6657 155.095L47.3564 155.084L50.3283 173.91L54.7218 173.919L65.1941 155.122L61.5885 155.114Z" fill="#FEFEFE"/>
<path fill-rule="evenodd" clip-rule="evenodd" d="M79.7164 159.216L80.5383 155.154L68.385 155.128H68.3797C67.7276 155.128 67.1236 155.347 66.5839 155.78C66.0406 156.216 65.7004 156.758 65.572 157.392L62.2236 173.935L76.7308 173.965L77.6055 169.645L67.9006 169.625L68.6181 166.079L73.4888 166.089H73.4941C74.1467 166.089 74.7506 165.87 75.2897 165.437C75.8329 165.002 76.1736 164.46 76.302 163.825L76.6653 162.032L69.4404 162.017L70.0118 159.195L79.7164 159.216Z" fill="#FEFEFE"/>
<g clip-path="url(#clip0)">
<path d="M91.7789 190.595H7.94559C7.63976 190.595 7.33726 190.595 7.03309 190.596C6.77809 190.598 6.52476 190.603 6.26726 190.607C5.70809 190.614 5.14976 190.662 4.59726 190.753C4.04642 190.846 3.51226 191.02 3.01392 191.27C2.51476 191.523 2.05976 191.85 1.66392 192.242C1.26642 192.633 0.934756 193.085 0.682256 193.58C0.428923 194.075 0.253923 194.603 0.161423 195.15C0.0689225 195.696 0.0197559 196.248 0.0122559 196.802C0.00392253 197.054 0.00392253 197.309 -0.000244141 197.561V216.632C0.00392253 216.887 0.00475586 217.136 0.0122559 217.392C0.0189225 217.945 0.0689225 218.498 0.162256 219.044C0.253923 219.591 0.428923 220.121 0.682256 220.615C0.934756 221.108 1.26642 221.558 1.66476 221.946C2.05892 222.34 2.51392 222.668 3.01309 222.919C3.51226 223.17 4.04642 223.346 4.59726 223.439C5.14976 223.53 5.70809 223.578 6.26726 223.585C6.52559 223.591 6.77809 223.594 7.03309 223.594C7.33809 223.596 7.63976 223.596 7.94559 223.596H91.7789C92.0781 223.596 92.3823 223.596 92.6823 223.594C92.9356 223.594 93.1964 223.591 93.4506 223.586C94.0089 223.578 94.5656 223.53 95.1173 223.44C95.6698 223.345 96.2064 223.169 96.7073 222.919C97.2056 222.668 97.6606 222.34 98.0548 221.946C98.4514 221.556 98.7839 221.107 99.0398 220.615C99.2914 220.12 99.4648 219.59 99.5556 219.044C99.6481 218.498 99.6998 217.946 99.7098 217.392C99.7131 217.136 99.7131 216.887 99.7131 216.632C99.7198 216.331 99.7198 216.034 99.7198 215.729V198.462C99.7198 198.16 99.7198 197.86 99.7131 197.561C99.7131 197.309 99.7131 197.054 99.7098 196.802C99.6998 196.248 99.6481 195.697 99.5556 195.15C99.4648 194.603 99.2906 194.075 99.0398 193.58C98.5248 192.587 97.7098 191.779 96.7073 191.27C96.2064 191.02 95.6698 190.846 95.1173 190.752C94.5664 190.662 94.0089 190.613 93.4506 190.607C93.1964 190.603 92.9356 190.598 92.6823 190.596C92.3823 190.595 92.0781 190.595 91.7789 190.595V190.595Z" fill="black"/>
<path d="M7.03729 222.873C6.78313 222.873 6.53563 222.87 6.28396 222.865C5.76146 222.857 5.24146 222.813 4.72563 222.729C4.24563 222.647 3.78063 222.495 3.34563 222.277C2.91479 222.062 2.52063 221.778 2.18146 221.439C1.83646 221.103 1.54813 220.714 1.33146 220.286C1.11063 219.857 0.957295 219.395 0.878128 218.919C0.792295 218.408 0.746462 217.891 0.739795 217.373C0.733962 217.199 0.727295 216.619 0.727295 216.619V197.562C0.727295 197.562 0.734795 196.991 0.739795 196.823C0.745628 196.305 0.792295 195.79 0.877295 195.279C0.957295 194.801 1.10979 194.339 1.33063 193.908C1.54729 193.481 1.83313 193.091 2.17646 192.755C2.51896 192.415 2.91313 192.13 3.34479 191.911C3.77896 191.694 4.24313 191.543 4.72313 191.462C5.23979 191.378 5.76229 191.333 6.28563 191.326L7.03729 191.317H92.6781L93.439 191.327C93.9581 191.333 94.4756 191.378 94.9873 191.461C95.4715 191.543 95.9415 191.695 96.3798 191.913C97.2448 192.354 97.949 193.052 98.3923 193.91C98.6098 194.339 98.7598 194.797 98.8381 195.27C98.9248 195.785 98.9731 196.305 98.9831 196.827C98.9856 197.06 98.9856 197.312 98.9856 197.561C98.9923 197.87 98.9923 198.165 98.9923 198.462V215.728C98.9923 216.028 98.9923 216.321 98.9856 216.615C98.9856 216.883 98.9856 217.129 98.9823 217.382C98.9731 217.894 98.9256 218.405 98.8398 218.911C98.7623 219.391 98.6106 219.856 98.3898 220.289C98.1706 220.712 97.8848 221.097 97.544 221.432C97.2031 221.774 96.8098 222.059 96.3773 222.276C95.9398 222.495 95.4715 222.648 94.9873 222.729C94.4723 222.813 93.9515 222.858 93.4298 222.864C93.1856 222.87 92.9306 222.873 92.6823 222.873L91.779 222.874L7.03729 222.873V222.873Z" fill="white"/>
<path d="M20.8305 207.004C20.8397 206.288 21.0322 205.585 21.3889 204.963C21.7464 204.34 22.2564 203.816 22.8722 203.442C22.4805 202.889 21.9647 202.433 21.3639 202.112C20.7639 201.79 20.0964 201.612 19.4139 201.59C17.9589 201.439 16.548 202.452 15.8064 202.452C15.0505 202.452 13.9089 201.605 12.6797 201.631C11.8847 201.656 11.1089 201.885 10.4297 202.295C9.75054 202.705 9.19054 203.282 8.80304 203.97C7.12804 206.843 8.37804 211.065 9.98304 213.388C10.7864 214.525 11.7247 215.794 12.953 215.75C14.1555 215.7 14.6039 214.991 16.0555 214.991C17.4922 214.991 17.9139 215.75 19.1672 215.721C20.4564 215.7 21.2697 214.579 22.0447 213.431C22.6214 212.621 23.0655 211.725 23.3605 210.778C22.6105 210.464 21.9714 209.939 21.5214 209.268C21.0714 208.596 20.8314 207.809 20.8305 207.004V207.004ZM18.463 200.063C19.1664 199.228 19.513 198.153 19.4297 197.069C18.3547 197.181 17.363 197.689 16.6497 198.492C16.3014 198.885 16.0339 199.342 15.8639 199.837C15.6939 200.332 15.6239 200.854 15.6589 201.377C16.1955 201.382 16.7272 201.266 17.213 201.038C17.6989 200.812 18.1264 200.477 18.463 200.063V200.063ZM35.2514 212.985H31.308L30.3605 215.754H28.6897L32.4264 205.509H34.1622L37.898 215.754H36.1989L35.2522 212.985H35.2514ZM31.7155 211.706H34.8422L33.3005 207.214H33.258L31.7164 211.707L31.7155 211.706ZM45.9664 212.02C45.9664 214.341 44.7114 215.832 42.8172 215.832C42.338 215.857 41.8605 215.747 41.4405 215.516C41.0214 215.285 40.6755 214.942 40.4439 214.526H40.408V218.225H38.858V208.285H40.358V209.527H40.3855C40.628 209.113 40.9797 208.771 41.4022 208.538C41.8255 208.306 42.3047 208.192 42.788 208.207C44.703 208.207 45.9655 209.705 45.9655 212.02H45.9664ZM44.3747 212.02C44.3747 210.508 43.5847 209.514 42.3805 209.514C41.1972 209.514 40.4014 210.528 40.4014 212.02C40.4014 213.525 41.1972 214.533 42.3805 214.533C43.5847 214.533 44.3739 213.546 44.3739 212.02H44.3747ZM54.2705 212.02C54.2705 214.341 53.0155 215.832 51.1214 215.832C50.6422 215.857 50.1647 215.747 49.7447 215.516C49.3247 215.285 48.9797 214.942 48.748 214.526H48.7122V218.225H47.163V208.285H48.6622V209.527H48.6905C48.933 209.113 49.2847 208.771 49.7072 208.538C50.1305 208.306 50.6097 208.192 51.093 208.207C53.008 208.207 54.2705 209.705 54.2705 212.02ZM52.6789 212.02C52.6789 210.508 51.8889 209.514 50.6847 209.514C49.5014 209.514 48.7055 210.528 48.7055 212.02C48.7055 213.525 49.5014 214.533 50.6847 214.533C51.8889 214.533 52.678 213.546 52.678 212.02H52.6789ZM59.758 212.899C59.873 213.916 60.8697 214.582 62.2322 214.582C63.5372 214.582 64.4764 213.916 64.4764 212.999C64.4764 212.204 63.9097 211.729 62.5689 211.402L61.2272 211.082C59.3272 210.628 58.4455 209.748 58.4455 208.32C58.4455 206.553 60.0014 205.338 62.2097 205.338C64.3972 205.338 65.8964 206.553 65.9472 208.32H64.383C64.2897 207.298 63.4355 206.681 62.188 206.681C60.9405 206.681 60.0872 207.305 60.0872 208.213C60.0872 208.938 60.6322 209.364 61.9655 209.69L63.1055 209.967C65.2289 210.465 66.1105 211.309 66.1105 212.808C66.1105 214.724 64.5689 215.925 62.1164 215.925C59.8214 215.925 58.2722 214.753 58.1722 212.899H59.7572H59.758ZM69.4555 206.517V208.284H70.8897V209.499H69.4555V213.616C69.4555 214.257 69.7422 214.554 70.373 214.554C70.5439 214.551 70.7139 214.54 70.883 214.519V215.726C70.5997 215.779 70.3105 215.802 70.0222 215.797C68.4947 215.797 67.8997 215.228 67.8997 213.781V209.499H66.8022V208.284H67.8997V206.517H69.4555ZM71.7197 212.02C71.7197 209.67 73.118 208.193 75.298 208.193C77.4855 208.193 78.8772 209.67 78.8772 212.02C78.8772 214.376 77.4939 215.846 75.298 215.846C73.1047 215.846 71.7197 214.376 71.7197 212.02ZM77.2997 212.02C77.2997 210.408 76.553 209.456 75.298 209.456C74.0439 209.456 73.2972 210.415 73.2972 212.02C73.2972 213.639 74.0439 214.582 75.298 214.582C76.553 214.582 77.2997 213.639 77.2997 212.02ZM80.1547 208.284H81.6314V209.556H81.6672C81.7672 209.16 82.0022 208.808 82.3322 208.562C82.663 208.317 83.0689 208.191 83.4822 208.207C83.6605 208.206 83.838 208.225 84.0122 208.265V209.698C83.7872 209.63 83.5522 209.599 83.3172 209.605C83.0922 209.597 82.8672 209.636 82.6589 209.721C82.4505 209.805 82.2639 209.934 82.1105 210.097C81.9572 210.26 81.8414 210.454 81.7714 210.666C81.7005 210.878 81.6772 211.103 81.703 211.324V215.754H80.1547V208.285V208.284ZM91.153 213.56C90.9447 214.916 89.6105 215.846 87.9039 215.846C85.7097 215.846 84.3472 214.391 84.3472 212.055C84.3472 209.712 85.7164 208.193 87.8389 208.193C89.9264 208.193 91.2389 209.612 91.2389 211.877V212.403H85.9105V212.495C85.8855 212.77 85.9205 213.047 86.0122 213.308C86.1039 213.568 86.2505 213.806 86.443 214.007C86.6347 214.206 86.8672 214.364 87.1255 214.469C87.3839 214.573 87.6614 214.621 87.9397 214.61C88.3055 214.644 88.673 214.561 88.9872 214.371C89.3014 214.181 89.5447 213.898 89.6822 213.56H91.153V213.56ZM85.918 211.331H89.6897C89.7039 211.084 89.6655 210.836 89.5789 210.605C89.4914 210.372 89.3564 210.16 89.183 209.983C89.0089 209.805 88.7997 209.664 88.5689 209.571C88.3372 209.476 88.0889 209.43 87.8389 209.435C87.5872 209.434 87.3372 209.481 87.1039 209.576C86.8705 209.671 86.658 209.811 86.4797 209.986C86.3005 210.163 86.1589 210.372 86.063 210.603C85.9664 210.834 85.9172 211.082 85.918 211.331ZM31.5214 197.798C31.8464 197.775 32.1714 197.823 32.4755 197.941C32.7789 198.057 33.0522 198.239 33.2755 198.473C33.5005 198.707 33.6689 198.987 33.7697 199.294C33.8705 199.6 33.9022 199.925 33.8614 200.244C33.8614 201.816 33.003 202.721 31.5214 202.721H29.7255V197.798H31.5214ZM30.498 202.024H31.4355C31.6672 202.038 31.8997 202 32.1147 201.915C32.3305 201.828 32.523 201.695 32.6814 201.526C32.838 201.356 32.9547 201.155 33.023 200.934C33.0914 200.714 33.1089 200.482 33.0747 200.254C33.1064 200.028 33.0872 199.797 33.0172 199.578C32.948 199.36 32.8314 199.159 32.6747 198.992C32.518 198.823 32.3247 198.691 32.1114 198.605C31.8972 198.519 31.6664 198.482 31.4355 198.494H30.498V202.025V202.024ZM34.733 200.862C34.7105 200.618 34.7389 200.371 34.8164 200.138C34.8947 199.906 35.0214 199.692 35.188 199.511C35.3547 199.329 35.558 199.184 35.7839 199.085C36.0105 198.986 36.2555 198.934 36.503 198.934C36.7514 198.934 36.9964 198.986 37.223 199.085C37.4489 199.184 37.6522 199.329 37.8189 199.511C37.9855 199.692 38.1122 199.907 38.1905 200.138C38.268 200.371 38.2964 200.617 38.273 200.862C38.2972 201.106 38.2689 201.353 38.1914 201.585C38.113 201.819 37.9872 202.033 37.8205 202.215C37.6539 202.396 37.4505 202.542 37.2239 202.641C36.9964 202.74 36.7514 202.792 36.5039 202.792C36.2555 202.792 36.0097 202.741 35.783 202.641C35.5564 202.542 35.353 202.397 35.1864 202.215C35.0197 202.033 34.8939 201.819 34.8155 201.585C34.7372 201.353 34.7097 201.106 34.7339 200.862H34.733ZM37.5114 200.862C37.5114 200.057 37.1455 199.586 36.5047 199.586C35.8605 199.586 35.4989 200.056 35.4989 200.862C35.4989 201.674 35.8605 202.141 36.5047 202.141C37.1464 202.141 37.5114 201.67 37.5114 200.862ZM42.9772 202.721H42.2089L41.4339 199.985H41.3755L40.603 202.721H39.8422L38.8072 199.006H39.5589L40.2305 201.84H40.2864L41.0572 199.006H41.768L42.5397 201.84H42.598L43.2672 199.006H44.008L42.9772 202.721V202.721ZM44.8772 199.006H45.5905V199.596H45.6455C45.7397 199.384 45.898 199.206 46.0989 199.088C46.2989 198.969 46.5322 198.915 46.7655 198.934C46.9489 198.921 47.1322 198.948 47.3022 199.014C47.4722 199.08 47.6255 199.183 47.7505 199.316C47.8755 199.449 47.968 199.607 48.0222 199.78C48.0772 199.954 48.0914 200.137 48.0639 200.317V202.721H47.3239V200.5C47.3239 199.903 47.0622 199.606 46.5139 199.606C46.3905 199.6 46.2664 199.621 46.1514 199.667C46.0364 199.713 45.933 199.784 45.848 199.874C45.7622 199.963 45.698 200.069 45.658 200.185C45.6189 200.302 45.6047 200.425 45.618 200.548V202.721H44.8772V199.006V199.006ZM49.2447 197.556H49.9847V202.721H49.2447V197.556ZM51.0147 200.862C50.9914 200.618 51.0197 200.371 51.098 200.138C51.1755 199.906 51.3022 199.692 51.4689 199.511C51.6355 199.329 51.8389 199.184 52.0655 199.085C52.2922 198.986 52.5372 198.934 52.7847 198.934C53.0322 198.934 53.2772 198.986 53.5039 199.085C53.7305 199.184 53.9339 199.329 54.1005 199.511C54.2672 199.692 54.393 199.907 54.4714 200.138C54.5497 200.371 54.578 200.617 54.5547 200.862C54.578 201.106 54.5505 201.353 54.4722 201.586C54.3947 201.819 54.268 202.033 54.1014 202.215C53.9347 202.396 53.7314 202.542 53.5047 202.641C53.278 202.74 53.0322 202.792 52.7847 202.792C52.5364 202.792 52.2914 202.741 52.0647 202.641C51.838 202.542 51.6347 202.397 51.468 202.215C51.3014 202.033 51.1747 201.819 51.0964 201.586C51.0189 201.353 50.9905 201.106 51.0147 200.862V200.862ZM53.7922 200.862C53.7922 200.057 53.4264 199.586 52.7855 199.586C52.1422 199.586 51.7797 200.056 51.7797 200.862C51.7797 201.674 52.1422 202.141 52.7855 202.141C53.4272 202.141 53.7922 201.67 53.7922 200.862ZM55.333 201.67C55.333 201.002 55.8364 200.616 56.7297 200.562L57.7464 200.504V200.182C57.7464 199.79 57.4839 199.568 56.978 199.568C56.5639 199.568 56.278 199.719 56.1955 199.981H55.4789C55.5539 199.343 56.1605 198.934 57.0122 198.934C57.9522 198.934 58.483 199.397 58.483 200.183V202.721H57.7705V202.198H57.7122C57.593 202.386 57.4255 202.538 57.228 202.641C57.0297 202.744 56.808 202.792 56.5847 202.782C56.4264 202.798 56.268 202.782 56.1172 202.733C55.9672 202.685 55.828 202.606 55.7097 202.501C55.5922 202.396 55.498 202.268 55.433 202.125C55.368 201.982 55.3347 201.827 55.333 201.67V201.67ZM57.7455 201.353V201.043L56.8289 201.1C56.3122 201.134 56.0789 201.308 56.0789 201.637C56.0789 201.971 56.3714 202.165 56.7739 202.165C56.8922 202.177 57.0114 202.165 57.1247 202.13C57.238 202.095 57.343 202.039 57.4339 201.962C57.5247 201.887 57.5989 201.794 57.6522 201.689C57.7064 201.585 57.738 201.47 57.7455 201.353V201.353ZM59.4564 200.862C59.4564 199.688 60.0664 198.945 61.0147 198.945C61.248 198.934 61.4814 198.989 61.6847 199.105C61.8889 199.22 62.0555 199.391 62.1647 199.596H62.2205V197.556H62.9605V202.721H62.2514V202.134H62.193C62.0747 202.338 61.9022 202.506 61.6947 202.621C61.4864 202.735 61.2514 202.791 61.0139 202.782C60.0597 202.782 59.4564 202.038 59.4564 200.862V200.862ZM60.2214 200.862C60.2214 201.65 60.5964 202.124 61.2239 202.124C61.8489 202.124 62.2339 201.643 62.2339 200.865C62.2339 200.09 61.8439 199.603 61.2239 199.603C60.6005 199.603 60.2214 200.081 60.2214 200.862ZM66.0247 200.862C66.0014 200.618 66.0297 200.371 66.108 200.138C66.1864 199.906 66.3122 199.692 66.4789 199.511C66.6455 199.329 66.8489 199.184 67.0755 199.085C67.3022 198.986 67.5472 198.934 67.7947 198.934C68.0422 198.934 68.2872 198.986 68.5139 199.085C68.7405 199.184 68.943 199.329 69.1097 199.511C69.2764 199.692 69.403 199.907 69.4814 200.138C69.5597 200.371 69.588 200.617 69.5647 200.862C69.588 201.106 69.5605 201.353 69.4822 201.585C69.4039 201.819 69.278 202.033 69.1114 202.215C68.9447 202.396 68.7414 202.542 68.5147 202.641C68.288 202.74 68.0422 202.792 67.7947 202.792C67.5464 202.792 67.3014 202.741 67.0747 202.641C66.848 202.542 66.6447 202.397 66.478 202.215C66.3114 202.033 66.1847 201.819 66.1072 201.585C66.0289 201.353 66.0005 201.106 66.0247 200.862V200.862ZM68.8022 200.862C68.8022 200.057 68.4372 199.586 67.7955 199.586C67.1522 199.586 66.7897 200.056 66.7897 200.862C66.7897 201.674 67.1522 202.141 67.7955 202.141C68.4372 202.141 68.8022 201.67 68.8022 200.862ZM70.558 199.006H71.2705V199.596H71.3255C71.4197 199.384 71.578 199.206 71.7789 199.088C71.9789 198.969 72.2122 198.915 72.4455 198.934C72.6289 198.921 72.8122 198.948 72.9822 199.014C73.1522 199.08 73.3055 199.183 73.4305 199.316C73.5555 199.449 73.648 199.607 73.7022 199.78C73.7572 199.954 73.7714 200.137 73.7439 200.317V202.721H73.0039V200.5C73.0039 199.903 72.7422 199.606 72.1939 199.606C72.0705 199.6 71.9464 199.621 71.8314 199.667C71.7164 199.713 71.613 199.784 71.528 199.874C71.4422 199.963 71.378 200.069 71.338 200.185C71.2989 200.302 71.2847 200.425 71.298 200.548V202.721H70.5572V199.006H70.558ZM77.9289 198.081V199.023H78.7422V199.64H77.9289V201.551C77.9289 201.94 78.0914 202.11 78.4597 202.11C78.5539 202.11 78.648 202.104 78.7422 202.094V202.704C78.6089 202.727 78.4739 202.74 78.3389 202.741C77.5155 202.741 77.1872 202.454 77.1872 201.738V199.64H76.5922V199.023H77.188V198.081H77.9297H77.9289ZM79.7539 197.556H80.4872V199.602H80.5455C80.6447 199.389 80.8072 199.21 81.0122 199.091C81.2164 198.972 81.4539 198.918 81.6905 198.937C81.8722 198.927 82.0539 198.958 82.2222 199.025C82.3905 199.093 82.5422 199.197 82.6655 199.329C82.7889 199.461 82.8814 199.619 82.9364 199.791C82.9914 199.963 83.0072 200.144 82.9822 200.322V202.721H82.2414V200.503C82.2414 199.91 81.9622 199.61 81.4389 199.61C81.3114 199.599 81.1839 199.616 81.0639 199.66C80.9439 199.704 80.8355 199.773 80.7455 199.863C80.6555 199.953 80.5864 200.061 80.543 200.18C80.4997 200.298 80.483 200.425 80.4939 200.551V202.721H79.7539V197.556ZM87.3005 201.717C87.2005 202.057 86.9822 202.351 86.6847 202.547C86.388 202.744 86.0305 202.831 85.6747 202.792C85.428 202.799 85.1822 202.752 84.9547 202.655C84.728 202.558 84.5247 202.414 84.3597 202.231C84.1947 202.048 84.0722 201.833 83.9997 201.599C83.9272 201.364 83.908 201.118 83.9414 200.875C83.9089 200.632 83.9289 200.384 84.0005 200.149C84.073 199.915 84.1955 199.698 84.3589 199.514C84.523 199.33 84.7255 199.183 84.9522 199.083C85.178 198.983 85.4239 198.932 85.6714 198.935C86.7155 198.935 87.3455 199.64 87.3455 200.807V201.063H84.6955V201.104C84.6839 201.241 84.7014 201.377 84.7464 201.507C84.7922 201.636 84.8639 201.755 84.958 201.855C85.0522 201.955 85.1664 202.035 85.293 202.089C85.4197 202.142 85.5572 202.169 85.6955 202.168C85.8722 202.189 86.0522 202.158 86.2105 202.077C86.3697 201.997 86.5014 201.872 86.588 201.718H87.3005V201.717ZM84.6955 200.521H86.5914C86.6005 200.396 86.583 200.27 86.5414 200.153C86.4989 200.035 86.4314 199.927 86.3447 199.837C86.258 199.746 86.1522 199.675 86.0355 199.627C85.9189 199.579 85.7939 199.555 85.6672 199.558C85.5397 199.557 85.4122 199.581 85.2939 199.628C85.1747 199.676 85.0672 199.747 84.9764 199.836C84.8864 199.926 84.8147 200.033 84.7664 200.15C84.718 200.268 84.6939 200.394 84.6955 200.521V200.521Z" fill="black"/>
</g>
<path fill-rule="evenodd" clip-rule="evenodd" d="M97.0349 260.723H4.44506C2.40304 260.723 0.73999 258.863 0.73999 256.598V231.848C0.73999 229.574 2.40304 227.723 4.44506 227.723H97.0349C99.0751 227.723 100.74 229.574 100.74 231.848V256.598C100.74 258.863 99.0751 260.723 97.0349 260.723Z" fill="black"/>
<path fill-rule="evenodd" clip-rule="evenodd" d="M97.0349 228.383C98.7476 228.383 100.149 229.941 100.149 231.848V256.598C100.149 258.505 98.7568 260.062 97.0349 260.062H4.44506C2.73234 260.062 1.33052 258.505 1.33052 256.598V231.848C1.33052 229.941 2.72314 228.383 4.44506 228.383C4.44506 228.383 97.0349 228.383 97.0349 228.383ZM97.0349 227.723H4.44506C2.40304 227.723 0.73999 229.583 0.73999 231.848V256.598C0.73999 258.871 2.40304 260.723 4.44506 260.723H97.0349C99.0751 260.723 100.74 258.871 100.74 256.598V231.848C100.74 229.583 99.0751 227.723 97.0349 227.723Z" fill="#A6A6A6"/>
<path d="M53.4208 238.639C52.753 238.639 52.1901 238.378 51.7449 237.863C51.3033 237.363 51.0568 236.674 51.0679 235.971C51.0679 235.22 51.296 234.584 51.7449 234.08C52.1882 233.566 52.7512 233.304 53.4189 233.304C54.0794 233.304 54.6423 233.566 55.0949 234.08C55.5437 234.6 55.7719 235.236 55.7719 235.971C55.7645 236.724 55.5364 237.359 55.0949 237.861C54.6515 238.38 54.0886 238.639 53.4208 238.639ZM33.5507 238.639C32.8976 238.639 32.331 238.382 31.8674 237.874C31.4075 237.368 31.1738 236.728 31.1738 235.973C31.1738 235.218 31.4075 234.578 31.8674 234.072C32.3218 233.563 32.8884 233.306 33.5507 233.306C33.8744 233.306 34.189 233.378 34.4907 233.524C34.7869 233.666 35.0279 233.86 35.2064 234.096L35.2505 234.156L34.752 234.703L34.7004 234.635C34.419 234.261 34.0419 234.078 33.5433 234.078C33.0981 234.078 32.7099 234.255 32.3898 234.605C32.0679 234.956 31.9042 235.417 31.9042 235.975C31.9042 236.532 32.0679 236.993 32.3898 237.345C32.7099 237.695 33.0981 237.872 33.5433 237.872C34.0179 237.872 34.4171 237.695 34.728 237.345C34.912 237.139 35.0261 236.851 35.0665 236.487H33.4679V235.718H35.7527L35.7619 235.787C35.7785 235.917 35.795 236.051 35.795 236.174C35.795 236.884 35.6037 237.458 35.2247 237.882C34.7943 238.384 34.2313 238.639 33.5507 238.639ZM59.97 238.53H59.2654L57.1075 234.668L57.1259 235.364V238.528H56.4213V233.415H57.2252L57.2473 233.454L59.2764 237.092L59.258 236.399V233.415H59.97V238.53V238.53ZM48.1263 238.53H47.4125V234.185H46.1744V233.415H49.3625V234.185H48.1244V238.53H48.1263ZM45.5931 238.53H44.8811V233.415H45.5931V238.53ZM41.5918 238.53H40.8798V234.185H39.6418V233.415H42.8299V234.185H41.5918V238.53ZM39.191 238.522H36.461V233.415H39.191V234.185H37.1748V235.588H38.9942V236.349H37.1748V237.752H39.191V238.522ZM52.2673 237.335C52.5856 237.691 52.9719 237.87 53.4208 237.87C53.8825 237.87 54.2597 237.695 54.5743 237.335C54.887 236.985 55.0452 236.526 55.0452 235.973C55.0452 235.419 54.887 234.958 54.5761 234.611C54.2578 234.255 53.8697 234.076 53.4226 234.076C52.9609 234.076 52.5837 234.251 52.271 234.611C51.9583 234.96 51.8 235.419 51.8 235.973C51.8 236.526 51.9564 236.987 52.2673 237.335Z" fill="white"/>
<path fill-rule="evenodd" clip-rule="evenodd" d="M51.0009 245.671C49.2624 245.671 47.8532 247.146 47.8532 249.181C47.8532 251.197 49.2716 252.691 51.0009 252.691C52.7394 252.691 54.1485 251.205 54.1485 249.181C54.1485 247.146 52.7394 245.671 51.0009 245.671ZM51.0009 251.3C50.0498 251.3 49.2311 250.42 49.2311 249.173C49.2311 247.907 50.0516 247.045 51.0009 247.045C51.952 247.045 52.7706 247.907 52.7706 249.173C52.7725 250.428 51.952 251.3 51.0009 251.3ZM44.1334 245.671C42.395 245.671 40.9858 247.146 40.9858 249.181C40.9858 251.197 42.4041 252.691 44.1334 252.691C45.8719 252.691 47.2811 251.205 47.2811 249.181C47.2811 247.146 45.8701 245.671 44.1334 245.671ZM44.1334 251.3C43.1823 251.3 42.3637 250.42 42.3637 249.173C42.3637 247.907 43.1842 247.045 44.1334 247.045C45.0845 247.045 45.9032 247.907 45.9032 249.173C45.9032 250.428 45.0845 251.3 44.1334 251.3ZM35.9617 246.743V248.228H39.1498C39.0523 249.062 38.8058 249.677 38.4286 250.099C37.9614 250.621 37.2402 251.189 35.969 251.189C34.0098 251.189 32.4773 249.42 32.4773 247.229C32.4773 245.037 34.0098 243.268 35.969 243.268C37.0268 243.268 37.7976 243.735 38.3698 244.332L39.3117 243.278C38.5169 242.427 37.4591 241.775 35.9764 241.775C33.2886 241.775 31.0332 244.223 31.0332 247.22C31.0332 250.226 33.2868 252.666 35.9764 252.666C37.4279 252.666 38.5169 252.135 39.3779 251.135C40.2554 250.154 40.5332 248.77 40.5332 247.652C40.5332 247.305 40.5093 246.992 40.4596 246.727H35.9598C35.9617 246.725 35.9617 246.743 35.9617 246.743ZM69.3865 247.899C69.1234 247.111 68.3286 245.663 66.6987 245.663C65.0835 245.663 63.7405 247.085 63.7405 249.173C63.7405 251.144 65.0688 252.683 66.8551 252.683C68.29 252.683 69.1252 251.701 69.4692 251.125L68.4041 250.327C68.0509 250.913 67.5597 251.298 66.8624 251.298C66.1578 251.298 65.6648 250.94 65.3374 250.234L69.5336 248.29C69.5336 248.292 69.3865 247.899 69.3865 247.899ZM65.1074 249.072C65.0743 247.716 66.0493 247.027 66.7465 247.027C67.2966 247.027 67.7547 247.329 67.911 247.77L65.1074 249.072ZM61.6985 252.473H63.0764V242.161H61.6985V252.473ZM59.4357 246.451H59.3861C59.0752 246.037 58.4846 245.663 57.7304 245.663C56.1648 245.663 54.7225 247.204 54.7225 249.183C54.7225 251.154 56.1574 252.676 57.7304 252.676C58.4754 252.676 59.0752 252.3 59.3861 251.878H59.4357V252.382C59.4357 253.722 58.7955 254.444 57.7635 254.444C56.9191 254.444 56.3948 253.765 56.1814 253.197L54.9838 253.757C55.3278 254.682 56.2458 255.828 57.7616 255.828C59.3769 255.828 60.7456 254.765 60.7456 252.17V245.873H59.4431V246.451H59.4357ZM57.8536 251.3C56.9025 251.3 56.1078 250.411 56.1078 249.183C56.1078 247.945 56.9025 247.048 57.8536 247.048C58.7955 247.048 59.5259 247.955 59.5259 249.183C59.5351 250.411 58.7974 251.3 57.8536 251.3ZM75.8381 242.161H72.5433V252.473H73.9212V248.568H75.84C77.3651 248.568 78.8644 247.331 78.8644 245.369C78.8644 243.406 77.3706 242.161 75.8381 242.161ZM75.8786 247.128H73.9194V243.589H75.8786C76.9107 243.589 77.4938 244.542 77.4938 245.358C77.4938 246.167 76.9033 247.128 75.8786 247.128ZM84.387 245.653C83.3863 245.653 82.3542 246.148 81.9274 247.229L83.149 247.796C83.412 247.229 83.894 247.035 84.4036 247.035C85.1174 247.035 85.8385 247.512 85.8551 248.364V248.473C85.6086 248.317 85.0677 248.078 84.4202 248.078C83.1011 248.078 81.7637 248.885 81.7637 250.397C81.7637 251.781 82.8454 252.67 84.0504 252.67C84.9757 252.67 85.4853 252.203 85.8036 251.662H85.8533V252.46H87.1815V248.51C87.1815 246.671 85.96 245.653 84.387 245.653ZM84.2141 251.3C83.7634 251.3 83.1324 251.053 83.1324 250.42C83.1324 249.621 83.9198 249.319 84.5913 249.319C85.1983 249.319 85.4853 249.465 85.8459 249.667C85.7466 250.592 85.0475 251.292 84.2141 251.3ZM92.0272 245.873L90.4451 250.345H90.3954L88.7562 245.873H87.2735L89.7331 252.125L88.3313 255.6H89.7662L93.5504 245.873H92.0272ZM79.6242 252.473H81.0021V242.161H79.6242V252.473Z" fill="white"/>
<path fill-rule="evenodd" clip-rule="evenodd" d="M8.43724 233.938C8.22384 234.195 8.10059 234.588 8.10059 235.102V253.345C8.10059 253.859 8.22384 254.252 8.4446 254.499L8.50163 254.555L17.641 244.334V244.105L8.49427 233.882L8.43724 233.938Z" fill="url(#paint0_linear)"/>
<path fill-rule="evenodd" clip-rule="evenodd" d="M20.6821 247.751L17.6338 244.342V244.103L20.6821 240.694L20.7483 240.74L24.3541 243.031C25.3861 243.682 25.3861 244.756 24.3541 245.414L20.7483 247.706L20.6821 247.751Z" fill="url(#paint1_linear)"/>
<path fill-rule="evenodd" clip-rule="evenodd" d="M20.7482 247.706L17.6337 244.223L8.43726 254.507C8.77391 254.911 9.33869 254.956 9.96969 254.563L20.7482 247.706Z" fill="url(#paint2_linear)"/>
<path fill-rule="evenodd" clip-rule="evenodd" d="M20.7482 240.74L9.96969 233.893C9.33869 233.49 8.77207 233.545 8.43726 233.948L17.6337 244.223L20.7482 240.74Z" fill="url(#paint3_linear)"/>
<path opacity="0.2" fill-rule="evenodd" clip-rule="evenodd" d="M20.6818 247.632L9.97678 254.433C9.37889 254.818 8.84538 254.791 8.50137 254.442L8.44434 254.505L8.50137 254.561C8.84538 254.909 9.37889 254.937 9.97678 254.553L20.7554 247.706L20.6818 247.632Z" fill="black"/>
<path opacity="0.12" fill-rule="evenodd" clip-rule="evenodd" d="M24.354 245.295L20.6729 247.632L20.7391 247.706L24.3448 245.414C24.8617 245.085 25.1156 244.653 25.1156 244.223C25.0843 244.618 24.8213 244.992 24.354 245.295Z" fill="black"/>
<path opacity="0.25" fill-rule="evenodd" clip-rule="evenodd" d="M9.96968 234.012L24.3539 243.151C24.8212 243.445 25.0843 243.83 25.1248 244.223C25.1248 243.793 24.8709 243.361 24.3539 243.031L9.96968 233.893C8.93763 233.232 8.10059 233.784 8.10059 235.102V235.222C8.10059 233.901 8.93763 233.36 9.96968 234.012Z" fill="white"/>
<defs>
<linearGradient id="paint0_linear" x1="16.8213" y1="234.906" x2="1.98436" y2="238.441" gradientUnits="userSpaceOnUse">
<stop stop-color="#00A0FF"/>
<stop offset="0.00657" stop-color="#00A1FF"/>
<stop offset="0.2601" stop-color="#00BEFF"/>
<stop offset="0.5122" stop-color="#00D2FF"/>
<stop offset="0.7604" stop-color="#00DFFF"/>
<stop offset="1" stop-color="#00E3FF"/>
</linearGradient>
<linearGradient id="paint1_linear" x1="25.7" y1="244.223" x2="7.8498" y2="244.223" gradientUnits="userSpaceOnUse">
<stop stop-color="#FFE000"/>
<stop offset="0.4087" stop-color="#FFBD00"/>
<stop offset="0.7754" stop-color="#FFA500"/>
<stop offset="1" stop-color="#FF9C00"/>
</linearGradient>
<linearGradient id="paint2_linear" x1="19.0547" y1="246.118" x2="5.25813" y2="266.882" gradientUnits="userSpaceOnUse">
<stop stop-color="#FF3A44"/>
<stop offset="1" stop-color="#C31162"/>
</linearGradient>
<linearGradient id="paint3_linear" x1="6.12149" y1="227.87" x2="12.2773" y2="237.144" gradientUnits="userSpaceOnUse">
<stop stop-color="#32A071"/>
<stop offset="0.0685" stop-color="#2DA771"/>
<stop offset="0.4762" stop-color="#15CF74"/>
<stop offset="0.8009" stop-color="#06E775"/>
<stop offset="1" stop-color="#00F076"/>
</linearGradient>
<clipPath id="clip0">
<rect width="100" height="33" fill="white" transform="translate(-0.000244141 190.595)"/>
</clipPath>
</defs>
</svg>
