<?xml version="1.0" encoding="UTF-8"?>
<svg width="26px" height="245px" viewBox="0 0 26 245" version="1.1" xmlns="http://www.w3.org/2000/svg" xmlns:xlink="http://www.w3.org/1999/xlink">
    <!-- Generator: Sketch 42 (36781) - http://www.bohemiancoding.com/sketch -->
    <title>Social Icons</title>
    <desc>Created with Sketch.</desc>
    <defs></defs>
    <g id="Sprites" stroke="none" stroke-width="1" fill="none" fill-rule="evenodd">
        <g id="Social-Icons" fill="#FFFFFF">
            <path d="M15.28755,8.35014364 L15.98755,7.18139119 C16.02505,7.11889106 16.0063,7.03764089 15.9438,7.00014081 C15.8813,6.96264073 15.80005,6.98139077 15.76255,7.0438909 L15.0438,8.23139339 C14.5688,8.02514296 14.03755,7.91264272 13.47505,7.91264272 C12.91255,7.91264272 12.3813,8.02514296 11.9063,8.23139339 L11.18755,7.0438909 C11.15005,6.98139077 11.0688,6.96264073 11.0063,7.00014081 C10.9438,7.03764089 10.92505,7.11889106 10.96255,7.18139119 L11.66255,8.35014364 C10.5188,8.93764487 9.7438,10.0751473 9.7438,11.3814 L17.2063,11.3814 C17.2063,10.0751473 16.4313,8.93764487 15.28755,8.35014364 L15.28755,8.35014364 Z M15.2062062,10.0439125 C14.9874528,10.0439125 14.8062,9.86890977 14.8062,9.64390625 C14.8062,9.42515283 14.9874528,9.2439 15.2062062,9.2439 C15.4312098,9.2439 15.6062125,9.42515283 15.6062125,9.64390625 C15.6062125,9.86890977 15.4312098,10.0439125 15.2062062,10.0439125 L15.2062062,10.0439125 Z M11.7438063,10.0439125 C11.5188027,10.0439125 11.3438,9.86890977 11.3438,9.64390625 C11.3438,9.42515283 11.5188027,9.2439 11.7438063,9.2439 C11.9625597,9.2439 12.1438125,9.42515283 12.1438125,9.64390625 C12.1438125,9.86890977 11.9625597,10.0439125 11.7438063,10.0439125 L11.7438063,10.0439125 Z M18.275,11.5126 C17.83125,11.5126 17.475,11.86885 17.475,12.3126 L17.475,15.9126 C17.475,16.35635 17.83125,16.7126 18.275,16.7126 C18.71875,16.7126 19.075,16.35635 19.075,15.9126 L19.075,12.3126 C19.075,11.86885 18.71875,11.5126 18.275,11.5126 L18.275,11.5126 Z M8.675,11.5126 C8.23125,11.5126 7.875,11.86885 7.875,12.3126 L7.875,15.9126 C7.875,16.35635 8.23125,16.7126 8.675,16.7126 C9.11875,16.7126 9.475,16.35635 9.475,15.9126 L9.475,12.3126 C9.475,11.86885 9.11875,11.5126 8.675,11.5126 L8.675,11.5126 Z M9.7438,11.6439 L9.7438,17.2439309 C9.7438,17.6876833 10.10005,18.0439353 10.5438,18.0439353 L11.3438,18.0439353 L11.3438,19.9126956 C11.3438,20.356448 11.70005,20.7127 12.1438,20.7127 C12.5813,20.7127 12.9438,20.356448 12.9438,19.9126956 L12.9438,18.0439353 L14.0063,18.0439353 L14.0063,19.9126956 C14.0063,20.356448 14.3688,20.7127 14.8063,20.7127 C15.25005,20.7127 15.6063,20.356448 15.6063,19.9126956 L15.6063,18.0439353 L16.4063,18.0439353 C16.85005,18.0439353 17.2063,17.6876833 17.2063,17.2439309 L17.2063,11.6439 L9.7438,11.6439 Z" id="android"></path>
            <path d="M15.9312435,33.7334 C14.768765,33.8271489 13.1187954,35.0271349 13.3437913,36.8083641 C14.875013,36.8646134 16.1562393,35.1333836 15.9312435,33.7334 L15.9312435,33.7334 Z M11.2,36.6459 C9.91875,36.6459 7.875,37.7896556 7.875,40.6459197 C7.875,43.3959333 9.89375,46.7772 11.45625,46.7772 C12.275,46.7772 12.6375,46.2459474 13.7125,46.2459474 C14.95,46.2459474 15.0125,46.7772 15.94375,46.7772 C17.6,46.7772 19.075,43.3084329 19.075,43.3084329 C19.075,43.3084329 17.20625,42.7084299 17.20625,40.6459197 C17.20625,38.9084112 18.69375,38.1084072 18.69375,38.1084072 C18.69375,38.1084072 17.71875,36.6459 16.19375,36.6459 C15.0625,36.6459 14.4625,37.3021532 13.7,37.3021532 C12.79375,37.3021532 12.325,36.6459 11.2,36.6459 L11.2,36.6459 Z" id="apple"></path>
            <path d="M18.25,61 L7.75,61 C7.33984375,61 7,61.3398438 7,61.75 L7,72.25 C7,72.6601562 7.33984375,73 7.75,73 L13.4160156,73 L13.4160156,68.3359375 L11.9160156,68.3359375 L11.9160156,66.6074219 L13.4160156,66.6074219 L13.4160156,65.1132812 C13.4160156,63.7480469 14.2480469,62.8339844 15.8945312,62.8339844 C16.6210938,62.8339844 17.125,62.9160156 17.125,62.9160156 L17.125,64.4746094 L16,64.4746094 C15.5019531,64.4746094 15.25,64.7558594 15.25,65.2480469 L15.25,66.6074219 L17.0019531,66.6074219 L16.75,68.3359375 L15.25,68.3359375 L15.25,73 L18.25,73 C18.6601562,73 19,72.6601562 19,72.25 L19,61.75 C19,61.3398438 18.6601562,61 18.25,61 L18.25,61 Z" id="facebook"></path>
            <path d="M19,90.3173375 C18.5546875,90.5165562 18.0859375,90.6513219 17.5820312,90.7099156 C18.0976562,90.4052281 18.484375,89.9189 18.6660156,89.3446812 C18.1972656,89.6259312 17.6640625,89.8310094 17.1132812,89.9423375 C16.6503906,89.4735875 16.0117188,89.1689 15.3027344,89.1689 C13.9433594,89.1689 12.8476562,90.2646031 12.8476562,91.6239781 C12.8476562,91.8173375 12.859375,92.0165562 12.9003906,92.1923375 C10.8613281,92.0810094 9.05664062,91.1552281 7.83203125,89.6669469 C7.62695312,90.0302281 7.49804688,90.4052281 7.49804688,90.8622594 C7.49804688,91.7060094 7.93164062,92.4560094 8.59960938,92.9013219 C8.1953125,92.8896031 7.8203125,92.778275 7.48632812,92.5966344 L7.48632812,92.6259312 C7.48632812,93.8212437 8.3359375,94.8173375 9.4609375,95.0399937 C9.25,95.0985875 9.02734375,95.1278844 8.8046875,95.1278844 C8.65234375,95.1278844 8.5,95.1103062 8.34765625,95.0810094 C8.65234375,96.0536656 9.57226562,96.7802281 10.6386719,96.7919469 C9.80664062,97.4599156 8.734375,97.9579625 7.5859375,97.9579625 C7.38671875,97.9579625 7.19335938,97.9462437 7,97.9169469 C8.08398438,98.6142125 9.390625,98.9189 10.7792969,98.9189 C15.3027344,98.9189 17.7753906,95.1689 17.7753906,91.9169469 L17.7753906,91.5946812 C18.25,91.2489781 18.6660156,90.8212437 19,90.3173375 L19,90.3173375 Z" id="twitter"></path>
            <path d="M19,116.873047 L17.0019531,116.873047 L17.0019531,114.875 L16.4980469,114.875 L16.4980469,116.873047 L14.5,116.873047 L14.5,117.376953 L16.4980469,117.376953 L16.4980469,119.375 L17.0019531,119.375 L17.0019531,117.376953 L19,117.376953 L19,116.873047 Z M12.2089521,120.957067 C11.9159852,120.763708 11.376926,120.277381 11.376926,119.984413 C11.376926,119.650429 11.4706754,119.486367 11.9745786,119.082071 C12.501919,118.677775 12.8593387,118.109416 12.8593387,117.447308 C12.8593387,116.650435 12.5136377,115.888717 11.8456731,115.636765 L12.84762,115.636765 L13.5566,115.127 L10.4159945,115.127 C8.9980345,115.127 7.67968329,116.193404 7.67968329,117.42973 C7.67968329,118.695353 8.64061483,119.709023 10.0702935,119.709023 C10.1640429,119.709023 10.2636517,119.709023 10.3632604,119.697304 C10.2636517,119.873085 10.2109176,120.084022 10.2109176,120.2891 C10.2109176,120.640662 10.3866978,120.916052 10.6269307,121.150426 L10.0820122,121.150426 C8.3476479,121.150426 7,122.263706 7,123.418 C7,124.554717 8.47069401,125.2637 10.2109176,125.2637 C12.2089521,125.2637 13.3046484,124.138702 13.3046484,123.001985 C13.3046484,122.099643 13.0292595,121.554722 12.2089521,120.957067 L12.2089521,120.957067 Z M10.527373,119.38676 C9.72464002,119.363322 8.9453445,118.484405 8.80471975,117.417986 C8.66409499,116.363286 9.20901592,115.542964 10.0117489,115.572261 C10.83206,115.595699 11.5996368,116.445318 11.7344022,117.511737 C11.8750269,118.572297 11.3359654,119.416057 10.527373,119.38676 L10.527373,119.38676 Z M10.2109396,124.7657 C8.99803679,124.7657 8.1367,123.998114 8.1367,123.084042 C8.1367,122.181689 9.20897642,121.4434 10.4160198,121.4434 C10.6972726,121.460978 10.9609472,121.501994 11.1953245,121.572308 C11.8457217,122.029344 12.3203358,122.293018 12.4609623,122.802789 C12.4726811,122.914118 12.4844,123.013729 12.4844,123.125058 C12.4844,124.03913 11.904316,124.7657 10.2109396,124.7657 L10.2109396,124.7657 Z" id="googleplus"></path>
            <path d="M13,139 C9.67773438,139 7,141.677734 7,145 C7,148.322266 9.67773438,151 13,151 C16.3222656,151 19,148.322266 19,145 C19,141.677734 16.3222656,139 13,139 L13,139 Z M13,150.25 C10.0996094,150.25 7.75,147.900391 7.75,145 C7.75,142.099609 10.0996094,139.75 13,139.75 C15.9003906,139.75 18.25,142.099609 18.25,145 C18.25,147.900391 15.9003906,150.25 13,150.25 L13,150.25 Z M15.2089701,142.474603 C15.2089701,142.052729 15.5136559,141.666012 15.9589659,141.666012 L16.0117,141.666012 C15.2206888,140.945311 14.1660071,140.5 12.9999979,140.5 C11.4296941,140.5 10.0410299,141.302732 9.2383,142.527337 L9.5136891,142.527337 C9.97071782,142.527337 10.708995,142.474603 10.708995,142.474603 C10.9433687,142.457025 10.9726654,142.820305 10.7382917,142.849601 C10.7382917,142.849601 10.48634,142.873039 10.2226696,142.890617 L11.8632855,147.7656 L12.847655,144.806626 L12.1386746,142.890617 C11.9043009,142.873039 11.6640678,142.849601 11.6640678,142.849601 C11.4296941,142.832023 11.4589908,142.457025 11.6933645,142.474603 C11.6933645,142.474603 12.4433604,142.527337 12.8886704,142.527337 C13.3632772,142.527337 14.0839763,142.474603 14.0839763,142.474603 C14.335928,142.457025 14.3593654,142.820305 14.113273,142.849601 C14.113273,142.849601 13.87304,142.873039 13.5976509,142.890617 L15.2206888,147.724585 L15.6659988,146.22459 C15.8593571,145.597639 16.0117,145.152328 16.0117,144.76561 C16.0117,144.208972 15.8183417,143.822254 15.6367021,143.529286 C15.4140471,143.154288 15.2089701,142.849601 15.2089701,142.474603 L15.2089701,142.474603 Z M16.9433547,142.8496 C16.9726518,142.984365 16.9726518,143.136709 16.9726518,143.30663 C16.9726518,143.76366 16.8906199,144.279284 16.6386647,144.917954 L15.2617,148.8906 C16.5976487,148.111305 17.5,146.664043 17.5,144.999985 C17.5,144.22069 17.306639,143.48827 16.9433547,142.8496 L16.9433547,142.8496 Z M8.5,145.000001 C8.5,146.775405 9.5254021,148.304713 11.0137,149.043 L8.8750042,143.1953 C8.64062657,143.751945 8.5,144.361324 8.5,145.000001 L8.5,145.000001 Z M13.0527554,145.3867 L11.7227,149.318359 C12.12699,149.429687 12.5547171,149.5 13.000022,149.5 C13.5156382,149.5 14.0136765,149.417968 14.4707,149.248046 L13.0527554,145.3867 Z" id="wordpress"></path>
            <path d="M13,168.0439 C7,168.0439 7,168.0439 7,172.29195 C7,176.54 7,176.54 13,176.54 C19,176.54 19,176.54 19,172.29195 C19,168.0439 19,168.0439 13,168.0439 L13,168.0439 Z M11.5,174.5419 L11.5,170.0419 L15.25,172.2919 L11.5,174.5419 Z" id="youtube"></path>
            <path d="M10,218.707031 C9.98828125,217.933594 9.4140625,217.335938 8.51171875,217.335938 C7.59765625,217.335938 7,217.933594 7,218.707031 C7,219.474609 7.5859375,220.083984 8.47070312,220.083984 L8.48828125,220.083984 C9.4140625,220.083984 10,219.474609 10,218.707031 Z M7.25195312,221.332031 L7.25195312,229.083984 L9.74804688,229.083984 L9.74804688,221.332031 L7.25195312,221.332031 Z M13.75,224.583984 C13.75,223.582031 14.3886719,223.083984 15.1386719,223.083984 C15.8886719,223.083984 16.4980469,223.582031 16.4980469,224.835938 L16.4980469,229.083984 L19,229.083984 L19,224.583984 C19,222.333984 17.7519531,221.085938 16,221.085938 C14.9980469,221.085938 14.2480469,221.654297 13.75,222.404297 L13.6679688,221.332031 L11.2070312,221.332031 C11.2070312,221.595703 11.2480469,223.083984 11.2480469,223.083984 L11.2480469,229.083984 L13.75,229.083984 L13.75,224.583984 Z" id="linkedin"></path>
            <g id="Instagram" transform="translate(7.000000, 191.000000)">
                <path d="M5.99995,1.0827 C7.6015191,1.0827 7.7912093,1.08879523 8.42368457,1.11765233 C9.00849325,1.14434277 9.32608803,1.24205691 9.53746867,1.32417584 C9.81742065,1.43298521 10.0172537,1.56298502 10.2271343,1.77286566 C10.437015,1.98274631 10.5670148,2.18257935 10.6758004,2.46253133 C10.7579431,2.67391197 10.8556572,2.99150675 10.8823477,3.57629162 C10.9112048,4.2087907 10.9173,4.3984809 10.9173,6.00005 C10.9173,7.6016191 10.9112048,7.7913093 10.8823477,8.42378457 C10.8556572,9.00859325 10.7579431,9.32618803 10.6758004,9.53756867 C10.5670148,9.81752065 10.437015,10.0173537 10.2271343,10.2272343 C10.0172537,10.437115 9.81742065,10.5671148 9.53746867,10.6759004 C9.32608803,10.7580431 9.00849325,10.8557572 8.42368457,10.8824477 C7.79130454,10.9113048 7.60161434,10.9174 5.99995,10.9174 C4.39828566,10.9174 4.20859546,10.9113048 3.57621543,10.8824477 C2.99140675,10.8557572 2.67381197,10.7580431 2.46245514,10.6759004 C2.18247935,10.5671148 1.98264631,10.437115 1.77276566,10.2272343 C1.56288502,10.0173537 1.43288521,9.81752065 1.32409965,9.53756867 C1.24195691,9.32618803 1.14424277,9.00859325 1.11755233,8.42380838 C1.08869523,7.7913093 1.0826,7.6016191 1.0826,6.00005 C1.0826,4.3984809 1.08869523,4.2087907 1.11755233,3.57631543 C1.14424277,2.99150675 1.24195691,2.67391197 1.32409965,2.46253133 C1.43288521,2.18257935 1.56288502,1.98274631 1.77276566,1.77286566 C1.98264631,1.56298502 2.18247935,1.43298521 2.46245514,1.32417584 C2.67381197,1.24205691 2.99140675,1.14434277 3.57619162,1.11765233 C4.2086907,1.08879523 4.3983809,1.0827 5.99995,1.0827 M5.9999881,0.0019 C4.37099004,0.0019 4.16675218,0.00880475368 3.52699104,0.0379951951 C2.88853942,0.0671380175 2.45253994,0.168518849 2.07099277,0.316804387 C1.67656467,0.470089919 1.34206507,0.675184913 1.00861309,1.0086369 C0.675161103,1.34208888 0.470066109,1.67658848 0.316780577,2.07101658 C0.16849504,2.45256375 0.0671142081,2.88856323 0.0379713856,3.52701485 C0.00878094419,4.16675218 0.0019,4.37101384 0.0019,6.0000119 C0.0019,7.62900996 0.00878094419,7.83327163 0.0379713856,8.47300896 C0.0671142081,9.11146058 0.16849504,9.54746006 0.316780577,9.92900723 C0.470066109,10.3234115 0.675161103,10.6579349 1.00861309,10.9913869 C1.34206507,11.3248389 1.67656467,11.5299339 2.07099277,11.6832194 C2.45253994,11.831505 2.88853942,11.9328858 3.52699104,11.9620286 C4.16675218,11.9912191 4.37099004,11.9981 5.9999881,11.9981 C7.62898616,11.9981 7.83324782,11.9912191 8.47298515,11.9620286 C9.11143677,11.9328858 9.54743625,11.831505 9.92898342,11.6832194 C10.3234115,11.5299339 10.6579111,11.3248389 10.9913631,10.9913869 C11.3248151,10.6579349 11.5299101,10.3234353 11.6831956,9.92900723 C11.8314812,9.54746006 11.932862,9.11146058 11.9620048,8.47300896 C11.9911952,7.83327163 11.9981,7.62900996 11.9981,6.0000119 C11.9981,4.37101384 11.9911952,4.16675218 11.9620048,3.52701485 C11.932862,2.88856323 11.8314812,2.45256375 11.6831956,2.07101658 C11.5299101,1.67658848 11.3248151,1.34208888 10.9913631,1.0086369 C10.6579111,0.675184913 10.3234115,0.470089919 9.92898342,0.316804387 C9.54743625,0.168518849 9.11143677,0.0671380175 8.47298515,0.0379951951 C7.83324782,0.00880475368 7.62898616,0.0019 5.9999881,0.0019" id="Fill-1"></path>
                <path d="M6,2.9199 C4.29891528,2.9199 2.9199,4.29891528 2.9199,6 C2.9199,7.70108472 4.29891528,9.0801 6,9.0801 C7.70108472,9.0801 9.0801,7.70108472 9.0801,6 C9.0801,4.29891528 7.70108472,2.9199 6,2.9199 L6,2.9199 Z M6,7.9994 C4.89577519,7.9994 4.0006,7.10422481 4.0006,6 C4.0006,4.89577519 4.89577519,4.0006 6,4.0006 C7.10422481,4.0006 7.9994,4.89577519 7.9994,6 C7.9994,7.10422481 7.10422481,7.9994 6,7.9994 L6,7.9994 Z" id="Fill-2"></path>
                <path d="M9.9215,2.7981381 C9.9215,3.19564876 9.59927256,3.5179 9.2017619,3.5179 C8.80425124,3.5179 8.482,3.19564876 8.482,2.7981381 C8.482,2.40062744 8.80425124,2.0784 9.2017619,2.0784 C9.59927256,2.0784 9.9215,2.40062744 9.9215,2.7981381" id="Fill-3"></path>
            </g>
        </g>
    </g>
</svg>