<?xml version="1.0" encoding="UTF-8"?>
<svg width="10px" height="14px" viewBox="0 0 10 14" version="1.1" xmlns="http://www.w3.org/2000/svg" xmlns:xlink="http://www.w3.org/1999/xlink">
    <!-- Generator: Sketch 50.2 (55047) - http://www.bohemiancoding.com/sketch -->
    <title>Shape@2x</title>
    <desc>Created with Sketch.</desc>
    <defs></defs>
    <g id="2.0" stroke="none" stroke-width="1" fill="none" fill-rule="evenodd">
        <g id="HomepageV2_Comp_SignedOut_desktop" transform="translate(-52.000000, -737.000000)" fill="#FECF69" fill-rule="nonzero">
            <g id="Browse-Inventory" transform="translate(50.000000, 663.000000)">
                <path d="M11.2817521,79.8846992 C11.3762931,80.0935229 11.339632,80.3383256 11.1880569,80.5103443 L4.77136562,87.8022456 C4.58566836,88.0129838 4.27602985,88.0615179 4.03468075,87.9177168 C3.79333165,87.7739157 3.68884032,87.4786339 3.78607736,87.2151892 L5.53852794,82.4583612 L2.58339287,82.4583612 C2.35413837,82.4582091 2.14619509,82.3239809 2.051796,82.1152134 C1.95739692,81.9064459 1.99401911,81.6617903 2.14541887,81.4897633 L8.56240201,74.1978621 C8.74807234,73.9870403 9.05776582,73.938455 9.29915356,74.0822791 C9.54054129,74.2261033 9.64501369,74.5214577 9.54769027,74.7849185 L7.79509375,79.5416007 L10.750258,79.5416007 C10.9795315,79.5415549 11.1875351,79.6758288 11.2817521,79.8846992 Z" id="Shape"></path>
            </g>
        </g>
    </g>
</svg>