<?xml version="1.0" encoding="UTF-8"?>
<svg width="12px" height="12px" viewBox="0 0 12 12" version="1.1" xmlns="http://www.w3.org/2000/svg" xmlns:xlink="http://www.w3.org/1999/xlink">
    <!-- Generator: Sketch 50.2 (55047) - http://www.bohemiancoding.com/sketch -->
    <title>Path@2x</title>
    <desc>Created with Sketch.</desc>
    <defs></defs>
    <g id="2.0" stroke="none" stroke-width="1" fill="none" fill-rule="evenodd">
        <g id="HomepageV2_Comp_SignedOut_desktop" transform="translate(-997.000000, -676.000000)" fill="#69B854">
            <g id="Browse-Inventory" transform="translate(50.000000, 663.000000)">
                <path d="M947.410377,24.9350471 C947.764518,25.0981177 948.18382,24.9435748 948.347422,24.5896787 L950.041397,20.9208943 L951.443876,22.3224199 C951.607108,22.4856381 951.839818,22.5587577 952.067068,22.5182326 C952.294318,22.4777075 952.487408,22.3286558 952.58416,22.1190751 L954.206646,18.6055882 L955.614985,20.4826087 C955.772682,20.6925828 956.033836,20.7977543 956.29304,20.7556727 C956.552243,20.713591 956.766712,20.531202 956.849881,20.2821234 L958.968409,13.9295411 C959.09168,13.5595416 958.891668,13.1596666 958.521668,13.0363952 C958.151669,12.9131237 957.751794,13.1131363 957.628522,13.4831358 L955.936207,18.5576468 L954.626469,16.8119532 C954.47718,16.6131309 954.234358,16.507435 953.987113,16.5336538 C953.739868,16.5598727 953.524614,16.714145 953.420345,16.9398556 L951.726405,20.60864 L950.323962,19.2071145 C950.160676,19.0439189 949.927942,18.9708212 949.70067,19.0113497 C949.473398,19.0518782 949.280276,19.200917 949.183466,19.4104946 L947.065079,23.998249 C946.901787,24.3522918 947.05637,24.7716779 947.410377,24.9350471 Z" id="Path"></path>
            </g>
        </g>
    </g>
</svg>