<?xml version="1.0" encoding="UTF-8"?>
<svg width="34px" height="34px" viewBox="0 0 34 34" version="1.1" xmlns="http://www.w3.org/2000/svg" xmlns:xlink="http://www.w3.org/1999/xlink">
    <!-- Generator: Sketch 50.2 (55047) - http://www.bohemiancoding.com/sketch -->
    <title>LinkedIn</title>
    <desc>Created with Sketch.</desc>
    <defs></defs>
    <g id="2.0" stroke="none" stroke-width="1" fill="none" fill-rule="evenodd">
        <g id="HomepageV2_Comp_SignedOut_desktop" transform="translate(-1081.000000, -2833.000000)" fill="#1178B3">
            <g id="Connect" transform="translate(50.000000, 2623.000000)">
                <path d="M1048,210 C1057.41309,210 1065,217.586914 1065,227 C1065,236.413086 1057.41309,244 1048,244 C1038.58691,244 1031,236.413086 1031,227 C1031,217.586914 1038.58691,210 1048,210 Z M1041.02316,216.924181 C1039.75302,216.924181 1038.72876,217.951404 1038.72876,219.217103 C1038.72876,220.483542 1039.75302,221.510765 1041.02316,221.510765 C1042.28812,221.510765 1043.3146,220.483542 1043.3146,219.217103 C1043.3146,217.951404 1042.28812,216.924181 1041.02316,216.924181 Z M1039.04278,235.972614 L1043.00133,235.972614 L1043.00133,223.248972 L1039.04278,223.248972 L1039.04278,235.972614 Z M1045.39423,223.164543 L1045.39423,235.888185 L1049.34389,235.888185 L1049.34389,229.59524 C1049.34389,227.934798 1049.65791,226.326938 1051.71606,226.326938 C1053.74532,226.326938 1053.7705,228.225116 1053.7705,229.700407 L1053.7705,235.888185 L1057.72461,235.888185 L1057.72461,228.910178 C1057.72461,225.483386 1056.98474,222.849044 1052.98028,222.849044 C1051.05692,222.849044 1049.76678,223.903669 1049.23947,224.90423 L1049.18466,224.90423 L1049.18466,223.164543 L1045.39423,223.164543 Z" id="LinkedIn"></path>
            </g>
        </g>
    </g>
</svg>