<?xml version="1.0" encoding="UTF-8"?>
<svg width="34px" height="34px" viewBox="0 0 34 34" version="1.1" xmlns="http://www.w3.org/2000/svg" xmlns:xlink="http://www.w3.org/1999/xlink">
    <!-- Generator: Sketch 50.2 (55047) - http://www.bohemiancoding.com/sketch -->
    <title>twitter</title>
    <desc>Created with Sketch.</desc>
    <defs></defs>
    <g id="2.0" stroke="none" stroke-width="1" fill="none" fill-rule="evenodd">
        <g id="HomepageV2_Comp_SignedOut_desktop" transform="translate(-1081.000000, -2887.000000)" fill="#2AA3EF">
            <g id="Connect" transform="translate(50.000000, 2623.000000)">
                <path d="M1048,264 C1057.41309,264 1065,271.586914 1065,281 C1065,290.413086 1057.41309,298 1048,298 C1038.58691,298 1031,290.413086 1031,281 C1031,271.586914 1038.58691,264 1048,264 Z M1058.34277,277.264648 C1059.28906,276.600586 1060.08594,275.720703 1060.75,274.774414 C1059.88672,275.139648 1058.94043,275.405273 1057.96094,275.538086 C1058.97363,274.94043 1059.6875,273.994141 1060.03613,272.848633 C1059.08984,273.413086 1058.11035,273.794922 1057.01465,274.027344 C1056.15137,273.097656 1054.88965,272.5 1053.51172,272.5 C1050.83887,272.5 1048.71387,274.658203 1048.71387,277.347656 C1048.71387,277.696289 1048.74707,278.094727 1048.83008,278.443359 C1044.8125,278.244141 1041.22656,276.318359 1038.83594,273.363281 C1038.4375,274.110352 1038.20508,274.94043 1038.20508,275.803711 C1038.20508,277.49707 1039.03516,278.958008 1040.33008,279.821289 C1039.5332,279.821289 1038.78613,279.588867 1038.15527,279.223633 L1038.15527,279.273438 C1038.15527,281.630859 1039.81543,283.556641 1042.02344,284.038086 C1041.625,284.154297 1041.19336,284.1875 1040.76172,284.1875 C1040.44629,284.1875 1040.13086,284.154297 1039.84863,284.104492 C1040.44629,286.030273 1042.25586,287.341797 1044.34766,287.375 C1042.6875,288.669922 1040.64551,289.583008 1038.35449,289.583008 C1037.97266,289.583008 1037.57422,289.533203 1037.22559,289.5 C1039.35059,290.87793 1041.90723,291.625 1044.61328,291.625 C1053.51172,291.625 1058.34277,284.270508 1058.34277,277.895508 L1058.34277,277.264648 Z" id="twitter"></path>
            </g>
        </g>
    </g>
</svg>