<?xml version="1.0" encoding="UTF-8"?>
<svg width="12px" height="14px" viewBox="0 0 12 14" version="1.1" xmlns="http://www.w3.org/2000/svg" xmlns:xlink="http://www.w3.org/1999/xlink">
    <!-- Generator: Sketch 50.2 (55047) - http://www.bohemiancoding.com/sketch -->
    <title>Shape@2x</title>
    <desc>Created with Sketch.</desc>
    <defs></defs>
    <g id="2.0" stroke="none" stroke-width="1" fill="none" fill-rule="evenodd">
        <g id="HomepageV2_Comp_SignedOut_desktop" transform="translate(-52.000000, -992.000000)" fill="#DD2F2F" fill-rule="nonzero">
            <g id="Browse-Inventory" transform="translate(50.000000, 663.000000)">
                <path d="M9.351848,342.612728 C9.96496929,342.093952 10.4227135,341.415841 10.674512,340.653306 C10.6879352,340.609721 10.6799624,340.562357 10.6530089,340.525564 C10.6260554,340.488771 10.5832927,340.466878 10.537676,340.466518 C9.894006,340.478651 9.25429604,340.570176 8.63306,340.739017 C8.5790694,340.759731 8.51792707,340.746334 8.47755282,340.704943 C8.43717856,340.663552 8.42531993,340.60211 8.447392,340.548673 C8.66348542,339.892461 8.75591894,339.201863 8.72,338.511939 C8.72,337.028125 7.818708,335.879457 7.50158,335.485193 C7.47012123,335.444978 7.41907708,335.425334 7.3687647,335.43408 C7.31845232,335.442826 7.27703726,335.478542 7.261004,335.527013 C6.8384,336.876018 5.080056,338.810947 5.080056,340.749878 C5.080056,341.915342 5.854256,342.42132 5.911292,342.691636 C5.958248,342.914255 5.844932,343.037446 5.631936,342.970378 C4.214044,342.524106 2,340.485356 2,337.952356 C2,333.350516 6.48,332.432191 6.48,330.119542 C6.45154545,329.823783 6.36072552,329.537409 6.213524,329.279287 C6.18914387,329.204502 6.20792963,329.122373 6.26239839,329.065614 C6.31686715,329.008854 6.39817084,328.986684 6.473924,329.007935 C7.91388,329.395648 11.240056,331.405762 11.240056,335.434668 C11.2135645,336.301653 11.0235701,337.155844 10.680056,337.952356 C10.680056,337.952356 11.6215,337.788885 12.897656,337.671487 C12.9832429,337.6688 13.0657613,337.703488 13.1237079,337.766513 C13.1816546,337.829539 13.2092897,337.914658 13.199412,337.99969 C13.199412,339.942317 11.681112,342.182019 9.52094,342.988908 C9.324968,343.062051 9.194012,342.754814 9.351848,342.612728 Z" id="Shape"></path>
            </g>
        </g>
    </g>
</svg>