<?xml version="1.0" encoding="UTF-8"?>
<svg width="34px" height="34px" viewBox="0 0 34 34" version="1.1" xmlns="http://www.w3.org/2000/svg" xmlns:xlink="http://www.w3.org/1999/xlink">
    <!-- Generator: Sketch 50.2 (55047) - http://www.bohemiancoding.com/sketch -->
    <title>Combined Shape</title>
    <desc>Created with Sketch.</desc>
    <defs>
        <linearGradient x1="86.0956061%" y1="13.5536306%" x2="15.6450014%" y2="86.6011857%" id="linearGradient-1">
            <stop stop-color="#4E6BD3" offset="0%"></stop>
            <stop stop-color="#774DBF" offset="17.2273597%"></stop>
            <stop stop-color="#A4379D" offset="32.4617347%"></stop>
            <stop stop-color="#BD3891" offset="45.5038265%"></stop>
            <stop stop-color="#CA486E" offset="58.8069994%"></stop>
            <stop stop-color="#E0555B" offset="71.9826212%"></stop>
            <stop stop-color="#F18656" offset="86.0271843%"></stop>
            <stop stop-color="#FABB62" offset="100%"></stop>
        </linearGradient>
    </defs>
    <g id="2.0" stroke="none" stroke-width="1" fill="none" fill-rule="evenodd">
        <g id="HomepageV2_Comp_SignedOut_desktop" transform="translate(-1081.000000, -2779.000000)" fill="url(#linearGradient-1)">
            <g id="Connect" transform="translate(50.000000, 2623.000000)">
                <path d="M1048,190 C1038.61116,190 1031,182.388841 1031,173 C1031,163.611159 1038.61116,156 1048,156 C1057.38884,156 1065,163.611159 1065,173 C1065,182.388841 1057.38884,190 1048,190 Z M1047.99989,163.003091 C1045.2849,163.003091 1044.9445,163.014599 1043.87823,163.063249 C1042.81415,163.111821 1042.08748,163.280789 1041.45157,163.527931 C1040.79419,163.783406 1040.2367,164.125231 1039.68094,164.680983 C1039.12519,165.236736 1038.78337,165.794234 1038.52789,166.451613 C1038.28075,167.087524 1038.11178,167.814189 1038.06321,168.878273 C1038.01456,169.944501 1038.00309,170.284936 1038.00309,172.999929 C1038.00309,175.714922 1038.01456,176.055357 1038.06321,177.121584 C1038.11178,178.185669 1038.28075,178.912334 1038.52789,179.548245 C1038.78337,180.205584 1039.12519,180.763122 1039.68094,181.318875 C1040.2367,181.874627 1040.79419,182.216452 1041.45157,182.471927 C1042.08748,182.719069 1042.81415,182.888037 1043.87823,182.936608 C1044.9445,182.985259 1045.2849,182.996727 1047.99989,182.996727 C1050.71488,182.996727 1051.05532,182.985259 1052.12154,182.936608 C1053.18563,182.888037 1053.91229,182.719069 1054.5482,182.471927 C1055.20558,182.216452 1055.76308,181.874627 1056.31883,181.318875 C1056.87459,180.763122 1057.21641,180.205624 1057.47189,179.548245 C1057.71903,178.912334 1057.888,178.185669 1057.93657,177.121584 C1057.98522,176.055357 1057.99673,175.714922 1057.99673,172.999929 C1057.99673,170.284936 1057.98522,169.944501 1057.93657,168.878273 C1057.888,167.814189 1057.71903,167.087524 1057.47189,166.451613 C1057.21641,165.794234 1056.87459,165.236736 1056.31883,164.680983 C1055.76308,164.125231 1055.20558,163.783406 1054.5482,163.527931 C1053.91229,163.280789 1053.18563,163.111821 1052.12154,163.063249 C1051.05532,163.014599 1050.71488,163.003091 1047.99989,163.003091 Z M1048,164.804364 C1050.6693,164.804364 1050.98545,164.814522 1052.03958,164.862618 C1053.01427,164.907102 1053.5436,165.06996 1053.8959,165.206826 C1054.36249,165.388176 1054.69555,165.604844 1055.04535,165.954647 C1055.39516,166.304451 1055.61182,166.637508 1055.79313,167.104097 C1055.93004,167.456401 1056.0929,167.985729 1056.13738,168.960377 C1056.18548,170.014549 1056.19564,170.330701 1056.19564,173 C1056.19564,175.669299 1056.18548,175.985451 1056.13738,177.039584 C1056.0929,178.014271 1055.93004,178.543599 1055.79313,178.895903 C1055.61182,179.362492 1055.39516,179.695549 1055.04535,180.045353 C1054.69555,180.395156 1054.36249,180.611824 1053.8959,180.793134 C1053.5436,180.93004 1053.01427,181.092898 1052.03958,181.137382 C1050.98561,181.185478 1050.66946,181.195636 1048,181.195636 C1045.33054,181.195636 1045.01439,181.185478 1043.96042,181.137382 C1042.98573,181.092898 1042.4564,180.93004 1042.10414,180.793134 C1041.63751,180.611824 1041.30445,180.395156 1040.95465,180.045353 C1040.60484,179.695549 1040.38818,179.362492 1040.20687,178.895903 C1040.06996,178.543599 1039.9071,178.014271 1039.86262,177.039623 C1039.81452,175.985451 1039.80436,175.669299 1039.80436,173 C1039.80436,170.330701 1039.81452,170.014549 1039.86262,168.960416 C1039.9071,167.985729 1040.06996,167.456401 1040.20687,167.104097 C1040.38818,166.637508 1040.60484,166.304451 1040.95465,165.954647 C1041.30445,165.604844 1041.63751,165.388176 1042.10414,165.206826 C1042.4564,165.06996 1042.98573,164.907102 1043.96038,164.862618 C1045.01455,164.814522 1045.3307,164.804364 1048,164.804364 Z M1048.00009,167.866545 C1045.16492,167.866545 1042.86655,170.164925 1042.86655,173.000091 C1042.86655,175.835257 1045.16492,178.133636 1048.00009,178.133636 C1050.83526,178.133636 1053.13364,175.835257 1053.13364,173.000091 C1053.13364,170.164925 1050.83526,167.866545 1048.00009,167.866545 Z M1048.00009,176.332364 C1046.15975,176.332364 1044.66782,174.840432 1044.66782,173.000091 C1044.66782,171.15975 1046.15975,169.667818 1048.00009,169.667818 C1049.84043,169.667818 1051.33236,171.15975 1051.33236,173.000091 C1051.33236,174.840432 1049.84043,176.332364 1048.00009,176.332364 Z M1054.536,167.663617 C1054.536,167.001069 1053.99893,166.464 1053.33638,166.464 C1052.67384,166.464 1052.13673,167.001069 1052.13673,167.663617 C1052.13673,168.326164 1052.67384,168.863273 1053.33638,168.863273 C1053.99893,168.863273 1054.536,168.326164 1054.536,167.663617 Z" id="Combined-Shape"></path>
            </g>
        </g>
    </g>
</svg>