<?xml version="1.0" encoding="UTF-8"?>
<svg width="36px" height="36px" viewBox="0 0 36 36" version="1.1" xmlns="http://www.w3.org/2000/svg" xmlns:xlink="http://www.w3.org/1999/xlink">
    <!-- Generator: Sketch 50.2 (55047) - http://www.bohemiancoding.com/sketch -->
    <title>facebook@2x</title>
    <desc>Created with Sketch.</desc>
    <defs></defs>
    <g id="2.0" stroke="none" stroke-width="1" fill="none" fill-rule="evenodd">
        <g id="HomepageV2_Comp_SignedOut_desktop" transform="translate(-1080.000000, -2723.000000)" fill="#4963A1">
            <g id="Connect" transform="translate(50.000000, 2623.000000)">
                <path d="M1048,100 C1057.93164,100 1066,108.068359 1066,118 C1066,126.384766 1060.26953,133.433594 1052.5,135.4375 L1052.5,121.744141 L1056.34961,121.744141 L1057,117.244141 L1052.5,117.244141 L1052.5,113.289062 C1052.5,111.988281 1053.15039,111.25 1054.46875,111.25 L1057.33398,111.25 L1057.33398,107.066406 C1057.33398,107.066406 1055.99805,106.767578 1054.09961,106.767578 C1049.77539,106.767578 1047.5957,109.175781 1047.5957,112.744141 L1047.5957,117.244141 L1043.5,117.244141 L1043.5,121.744141 L1047.5957,121.744141 L1047.5957,136 C1037.83984,135.789062 1030,127.808594 1030,118 C1030,108.068359 1038.06836,100 1048,100 Z" id="facebook"></path>
            </g>
        </g>
    </g>
</svg>